{"glyphs":{"0":{"ha":782,"x_min":56,"x_max":725,"o":"m 361 -20 q 132 128 211 -9 q 56 482 56 258 q 132 834 56 703 q 361 985 212 972 l 361 916 q 298 780 317 889 q 280 483 280 671 q 299 185 280 295 q 361 49 317 76 l 361 -20 m 422 49 q 484 184 465 76 q 502 482 502 292 q 484 779 502 672 q 422 915 465 886 l 422 985 q 648 833 569 971 q 725 482 725 700 q 648 131 725 263 q 422 -20 568 -6 l 422 49 z "},"1":{"ha":781,"x_min":144,"x_max":654,"o":"m 241 793 q 144 787 205 787 l 144 844 q 241 897 199 869 l 241 793 m 302 913 q 414 972 395 959 l 515 972 l 515 149 q 564 75 515 93 q 610 63 586 67 q 654 50 635 59 l 654 0 l 161 0 l 161 50 q 207 62 182 58 q 253 75 232 66 q 302 149 302 94 l 302 913 z "},"2":{"ha":782,"x_min":62,"x_max":688,"o":"m 62 0 l 62 170 q 167 286 117 233 q 261 386 218 339 q 341 475 305 433 q 403 559 377 517 q 456 736 456 646 q 408 887 456 837 q 372 911 393 903 l 372 985 q 602 906 515 982 q 688 710 688 831 q 564 471 688 599 q 405 318 509 414 q 231 155 300 222 l 304 155 l 304 0 l 62 0 m 366 155 l 434 155 q 591 227 553 155 q 609 266 601 246 q 650 332 629 317 l 677 332 l 677 0 l 366 0 l 366 155 m 312 919 q 199 862 232 913 q 188 831 190 847 q 273 787 244 827 q 295 724 295 756 q 288 673 295 692 q 266 640 280 654 q 198 610 237 610 q 137 620 159 610 q 99 648 115 630 q 67 737 67 685 q 84 830 67 789 q 134 902 102 870 q 312 985 201 970 l 312 919 z "},"3":{"ha":782,"x_min":136,"x_max":798,"o":"m 402 923 q 288 851 311 923 q 316 838 300 844 q 346 821 332 831 q 381 743 381 793 q 314 643 381 665 q 270 636 294 636 q 226 644 246 636 q 190 669 205 652 q 158 754 158 703 q 175 842 158 805 q 224 908 193 879 q 402 985 292 970 l 402 923 m 402 -21 q 208 43 282 -17 q 136 189 136 100 q 179 290 136 253 q 270 321 216 321 q 346 295 323 321 q 368 227 368 269 q 357 166 368 185 q 329 138 345 148 q 296 123 313 127 q 269 114 279 119 q 309 62 276 79 q 388 45 341 45 l 395 45 q 402 45 399 45 l 402 -21 m 541 732 q 463 905 541 865 l 463 985 q 681 917 594 985 q 769 742 769 848 q 691 581 769 640 q 534 518 635 539 l 533 515 q 716 450 652 500 q 798 271 798 389 q 704 71 798 151 q 463 -20 611 -10 l 463 60 q 557 258 557 104 q 448 465 557 433 q 369 476 413 476 l 327 476 q 300 487 309 476 q 291 511 291 498 q 300 535 291 524 q 327 547 309 547 l 372 547 q 541 732 541 547 z "},"4":{"ha":781,"x_min":26,"x_max":781,"o":"m 320 636 l 119 339 l 320 339 l 320 260 l 26 260 l 26 346 l 320 770 l 320 636 m 660 339 l 781 339 l 781 260 l 660 260 l 660 339 m 600 117 q 633 66 600 80 q 666 56 648 61 q 699 39 683 51 l 699 0 l 264 0 l 264 50 q 304 63 283 58 q 342 75 325 67 q 380 140 380 92 l 380 857 l 458 970 l 600 970 l 600 117 z "},"5":{"ha":782,"x_min":67,"x_max":709,"o":"m 300 -14 q 130 54 195 -5 q 67 197 67 112 q 140 316 67 286 q 189 326 162 326 q 235 317 215 326 q 269 296 255 309 q 296 224 296 269 q 250 160 296 183 q 212 137 220 146 q 203 115 203 127 q 211 89 203 102 q 231 68 218 77 q 300 49 258 50 l 300 -14 m 514 771 q 189 778 359 771 l 189 463 q 149 416 189 416 q 109 469 109 416 l 113 522 l 113 966 q 415 950 267 950 q 602 987 564 950 q 636 981 622 987 q 514 771 636 819 m 434 483 q 424 499 434 483 q 385 530 414 515 q 319 545 356 545 q 250 526 281 545 l 250 600 q 374 629 307 629 q 503 606 441 629 q 610 542 564 583 q 709 314 709 453 q 612 84 709 173 q 361 -14 517 -4 l 361 59 q 447 139 418 79 q 477 277 477 199 q 466 403 477 354 q 434 483 454 452 z "},"6":{"ha":782,"x_min":60,"x_max":727,"o":"m 471 793 q 534 895 471 859 q 506 916 534 906 q 431 926 478 926 l 431 985 q 619 928 550 982 q 682 811 682 878 q 620 707 682 735 q 573 697 600 697 q 528 705 547 697 q 496 727 509 713 q 471 793 471 754 m 356 593 q 462 616 401 616 q 574 589 523 616 q 659 515 625 561 q 727 294 727 426 q 648 86 727 174 q 431 -14 564 -8 l 431 49 q 483 123 467 62 q 498 274 498 185 q 493 409 498 363 q 476 483 488 454 q 399 541 454 541 q 356 532 373 541 l 356 593 m 371 909 q 296 554 296 840 l 296 317 q 308 141 296 186 q 335 76 320 96 q 371 48 349 56 l 371 -14 q 136 134 218 5 q 60 441 60 256 q 140 799 60 647 q 278 951 193 901 q 371 985 321 977 l 371 909 z "},"7":{"ha":782,"x_min":106,"x_max":735,"o":"m 106 974 q 224 964 199 964 l 664 964 l 526 789 l 385 789 q 209 720 256 789 q 174 656 192 695 q 142 602 156 618 l 106 602 l 106 974 m 377 -14 q 250 132 250 -14 q 469 609 250 298 q 602 789 532 699 l 735 964 l 735 857 q 572 608 618 705 q 506 435 526 511 q 486 280 486 359 l 493 121 q 377 -14 493 -14 z "},"8":{"ha":781,"x_min":55,"x_max":715,"o":"m 486 614 q 530 752 530 661 q 465 902 530 855 q 414 922 443 918 l 414 985 q 604 917 533 978 q 678 747 678 853 q 611 604 678 657 q 564 572 590 587 l 486 614 m 267 380 q 214 237 214 322 q 289 74 214 129 q 347 49 313 56 l 347 -14 q 142 58 224 -8 q 55 239 55 128 q 188 427 55 345 l 267 380 m 374 385 q 359 393 374 385 q 317 413 345 400 q 249 450 289 427 q 173 506 210 473 q 115 571 137 538 q 78 696 78 629 q 97 811 78 763 q 152 895 117 859 q 353 985 229 974 l 353 923 q 280 880 308 916 q 252 792 252 845 q 274 705 252 739 q 330 646 297 671 q 402 601 363 620 q 487 558 440 581 q 581 505 534 534 q 656 442 627 475 q 715 278 715 376 q 630 77 715 158 q 407 -14 545 -3 l 407 49 q 496 102 463 58 q 525 188 525 140 q 512 263 525 236 q 478 312 499 290 q 430 352 457 334 q 374 385 402 370 z "},"9":{"ha":782,"x_min":48,"x_max":718,"o":"m 286 178 q 225 77 286 107 q 294 47 225 54 q 334 45 314 45 l 334 -14 q 137 43 209 -11 q 72 159 72 92 q 137 264 72 236 q 184 274 158 274 q 230 266 211 274 q 260 244 248 258 q 286 178 286 218 m 331 439 q 373 427 350 427 q 419 433 397 427 l 419 372 q 314 350 371 350 q 205 376 256 350 q 119 445 155 402 q 48 663 48 534 q 130 878 48 785 q 351 985 217 976 l 351 920 q 277 659 277 887 q 331 439 277 477 m 479 682 q 412 922 479 890 l 412 985 q 642 834 560 969 q 718 521 718 711 q 635 167 718 315 q 395 -14 548 8 l 395 52 q 479 385 479 100 l 479 682 z "}," ":{"ha":391,"x_min":0,"x_max":0,"o":""},"!":{"ha":463,"x_min":112,"x_max":349,"o":"m 197 290 q 156 550 183 401 q 121 751 130 698 q 112 837 112 804 q 119 897 112 870 q 141 944 126 924 q 231 985 172 985 q 349 838 349 985 q 327 677 349 796 q 265 290 279 411 l 197 290 m 127 56 q 119 103 119 77 q 127 150 119 128 q 151 188 136 172 q 233 222 182 222 q 315 188 283 222 q 347 103 347 153 q 315 18 347 52 q 233 -17 283 -17 q 127 56 155 -17 z "},"\"":{"ha":521,"x_min":52,"x_max":467,"o":"m 355 589 q 326 905 326 789 q 396 985 326 985 q 467 904 467 985 q 458 745 467 824 q 444 626 449 667 q 436 577 439 585 q 429 563 433 570 q 400 546 416 546 q 378 551 385 546 q 366 563 370 556 q 355 589 357 575 m 82 589 q 52 905 52 789 q 123 985 52 985 q 194 904 194 985 q 185 745 194 824 q 171 626 176 667 q 163 577 165 585 q 155 563 160 570 q 127 546 142 546 q 104 551 112 546 q 92 563 97 556 q 82 589 84 575 z "},"#":{"ha":782,"x_min":7,"x_max":774,"o":"m 728 278 l 583 278 l 540 0 l 398 0 l 439 278 l 288 278 l 243 0 l 103 0 l 145 278 l 7 278 l 7 396 l 165 396 l 192 567 l 54 567 l 54 685 l 211 685 l 253 964 l 395 964 l 353 685 l 505 685 l 549 964 l 690 964 l 648 685 l 774 685 l 774 567 l 628 567 l 602 396 l 728 396 l 728 278 m 334 567 l 308 396 l 459 396 l 486 567 l 334 567 z "},"$":{"ha":782,"x_min":62,"x_max":714,"o":"m 288 866 q 252 779 252 834 q 277 694 252 724 q 349 644 302 664 l 349 1060 l 429 1060 l 429 615 q 536 567 485 592 q 627 509 587 543 q 714 313 714 434 q 654 133 714 213 q 490 21 593 52 l 490 109 q 546 231 546 151 q 480 359 546 315 q 429 386 458 374 l 429 -111 l 349 -111 l 349 412 q 187 498 233 458 q 117 583 140 538 q 94 681 94 628 q 106 772 94 733 q 142 844 118 811 q 288 943 194 913 l 288 866 m 188 150 q 288 79 197 94 l 288 10 q 129 90 194 28 q 62 232 62 154 q 92 319 62 288 q 158 347 119 347 q 227 319 197 347 q 257 252 257 289 q 248 200 257 214 q 228 176 239 185 q 205 162 216 168 q 188 150 193 157 m 528 854 q 490 890 520 878 l 490 954 q 657 840 614 930 q 671 786 671 812 q 665 742 671 760 q 646 711 659 724 q 571 682 620 682 q 482 734 500 682 q 477 765 477 749 q 528 854 477 807 z "},"%":{"ha":1071,"x_min":44,"x_max":1027,"o":"m 248 -21 l 161 -21 l 821 985 l 908 985 l 248 -21 m 779 473 q 739 258 739 438 q 779 41 739 79 l 779 -7 q 637 81 688 3 q 591 257 591 153 q 637 433 591 361 q 779 521 688 511 l 779 473 m 839 41 q 879 258 879 79 q 839 473 879 438 l 839 521 q 981 433 930 511 q 1027 257 1027 361 q 981 81 1027 153 q 839 -7 930 3 l 839 41 m 232 938 q 192 723 192 903 q 232 506 192 543 l 232 457 q 91 545 141 467 q 44 722 44 618 q 91 897 44 826 q 232 985 141 975 l 232 938 m 292 506 q 332 723 332 543 q 292 938 332 903 l 292 985 q 434 897 383 975 q 480 722 480 826 q 434 545 480 618 q 292 457 383 467 l 292 506 z "},"&":{"ha":1084,"x_min":60,"x_max":1052,"o":"m 475 -20 l 458 -21 q 170 49 279 -21 q 60 233 60 120 q 167 441 60 357 q 241 487 200 468 l 293 406 q 281 273 281 366 q 338 138 281 198 q 475 66 395 77 l 475 -20 m 510 624 q 610 799 610 684 q 589 864 610 836 q 522 898 568 892 l 522 985 q 680 925 618 978 q 744 789 744 871 q 623 602 744 671 q 550 564 587 582 l 510 624 m 1052 186 q 984 40 1030 87 q 851 -8 939 -8 q 686 67 763 -8 q 522 -15 616 3 l 522 66 q 629 115 584 73 q 583 163 610 136 q 522 225 555 191 q 454 298 490 259 q 384 379 418 337 q 319 467 350 422 q 265 557 288 512 q 214 726 214 659 q 233 838 214 794 q 285 914 251 882 q 475 985 355 978 l 475 898 q 412 866 433 891 q 391 802 391 841 q 469 609 391 724 q 758 262 608 406 q 784 377 784 331 q 772 438 784 422 q 742 460 760 453 q 706 470 725 467 q 674 481 687 473 l 674 530 l 1004 530 l 1004 482 q 973 471 989 475 q 944 460 958 467 q 898 403 913 444 q 809 203 850 271 q 893 126 873 134 q 927 118 913 118 q 952 122 941 118 q 972 138 963 127 q 1001 208 987 157 l 1052 186 z "},"'":{"ha":347,"x_min":102,"x_max":243,"o":"m 137 977 q 173 985 151 985 q 209 977 195 985 q 231 958 222 970 q 243 882 243 938 q 216 589 243 774 q 198 555 212 564 q 173 546 184 546 q 155 551 162 546 q 142 563 147 556 q 132 589 134 574 q 102 903 102 789 q 137 977 102 956 z "},"(":{"ha":694,"x_min":122,"x_max":611,"o":"m 611 935 q 380 739 455 904 q 316 359 316 597 q 468 -149 316 -12 q 611 -216 525 -200 l 611 -272 q 347 -173 463 -267 q 137 205 185 -41 q 122 362 122 281 q 138 519 122 442 q 183 665 153 597 q 255 789 212 732 q 353 888 298 846 q 611 991 467 977 l 611 935 z "},")":{"ha":694,"x_min":83,"x_max":571,"o":"m 83 991 q 346 891 231 985 q 556 514 508 759 q 571 336 571 438 q 536 125 571 235 q 438 -70 502 15 q 284 -207 374 -154 q 83 -272 194 -260 l 83 -216 q 377 359 377 -159 q 227 867 377 730 q 83 935 170 918 l 83 991 z "},"*":{"ha":653,"x_min":27,"x_max":626,"o":"m 626 822 l 406 708 l 626 593 l 566 488 l 366 650 l 382 386 l 271 386 l 288 650 l 87 488 l 27 593 l 248 708 l 27 822 l 87 929 l 288 765 l 271 1031 l 382 1031 l 366 765 l 566 929 l 626 822 z "},"+":{"ha":938,"x_min":94,"x_max":843,"o":"m 387 665 l 551 665 l 551 406 l 843 406 l 843 260 l 551 260 l 551 0 l 387 0 l 387 260 l 94 260 l 94 406 l 387 406 l 387 665 z "},",":{"ha":391,"x_min":75,"x_max":322,"o":"m 87 -216 q 127 -170 106 -194 q 167 -121 149 -146 q 218 -14 211 -62 q 111 23 146 -9 q 75 109 75 55 q 107 191 75 157 q 183 228 141 228 q 249 215 225 228 q 290 180 273 202 q 322 83 322 136 q 309 -9 322 31 q 273 -90 296 -49 q 142 -258 223 -176 l 87 -216 z "},"-":{"ha":433,"x_min":35,"x_max":398,"o":"m 35 264 l 35 400 l 398 400 l 398 264 l 35 264 z "},".":{"ha":391,"x_min":81,"x_max":310,"o":"m 81 107 q 113 192 81 157 q 195 227 145 227 q 278 192 245 227 q 310 107 310 157 q 278 22 310 57 q 195 -12 245 -12 q 113 22 145 -12 q 81 107 81 57 z "},"/":{"ha":434,"x_min":-75,"x_max":509,"o":"m 86 -21 l -75 -21 l 349 985 l 509 985 l 86 -21 z "},":":{"ha":391,"x_min":81,"x_max":310,"o":"m 81 107 q 113 192 81 157 q 195 227 145 227 q 278 192 245 227 q 310 107 310 157 q 278 22 310 57 q 195 -12 245 -12 q 113 22 145 -12 q 81 107 81 57 m 81 530 q 113 615 81 581 q 195 650 145 650 q 278 615 245 650 q 310 530 310 581 q 278 446 310 480 q 195 411 245 411 q 113 446 145 411 q 81 530 81 480 z "},";":{"ha":391,"x_min":75,"x_max":322,"o":"m 87 -216 q 127 -170 106 -194 q 167 -121 149 -146 q 218 -14 211 -62 q 111 23 146 -9 q 75 109 75 55 q 107 191 75 157 q 183 228 141 228 q 249 215 225 228 q 290 180 273 202 q 322 83 322 136 q 309 -9 322 31 q 273 -90 296 -49 q 142 -258 223 -176 l 87 -216 m 81 530 q 113 615 81 581 q 196 650 145 650 q 278 615 245 650 q 310 530 310 581 q 278 446 310 480 q 196 411 245 411 q 90 484 118 411 q 81 530 81 505 z "},"<":{"ha":939,"x_min":94,"x_max":844,"o":"m 153 258 l 94 279 l 94 386 l 844 676 l 844 524 l 153 258 m 435 290 l 844 140 l 844 -11 l 242 216 l 435 290 z "},"=":{"ha":938,"x_min":94,"x_max":843,"o":"m 843 403 l 94 403 l 94 549 l 843 549 l 843 403 m 843 115 l 94 115 l 94 261 l 843 261 l 843 115 z "},">":{"ha":939,"x_min":94,"x_max":844,"o":"m 786 407 l 844 386 l 844 279 l 94 -11 l 94 142 l 786 407 m 504 375 l 94 525 l 94 676 l 696 449 l 504 375 z "},"?":{"ha":752,"x_min":100,"x_max":667,"o":"m 317 915 q 236 864 248 908 q 310 808 290 857 q 317 754 317 790 q 288 691 317 718 q 206 664 259 664 q 128 699 158 664 q 100 778 100 732 q 116 857 100 823 q 163 917 133 892 q 317 979 222 969 l 317 915 m 377 980 q 643 850 572 972 q 667 752 667 807 q 647 661 667 697 q 595 596 626 625 q 527 543 564 568 q 460 490 491 518 q 387 346 387 426 l 387 285 l 310 285 l 310 350 q 378 536 310 436 q 447 739 447 637 q 376 907 447 876 l 377 980 m 244 56 q 236 103 236 77 q 244 150 236 128 q 268 188 253 172 q 351 222 300 222 q 432 188 400 222 q 464 103 464 153 q 432 18 464 52 q 351 -17 400 -17 q 244 56 273 -17 z "},"@":{"ha":1251,"x_min":60,"x_max":1192,"o":"m 689 87 q 995 155 852 90 l 1010 69 q 689 -21 842 -16 l 689 87 m 629 -20 q 197 156 355 -6 q 60 460 60 297 q 138 728 60 608 q 343 911 213 843 q 629 984 473 979 l 629 876 q 368 766 469 867 q 254 456 254 652 q 369 202 254 308 q 629 90 477 104 l 629 -20 m 868 345 q 915 279 868 279 q 968 303 941 279 q 1018 366 996 327 q 1069 553 1069 454 q 967 766 1069 673 q 690 875 858 865 l 689 984 q 1047 853 904 975 q 1153 719 1115 795 q 1192 554 1192 642 q 1112 327 1192 432 q 977 225 1058 254 q 891 210 936 210 q 819 222 847 210 q 773 252 791 235 q 741 314 741 285 l 739 314 q 690 261 727 287 q 551 210 615 210 q 407 308 448 210 q 393 384 393 342 q 402 466 393 426 q 429 545 411 505 q 473 621 447 585 q 534 686 500 658 q 707 747 612 747 q 783 726 747 747 l 758 650 q 718 660 743 660 q 662 640 693 660 q 604 585 631 619 q 543 401 543 504 q 559 326 543 355 q 608 297 576 297 q 667 319 640 297 q 715 374 694 340 q 783 532 753 433 l 842 725 l 965 725 l 874 389 q 868 345 868 371 z "},"A":{"ha":911,"x_min":-26,"x_max":937,"o":"m 336 817 l 239 847 q 244 898 243 876 q 250 939 245 921 q 446 982 309 965 q 484 985 467 985 q 508 946 500 964 l 822 155 q 869 78 842 103 q 937 50 896 54 l 937 0 l 503 0 l 503 43 q 538 58 520 53 q 571 68 556 63 q 604 102 604 77 q 591 149 604 115 l 336 817 m 348 608 l 195 171 q 184 120 184 140 q 196 89 184 100 q 225 71 208 77 q 262 60 242 64 q 298 46 281 55 l 298 0 l -26 0 l -26 46 q 3 60 -13 55 q 35 75 19 66 q 92 149 73 97 l 303 728 l 348 608 m 470 289 l 303 289 l 326 361 l 443 361 l 470 289 z "},"B":{"ha":955,"x_min":39,"x_max":908,"o":"m 421 543 q 611 722 611 543 q 514 886 611 850 q 457 899 481 899 l 429 899 q 421 898 425 899 l 421 964 l 538 964 q 776 904 699 964 q 853 733 853 844 q 783 582 853 639 q 614 518 720 532 l 614 515 q 821 452 741 511 q 908 269 908 385 q 817 79 908 151 q 532 0 718 0 l 421 0 l 421 75 q 456 72 433 72 q 659 269 659 72 q 421 467 659 467 l 421 543 m 361 0 l 39 0 l 39 50 q 74 61 57 58 q 106 72 92 65 q 136 129 136 87 l 136 833 q 106 891 136 876 q 74 902 92 898 q 39 913 57 905 l 39 964 l 361 964 l 361 0 z "},"C":{"ha":869,"x_min":39,"x_max":809,"o":"m 517 73 q 654 127 602 75 q 731 347 721 194 l 809 321 q 647 18 790 94 q 517 -14 593 -11 l 517 73 m 290 490 q 456 73 290 110 l 456 -14 q 152 134 268 -5 q 39 481 39 271 q 157 842 39 699 q 290 947 214 909 q 456 985 367 985 l 456 898 q 298 650 323 877 q 290 490 290 578 m 517 985 q 611 958 572 977 q 663 932 649 940 q 686 925 677 925 q 703 936 696 925 q 718 964 710 947 l 783 964 l 783 614 l 731 614 q 692 693 714 637 q 655 779 669 748 q 621 834 640 809 q 517 898 577 890 l 517 985 z "},"D":{"ha":1027,"x_min":43,"x_max":975,"o":"m 366 0 l 43 0 l 43 50 q 79 61 62 58 q 110 72 96 65 q 140 129 140 87 l 140 833 q 110 891 140 876 q 79 902 96 898 q 43 913 62 905 l 43 964 l 366 964 l 366 0 m 665 798 q 589 874 635 849 q 493 899 542 899 q 426 896 445 899 l 426 964 l 492 964 q 861 814 733 964 q 975 482 975 682 q 857 144 975 275 q 500 0 728 0 l 426 0 l 426 68 q 494 65 448 65 q 587 86 540 65 q 665 155 634 106 q 724 482 724 250 q 665 798 724 699 z "},"E":{"ha":911,"x_min":52,"x_max":847,"o":"m 373 964 l 373 0 l 52 0 l 52 50 q 88 61 71 58 q 119 72 105 65 q 149 129 149 87 l 149 833 q 119 891 149 876 q 88 902 105 898 q 52 913 71 905 l 52 964 l 373 964 m 433 68 q 519 65 467 65 q 613 81 572 65 q 681 123 655 98 q 722 180 707 149 q 748 241 737 211 q 770 297 759 271 q 801 336 781 322 l 847 336 l 847 0 l 433 0 l 433 68 m 644 847 q 632 859 644 847 q 584 884 620 870 q 501 899 549 899 q 433 897 454 899 l 433 964 l 587 964 q 808 974 739 964 l 808 646 l 761 646 q 732 687 744 662 q 709 740 721 712 q 682 797 697 768 q 644 847 667 825 m 433 574 l 659 574 l 659 400 l 433 400 l 433 574 z "},"F":{"ha":840,"x_min":43,"x_max":802,"o":"m 366 964 l 366 165 q 378 94 366 111 q 402 74 391 78 q 426 66 413 69 q 455 61 439 64 q 486 50 470 58 l 486 0 l 43 0 l 43 50 q 79 61 62 58 q 110 72 96 65 q 140 129 140 87 l 140 803 q 130 872 140 857 q 110 891 119 887 q 90 897 100 895 q 43 913 58 903 l 43 964 l 366 964 m 634 964 q 802 974 749 964 l 802 646 l 755 646 q 723 688 734 663 q 701 742 711 713 q 676 798 690 770 q 636 848 662 825 q 466 899 580 899 q 426 897 444 899 l 426 964 l 634 964 m 426 539 l 462 542 q 553 592 532 547 q 564 618 559 605 q 597 672 580 655 l 648 672 l 648 336 l 597 336 q 569 375 581 351 q 548 412 557 399 q 525 435 540 425 q 426 461 492 458 l 426 539 z "},"G":{"ha":955,"x_min":41,"x_max":908,"o":"m 449 898 q 292 480 292 863 q 449 73 292 98 l 449 -14 l 435 -14 q 275 25 347 -14 q 151 132 202 64 q 41 482 41 275 q 153 831 41 688 q 334 963 227 925 q 449 985 388 983 l 449 898 m 509 985 q 680 924 600 976 q 704 914 694 914 q 741 964 720 914 l 802 964 l 802 611 l 751 611 q 715 686 736 629 q 681 776 695 743 q 644 835 666 808 q 509 898 592 895 l 509 985 m 509 73 q 587 115 564 79 q 610 205 610 151 q 608 293 610 258 q 595 355 606 328 q 494 416 571 416 l 494 469 l 908 469 q 904 450 906 459 q 900 431 902 441 q 896 414 898 422 q 847 372 859 397 q 835 310 835 347 l 835 228 q 634 -3 835 25 q 509 -14 575 -11 l 509 73 z "},"H":{"ha":1042,"x_min":45,"x_max":996,"o":"m 367 129 q 396 72 367 87 q 425 61 409 65 q 455 50 440 58 l 455 0 l 45 0 l 45 50 q 81 61 64 58 q 112 72 98 65 q 142 129 142 87 l 142 800 q 131 872 142 857 q 112 891 121 887 q 92 897 102 895 q 45 913 58 905 l 45 964 l 455 964 l 455 913 q 425 902 440 905 q 396 891 409 898 q 367 833 367 876 l 367 129 m 674 833 q 645 891 674 876 q 616 901 632 897 q 587 913 601 905 l 587 964 l 996 964 l 996 913 q 961 902 978 905 q 929 891 943 898 q 899 833 899 876 l 899 163 q 910 91 899 106 q 930 71 921 75 q 950 65 939 67 q 996 50 981 59 l 996 0 l 587 0 l 587 50 q 616 62 601 58 q 645 72 632 66 q 674 129 674 87 l 674 833 m 614 464 l 427 464 l 427 541 l 614 541 l 614 464 z "},"I":{"ha":520,"x_min":50,"x_max":467,"o":"m 147 800 q 137 871 147 856 q 117 890 126 886 q 97 897 108 895 q 74 903 86 900 q 50 913 62 905 l 50 964 l 467 964 l 467 913 q 444 903 455 905 q 421 897 432 900 q 401 890 410 895 q 386 876 393 886 q 372 800 372 856 l 372 163 q 382 91 372 106 q 402 72 393 76 q 422 65 411 68 q 467 50 454 58 l 467 0 l 50 0 l 50 50 q 86 61 68 58 q 117 72 103 65 q 147 129 147 87 l 147 800 z "},"J":{"ha":739,"x_min":5,"x_max":713,"o":"m 243 -14 q 75 56 140 -2 q 5 217 5 118 q 81 349 5 316 q 131 359 104 359 q 178 352 157 359 q 214 331 199 345 q 248 250 248 302 q 182 146 248 189 q 147 128 163 134 q 176 94 151 111 q 243 73 201 77 l 243 -14 m 303 73 q 387 184 387 90 l 387 833 q 355 891 387 877 q 321 901 341 897 q 279 913 301 905 l 279 964 l 713 964 l 713 913 q 675 901 693 905 q 643 891 656 897 q 612 833 612 877 l 612 258 q 434 4 612 54 q 303 -14 376 -12 l 303 73 z "},"K":{"ha":1026,"x_min":80,"x_max":1055,"o":"m 463 582 l 696 806 q 732 859 732 840 q 724 884 732 877 q 705 895 717 890 q 676 903 692 899 q 644 913 661 907 l 644 964 l 994 964 l 994 914 q 968 902 983 905 q 936 894 953 898 q 863 856 892 882 q 821 817 842 837 l 618 621 l 915 171 q 1025 60 971 85 q 1055 45 1040 54 l 1055 0 l 621 0 l 621 50 q 642 59 629 55 q 666 69 654 64 q 693 99 693 83 q 665 167 693 124 l 463 479 l 463 582 m 402 129 q 431 72 402 87 q 458 61 444 65 q 487 50 473 58 l 487 0 l 80 0 l 80 50 q 115 64 94 60 q 145 72 136 68 q 161 84 155 75 q 177 157 177 104 l 177 806 q 146 891 177 879 q 125 898 136 895 q 80 913 92 905 l 80 964 l 490 964 l 490 913 q 460 902 475 905 q 431 893 444 899 q 402 844 402 881 l 402 129 z "},"L":{"ha":795,"x_min":56,"x_max":785,"o":"m 439 66 q 448 65 444 65 q 458 65 453 65 q 665 180 611 65 q 689 242 679 212 q 710 298 700 272 q 739 338 721 323 l 785 338 l 785 0 l 439 0 l 439 66 m 378 0 l 56 0 l 56 50 q 92 61 75 58 q 123 72 109 65 q 153 129 153 87 l 153 833 q 123 891 153 876 q 92 902 109 898 q 56 913 75 905 l 56 964 l 480 964 l 480 913 q 441 902 460 905 q 410 891 423 898 q 378 833 378 876 l 378 0 z "},"M":{"ha":1197,"x_min":56,"x_max":1154,"o":"m 276 456 l 276 150 q 313 76 276 95 q 348 62 329 67 q 383 47 366 58 l 383 0 l 82 0 l 82 47 q 114 63 96 58 q 148 76 132 68 q 185 150 185 95 l 185 699 l 276 456 m 211 800 q 190 850 199 829 q 154 859 172 854 q 117 867 135 863 q 56 886 77 877 l 56 964 l 382 964 l 676 195 l 627 0 l 511 0 l 211 800 m 657 412 l 795 964 l 1154 964 l 1154 913 q 1118 902 1135 905 q 1088 891 1101 898 q 1058 833 1058 876 l 1058 129 q 1088 72 1058 87 q 1118 61 1101 65 q 1154 50 1135 58 l 1154 0 l 741 0 l 741 50 q 776 61 759 58 q 807 72 793 65 q 838 129 838 87 l 838 818 l 834 818 l 703 292 l 657 412 z "},"N":{"ha":983,"x_min":36,"x_max":970,"o":"m 775 453 l 775 833 q 742 891 775 876 q 708 903 727 899 q 669 916 689 907 l 669 964 l 970 964 l 970 916 q 933 903 951 907 q 899 891 914 899 q 866 833 866 876 l 866 319 l 775 453 m 234 655 l 234 146 q 309 62 234 83 q 346 49 328 57 l 346 0 l 36 0 l 36 49 q 72 62 53 57 q 106 77 90 68 q 143 146 143 98 l 143 790 l 234 655 m 172 854 q 115 865 140 861 q 42 879 58 875 l 42 964 l 357 964 l 866 211 l 866 0 l 749 0 l 172 854 z "},"O":{"ha":999,"x_min":50,"x_max":947,"o":"m 475 -14 q 161 142 279 -5 q 50 482 50 279 q 159 825 50 685 q 469 985 276 975 l 469 898 q 309 628 332 876 q 302 482 302 557 q 309 337 302 407 q 335 210 316 267 q 475 73 378 88 l 475 -14 m 695 482 q 529 898 695 874 l 529 985 q 838 825 723 975 q 947 482 947 684 q 840 142 947 281 q 536 -14 727 -3 l 536 73 q 689 336 667 91 q 695 482 695 407 z "},"P":{"ha":840,"x_min":53,"x_max":827,"o":"m 381 129 q 412 72 381 87 q 446 61 427 65 q 487 50 465 58 l 487 0 l 53 0 l 53 50 q 92 61 73 58 q 125 72 111 65 q 156 129 156 87 l 156 833 q 125 891 156 876 q 92 902 111 898 q 53 913 73 905 l 53 964 l 381 964 l 381 129 m 441 501 q 549 553 514 509 q 586 697 586 600 q 498 884 586 850 q 441 897 472 895 l 441 964 l 506 964 q 753 890 670 964 q 827 700 827 823 q 623 448 827 492 q 464 433 554 433 l 441 433 l 441 501 z "},"Q":{"ha":999,"x_min":50,"x_max":1027,"o":"m 803 -90 q 869 -128 840 -112 q 922 -144 899 -144 q 979 -119 946 -144 l 1027 -163 q 899 -250 983 -228 q 822 -258 869 -258 q 730 -236 774 -258 q 651 -181 686 -214 q 588 -109 616 -148 q 536 -38 560 -71 l 536 73 q 689 338 666 91 q 695 482 695 408 q 529 898 695 874 l 529 985 q 838 825 723 975 q 947 482 947 684 q 863 175 947 307 q 620 -1 772 35 q 803 -90 697 -24 m 469 898 q 302 486 302 871 q 475 73 302 100 l 475 -14 q 161 144 280 -5 q 50 482 50 281 q 159 825 50 685 q 469 985 276 975 l 469 898 z "},"R":{"ha":959,"x_min":52,"x_max":926,"o":"m 926 87 q 739 -14 870 -14 q 573 96 622 -14 q 534 211 551 147 q 506 310 518 275 q 433 424 478 389 l 433 524 q 548 567 513 531 q 589 704 589 610 q 551 853 589 810 q 433 898 517 894 l 433 964 l 513 964 q 755 891 671 964 q 831 718 831 826 q 663 502 831 555 q 539 481 608 484 l 539 475 q 631 445 602 465 q 730 314 694 401 q 753 254 742 285 q 775 195 764 224 q 798 142 786 165 q 854 92 825 92 q 879 108 868 92 q 898 133 890 125 q 915 140 905 140 q 926 140 924 140 l 926 87 m 372 964 l 372 129 q 403 72 372 87 q 434 61 417 65 q 470 50 452 58 l 470 0 l 52 0 l 52 50 q 87 61 70 58 q 118 72 104 65 q 149 129 149 87 l 149 833 q 118 891 149 876 q 87 902 104 898 q 52 913 70 905 l 52 964 l 372 964 z "},"S":{"ha":825,"x_min":62,"x_max":764,"o":"m 434 985 q 567 930 498 975 q 590 922 579 922 q 612 935 602 922 q 634 964 622 947 l 695 964 l 695 635 l 644 635 q 603 703 625 655 q 567 779 581 751 q 535 831 553 807 q 434 898 494 886 l 434 985 m 174 41 q 132 1 149 41 l 64 1 l 64 355 l 109 355 q 156 289 134 340 q 194 205 178 237 q 233 145 210 173 q 374 73 287 81 l 374 -14 q 264 8 311 -9 q 201 34 218 26 q 174 41 184 41 m 434 73 q 537 117 500 81 q 575 207 575 153 q 553 292 575 260 q 495 347 531 323 q 413 389 459 370 q 319 428 367 408 q 224 470 271 448 q 142 524 178 493 q 62 700 62 593 q 142 892 62 809 q 374 985 232 983 l 374 898 q 285 863 319 892 q 252 789 252 833 q 274 718 252 746 q 332 667 296 689 q 414 627 368 645 q 508 590 460 609 q 602 547 555 570 q 684 491 648 524 q 764 309 764 418 q 682 92 764 180 q 434 -14 592 -6 l 434 73 z "},"T":{"ha":870,"x_min":20,"x_max":850,"o":"m 20 974 q 117 964 108 964 l 262 964 l 262 895 q 126 789 157 885 q 110 736 118 762 q 62 647 89 669 l 20 647 l 20 974 m 548 168 q 582 75 548 92 q 617 64 597 67 q 659 50 637 62 l 659 0 l 209 0 l 209 50 q 251 63 231 58 q 288 76 271 68 q 322 138 322 95 l 322 964 l 548 964 l 548 168 m 753 964 q 850 974 762 964 l 850 647 l 808 647 q 767 715 781 669 q 743 789 752 762 q 719 838 734 816 q 608 895 684 888 l 608 964 l 753 964 z "},"U":{"ha":955,"x_min":24,"x_max":949,"o":"m 579 73 q 721 133 681 80 q 758 293 758 182 l 758 829 q 722 892 758 877 q 688 904 707 900 q 652 916 669 907 l 652 964 l 949 964 l 949 916 q 917 905 934 908 q 884 895 899 901 q 850 836 850 880 l 850 301 q 791 83 850 157 q 579 -14 727 3 l 579 73 m 519 -14 q 145 130 213 -14 q 122 243 122 178 l 122 836 q 88 893 122 879 q 57 903 74 899 q 24 916 39 907 l 24 964 l 455 964 l 455 916 q 418 905 436 908 q 385 896 399 902 q 353 840 353 882 l 353 271 q 440 93 353 136 q 519 73 472 77 l 519 -14 z "},"V":{"ha":825,"x_min":-35,"x_max":873,"o":"m 510 318 l 674 798 q 683 846 683 824 q 673 879 683 869 q 648 892 663 888 q 618 898 634 896 q 592 911 603 901 l 592 964 l 873 964 l 873 913 q 848 900 861 905 q 821 890 834 896 q 777 840 788 873 l 552 197 l 510 318 m 534 147 l 481 0 l 364 0 l 64 842 q -7 902 47 889 q -35 913 -22 905 l -35 964 l 397 964 l 397 914 q 364 904 381 908 q 332 894 347 900 q 298 851 298 880 q 317 779 298 834 l 534 147 z "},"W":{"ha":1216,"x_min":-31,"x_max":1267,"o":"m 470 176 l 413 0 l 306 0 l 48 838 q 9 897 35 882 q -12 906 -1 903 q -31 917 -22 910 l -31 964 l 363 964 l 363 916 q 335 904 349 909 q 309 894 321 900 q 281 854 281 880 q 291 800 281 829 q 310 736 300 770 l 470 176 m 951 391 l 1069 779 q 1084 848 1084 829 q 1075 877 1084 867 q 1050 891 1065 886 q 1017 902 1035 897 q 981 914 998 907 l 981 964 l 1267 964 l 1267 914 q 1239 900 1253 906 q 1211 884 1225 894 q 1164 808 1182 862 l 989 262 l 951 391 m 964 182 l 904 0 l 800 0 l 611 603 l 608 603 l 496 254 l 457 389 l 569 730 q 556 781 562 753 q 541 834 551 809 q 460 899 517 892 q 447 928 447 909 l 447 964 l 863 964 l 863 911 q 831 899 848 903 q 800 892 814 896 q 768 852 768 882 q 772 825 768 840 q 781 798 777 810 l 964 182 z "},"X":{"ha":911,"x_min":6,"x_max":922,"o":"m 386 334 l 279 171 q 248 106 248 124 q 257 80 248 88 q 281 67 267 72 q 313 59 296 62 q 345 47 330 55 l 345 0 l 6 0 l 6 47 q 38 59 20 54 q 73 71 55 63 q 145 131 116 88 l 337 414 l 386 334 m 536 672 l 630 811 q 652 860 652 842 q 643 884 652 877 q 623 897 635 892 q 596 905 610 901 q 569 916 581 909 l 569 964 l 885 964 l 885 914 q 850 904 869 908 q 814 894 832 901 q 744 840 769 878 l 581 598 l 536 672 m 804 135 q 897 62 835 82 q 922 50 911 57 l 922 0 l 479 0 l 479 49 q 510 60 494 56 q 538 68 526 64 q 569 102 569 78 q 534 183 569 126 l 179 772 q 103 882 119 871 q 75 898 87 893 q 50 905 62 902 q 26 913 37 907 l 26 964 l 463 964 l 463 916 q 431 905 447 909 q 401 898 414 902 q 373 868 373 889 q 402 808 373 857 l 804 135 z "},"Y":{"ha":782,"x_min":-36,"x_max":818,"o":"m 513 451 l 513 122 q 545 71 513 83 q 579 61 560 64 q 621 50 599 58 l 621 0 l 178 0 l 178 50 q 219 61 199 58 q 255 71 239 65 q 288 121 288 83 l 288 416 l 78 819 q -12 903 42 888 q -36 913 -25 906 l -36 964 l 399 964 l 399 913 q 368 903 384 907 q 338 895 351 900 q 308 863 308 886 q 319 827 308 848 q 346 777 331 805 l 513 451 m 501 586 l 589 760 q 627 853 627 833 q 617 882 627 873 q 594 895 608 890 q 563 903 580 899 q 530 913 546 907 l 530 964 l 818 964 l 818 916 q 795 903 807 907 q 772 891 784 899 q 718 829 740 873 l 545 495 l 501 586 z "},"Z":{"ha":782,"x_min":52,"x_max":760,"o":"m 334 73 l 410 77 q 627 180 571 85 q 668 266 644 210 q 711 345 692 321 l 760 345 l 760 0 l 294 0 l 334 73 m 90 974 q 261 964 165 964 l 486 964 l 449 899 l 431 899 q 214 812 275 899 q 168 723 186 772 q 138 650 151 675 l 90 650 l 90 974 m 539 964 l 739 964 l 739 892 l 239 0 l 52 0 l 52 102 l 539 964 z "},"[":{"ha":694,"x_min":208,"x_max":519,"o":"m 382 -126 q 427 -182 382 -166 q 471 -193 447 -189 q 519 -204 495 -197 l 519 -254 l 208 -254 l 208 975 l 519 975 l 519 925 q 471 914 495 918 q 427 902 447 909 q 382 846 382 885 l 382 -126 z "},"\\":{"ha":434,"x_min":-75,"x_max":509,"o":"m -75 985 l 86 985 l 509 -21 l 347 -21 l -75 985 z "},"]":{"ha":694,"x_min":175,"x_max":486,"o":"m 486 -254 l 175 -254 l 175 -204 q 223 -193 198 -197 q 267 -182 248 -189 q 313 -126 313 -165 l 313 846 q 222 914 313 898 q 175 925 198 918 l 175 975 l 486 975 l 486 -254 z "},"^":{"ha":938,"x_min":142,"x_max":795,"o":"m 142 484 l 398 964 l 538 964 l 795 484 l 630 484 l 469 803 l 306 484 l 142 484 z "},"_":{"ha":782,"x_min":0,"x_max":782,"o":"m 0 -174 l 0 -104 l 782 -104 l 782 -174 l 0 -174 z "},"`":{"ha":435,"x_min":-20,"x_max":333,"o":"m 249 760 l 36 884 q -5 911 4 902 q -20 947 -20 927 q -14 979 -20 968 q 3 997 -7 989 q 45 1013 23 1013 q 135 968 92 1013 l 333 760 l 249 760 z "},"a":{"ha":782,"x_min":45,"x_max":774,"o":"m 602 -10 q 447 37 499 -10 l 447 439 q 439 552 447 526 q 384 614 426 604 l 384 695 q 649 456 649 686 l 649 153 q 687 71 649 71 q 725 154 718 71 l 774 142 q 674 0 757 27 q 602 -10 644 -10 m 387 22 q 285 -10 348 -10 q 181 2 222 -10 q 110 37 140 14 q 45 174 45 87 q 139 333 45 275 q 387 424 206 375 l 387 352 q 266 185 266 304 q 302 80 266 107 q 340 71 315 71 q 387 87 364 71 l 387 22 m 243 570 q 290 508 290 549 q 229 439 290 456 q 195 435 212 435 q 120 463 146 435 q 94 529 94 491 q 109 595 94 568 q 153 644 124 623 q 323 695 216 690 l 323 614 q 243 570 270 610 z "},"b":{"ha":781,"x_min":5,"x_max":721,"o":"m 83 0 q 91 130 91 107 l 91 867 q 59 918 91 905 q 31 928 45 924 q 5 940 16 932 l 5 987 l 292 987 l 292 -1 q 195 52 243 17 q 139 0 179 40 l 83 0 m 387 71 q 496 342 496 71 q 383 614 496 614 q 353 607 367 614 l 353 674 q 448 695 395 695 q 551 669 502 695 q 639 595 601 642 q 721 345 721 492 q 639 96 721 195 q 399 -10 550 -10 q 353 -6 385 -10 l 353 77 q 387 71 369 71 z "},"c":{"ha":680,"x_min":42,"x_max":669,"o":"m 507 589 q 446 614 492 612 l 446 695 q 601 635 541 687 q 658 515 658 585 q 638 449 658 472 q 549 407 602 407 q 471 435 501 407 q 444 494 444 460 q 507 589 444 555 m 446 71 q 585 160 544 73 q 606 219 597 187 l 669 191 q 446 -10 627 10 l 446 71 m 386 -10 q 136 92 234 -9 q 42 333 42 188 q 133 587 42 488 q 386 695 227 690 l 386 614 q 294 528 326 597 q 262 346 262 459 q 330 106 262 178 q 386 71 353 81 l 386 -10 z "},"d":{"ha":781,"x_min":39,"x_max":758,"o":"m 474 64 l 474 869 q 442 918 474 905 q 413 927 429 924 q 385 940 397 931 l 385 987 l 675 987 l 675 114 q 707 66 675 79 q 733 56 720 60 q 758 43 747 52 l 758 0 l 483 0 l 474 64 m 414 10 q 315 -10 373 -10 q 205 17 258 -10 q 117 90 153 43 q 39 328 39 185 q 129 591 39 483 q 337 695 216 695 q 414 682 384 695 l 414 605 q 371 614 399 614 q 322 592 343 614 q 288 534 300 570 q 264 378 264 467 q 267 239 264 290 q 282 151 271 188 q 370 71 306 71 q 414 83 400 71 l 414 10 z "},"e":{"ha":739,"x_min":42,"x_max":675,"o":"m 424 71 q 607 222 560 78 l 669 193 q 424 -10 618 7 l 424 71 m 404 695 q 613 584 543 685 q 675 345 675 494 l 326 345 l 326 414 l 467 414 q 453 551 467 500 q 404 614 440 602 l 404 695 m 363 -10 q 126 104 216 1 q 42 340 42 200 q 127 586 42 486 q 343 695 211 686 l 343 614 q 280 530 298 598 q 262 375 262 461 q 267 247 262 290 q 283 171 271 205 q 363 71 307 100 l 363 -10 z "},"f":{"ha":507,"x_min":26,"x_max":592,"o":"m 330 115 q 369 68 330 79 q 407 58 386 62 q 449 43 429 54 l 449 0 l 31 0 l 31 43 q 63 56 46 52 q 95 66 81 60 q 128 114 128 79 l 128 591 l 26 591 l 26 640 q 48 650 35 648 q 76 654 61 652 q 128 679 115 660 q 171 902 133 829 q 330 1008 216 991 l 330 115 m 404 947 q 390 945 397 947 l 390 1008 q 541 971 490 1008 q 592 867 592 933 q 533 783 592 804 q 480 775 514 775 q 422 798 446 775 q 398 852 398 821 q 413 900 398 883 q 447 923 429 918 q 404 947 440 947 m 390 665 l 486 665 l 486 591 l 390 591 l 390 665 z "},"g":{"ha":747,"x_min":47,"x_max":747,"o":"m 120 16 q 52 91 52 38 q 132 203 52 147 l 209 179 q 182 104 182 159 q 575 60 468 104 q 650 2 629 37 q 671 -81 671 -33 q 647 -169 671 -129 q 583 -238 623 -209 q 374 -304 498 -299 l 374 -239 q 499 -167 471 -235 q 507 -125 507 -147 q 466 -58 507 -84 q 363 -31 425 -31 q 226 -37 269 -31 q 216 -93 216 -62 l 216 -133 q 237 -204 216 -177 q 314 -237 258 -231 l 314 -304 q 102 -181 155 -295 q 83 -85 83 -142 q 120 16 83 -29 m 582 736 q 538 682 538 736 q 546 646 538 654 q 561 632 553 638 q 589 606 568 626 q 632 464 632 564 q 556 286 632 355 q 374 214 484 220 l 374 278 q 422 334 409 290 q 435 458 435 378 q 422 578 435 538 q 374 628 408 618 l 374 695 q 473 680 434 693 q 559 803 473 772 q 620 813 586 813 q 677 805 653 813 q 717 781 701 796 q 747 710 747 753 q 723 645 747 667 q 662 623 700 623 q 601 644 624 623 q 577 698 577 665 q 581 719 577 710 q 585 732 585 728 q 582 736 585 736 m 314 212 q 64 346 111 218 q 47 450 47 390 q 66 553 47 509 q 121 627 85 597 q 314 695 191 687 l 314 628 q 258 583 274 621 q 243 460 243 545 q 259 330 243 374 q 314 276 275 285 l 314 212 z "},"h":{"ha":810,"x_min":26,"x_max":783,"o":"m 486 576 q 481 586 486 576 q 465 605 477 597 q 426 614 453 614 q 376 602 399 614 l 376 663 q 488 695 432 695 q 580 682 544 695 q 642 644 616 669 q 695 494 695 591 l 695 114 q 728 66 695 79 q 756 56 741 60 q 783 43 772 52 l 783 0 l 461 0 l 461 43 q 472 56 466 51 q 482 66 477 60 q 494 104 494 79 l 494 485 q 486 576 494 555 m 316 114 q 345 66 316 78 q 372 56 357 60 q 400 43 387 52 l 400 0 l 26 0 l 26 43 q 53 56 38 52 q 82 66 68 60 q 115 114 115 79 l 115 869 q 82 918 115 904 q 53 927 68 924 q 26 940 38 931 l 26 987 l 316 987 l 316 114 z "},"i":{"ha":435,"x_min":26,"x_max":408,"o":"m 317 114 q 350 66 317 79 q 379 56 363 60 q 408 43 395 52 l 408 0 l 26 0 l 26 43 q 55 56 39 52 q 84 66 71 60 q 116 114 116 79 l 116 564 q 84 612 116 600 q 55 621 71 617 q 26 634 39 625 l 26 682 l 317 682 l 317 114 m 205 762 q 158 772 179 762 q 122 798 137 781 q 91 880 91 831 q 122 963 91 928 q 205 999 155 999 q 288 963 256 999 q 319 880 319 928 q 288 798 319 831 q 205 762 256 762 z "},"j":{"ha":435,"x_min":-131,"x_max":340,"o":"m 24 -172 q 66 -213 36 -206 l 66 -285 l 60 -285 q -77 -244 -23 -285 q -131 -141 -131 -203 q -111 -78 -131 -99 q -31 -41 -78 -41 q 50 -90 33 -41 q 55 -121 55 -105 q 24 -172 55 -162 m 126 -203 q 152 -144 152 -184 q 148 -88 152 -122 q 139 7 139 -23 l 139 564 q 107 610 139 599 q 78 619 94 616 q 50 631 63 622 l 50 682 l 340 682 l 340 37 q 126 -280 340 -247 l 126 -203 m 308 798 q 301 789 308 798 q 273 772 294 781 q 225 762 252 762 q 178 772 199 762 q 142 798 157 781 q 111 880 111 831 q 142 963 111 928 q 225 999 176 999 q 308 963 277 999 q 339 892 339 928 q 331 835 339 857 q 308 798 323 814 z "},"k":{"ha":781,"x_min":16,"x_max":819,"o":"m 374 427 l 486 525 q 524 560 511 547 q 536 587 536 574 q 529 605 536 600 q 509 614 521 611 q 484 622 498 618 q 460 634 471 625 l 460 682 l 771 682 l 771 647 q 738 615 771 631 q 648 564 665 578 l 524 455 l 711 144 q 796 60 745 84 q 819 43 808 54 l 819 0 l 463 0 l 462 46 q 481 59 462 56 q 510 66 500 63 q 519 75 519 68 q 480 150 510 98 q 438 224 450 203 l 374 332 l 374 427 m 112 839 q 94 911 112 901 q 57 925 81 920 q 24 940 32 931 l 24 987 l 314 987 l 313 122 q 342 71 313 85 q 372 59 355 64 q 404 46 388 54 l 404 0 l 16 0 l 16 43 q 48 57 31 52 q 79 67 65 61 q 112 122 112 81 l 112 839 z "},"l":{"ha":435,"x_min":26,"x_max":408,"o":"m 317 114 q 350 66 317 79 q 379 56 363 60 q 408 43 395 52 l 408 0 l 26 0 l 26 43 q 55 56 39 52 q 84 66 71 60 q 116 114 116 79 l 116 869 q 84 918 116 905 q 55 927 71 924 q 26 940 39 931 l 26 987 l 317 987 l 317 114 z "},"m":{"ha":1158,"x_min":14,"x_max":1135,"o":"m 372 659 q 488 695 419 695 q 634 650 588 695 q 680 509 680 605 l 680 114 q 705 66 680 79 q 728 57 715 61 q 752 43 741 52 l 752 0 l 478 0 l 478 485 q 469 574 478 552 q 414 614 452 614 q 372 600 391 614 l 372 659 m 741 667 q 847 695 790 695 q 939 682 903 695 q 999 642 975 669 q 1047 467 1047 585 l 1047 145 q 1058 83 1047 96 q 1077 67 1068 70 q 1096 62 1086 64 q 1135 43 1120 56 l 1135 0 l 846 0 l 846 485 q 837 575 846 554 q 782 614 822 614 q 741 601 760 614 l 741 667 m 109 533 q 98 597 109 584 q 79 612 87 610 q 60 616 70 614 q 24 634 35 621 l 24 682 l 311 682 l 311 122 q 345 69 311 85 q 378 57 359 62 q 416 43 397 52 l 416 0 l 14 0 l 14 43 q 46 57 29 52 q 77 67 62 61 q 109 122 109 81 l 109 533 z "},"n":{"ha":810,"x_min":26,"x_max":783,"o":"m 376 652 q 487 695 430 695 q 580 682 544 695 q 642 644 616 669 q 695 494 695 591 l 695 142 q 726 66 695 75 q 745 61 735 63 q 783 43 771 56 l 783 0 l 461 0 l 461 47 q 472 72 461 62 q 489 89 484 81 q 494 111 494 96 l 494 488 q 484 577 494 557 q 433 614 468 614 q 376 597 399 614 l 376 652 m 316 142 q 345 66 316 75 q 363 61 353 63 q 400 43 388 56 l 400 0 l 26 0 l 26 43 q 53 56 38 52 q 82 66 68 60 q 115 114 115 79 l 115 533 q 92 603 115 581 q 26 634 75 621 l 26 682 l 316 682 l 316 142 z "},"o":{"ha":766,"x_min":42,"x_max":724,"o":"m 353 614 q 271 342 271 584 q 289 156 271 222 q 353 71 308 89 l 353 -10 q 130 98 218 1 q 42 340 42 197 q 130 582 42 480 q 353 695 220 684 l 353 614 m 496 342 q 413 614 496 584 l 413 695 q 635 582 547 684 q 724 340 724 480 q 635 98 724 197 q 413 -10 548 1 l 413 71 q 477 155 458 88 q 496 342 496 222 z "},"p":{"ha":782,"x_min":3,"x_max":733,"o":"m 300 -148 q 334 -201 300 -184 q 367 -213 349 -208 q 405 -227 386 -218 l 405 -270 l 3 -270 l 3 -227 q 35 -213 18 -218 q 66 -203 52 -209 q 98 -148 98 -189 l 98 564 q 66 612 98 600 q 38 622 53 618 q 9 634 22 625 l 9 682 l 290 682 l 300 595 l 300 -148 m 401 614 q 361 604 380 614 l 361 677 q 453 695 396 695 q 562 666 510 695 q 652 589 614 637 q 733 336 733 484 q 649 87 733 185 q 441 -10 566 -10 q 361 3 395 -10 l 361 79 q 395 71 376 71 q 509 342 509 71 q 401 614 509 614 z "},"q":{"ha":782,"x_min":45,"x_max":781,"o":"m 334 85 q 344 78 334 85 q 382 71 355 71 q 425 83 409 71 l 425 11 q 326 -10 382 -10 q 216 15 269 -10 q 125 85 163 40 q 45 334 45 180 q 138 597 45 494 q 349 695 227 695 q 425 687 390 695 l 425 607 q 386 614 412 614 q 337 594 359 614 q 300 537 315 574 q 271 363 271 463 q 278 213 271 263 q 299 131 285 163 q 334 85 313 100 m 691 682 q 686 585 686 647 l 686 -148 q 719 -203 686 -189 q 750 -213 733 -209 q 781 -227 766 -218 l 781 -270 l 380 -270 l 380 -227 q 418 -213 399 -218 q 452 -201 437 -208 q 485 -148 485 -184 l 485 669 q 537 643 515 656 q 574 621 559 630 q 602 642 587 626 l 625 667 q 640 682 633 676 l 691 682 z "},"r":{"ha":637,"x_min":26,"x_max":633,"o":"m 437 564 q 374 494 406 564 l 370 623 q 512 695 425 695 q 599 658 563 695 q 633 576 633 623 q 604 492 633 526 q 528 456 574 456 q 457 491 481 456 q 437 564 437 520 m 303 682 q 317 321 317 522 l 317 121 q 351 70 317 85 q 384 58 366 63 q 419 43 401 52 l 419 0 l 26 0 l 26 43 q 55 56 39 52 q 84 66 71 60 q 116 114 116 79 l 116 564 q 84 613 116 601 q 55 621 71 618 q 26 634 39 625 l 26 682 l 303 682 z "},"s":{"ha":650,"x_min":61,"x_max":611,"o":"m 298 614 q 235 555 235 597 q 354 441 235 487 q 487 386 448 406 q 552 342 526 366 q 611 207 611 288 q 538 54 611 111 q 358 -10 468 -2 l 358 71 q 429 150 429 88 q 313 259 429 214 q 183 314 221 294 q 119 357 144 334 q 61 484 61 408 q 130 628 61 565 q 298 695 200 691 l 298 614 m 484 600 q 358 614 469 606 l 358 695 q 543 639 476 690 q 598 543 598 595 q 548 456 598 477 q 499 449 530 449 q 448 469 468 449 q 428 518 428 489 q 484 600 428 568 m 181 90 q 298 71 199 75 l 298 -10 q 121 50 185 -1 q 66 149 66 93 q 87 209 66 185 q 149 232 107 232 q 210 214 190 232 q 230 166 230 195 q 181 90 230 115 z "},"t":{"ha":520,"x_min":20,"x_max":532,"o":"m 313 912 l 313 -10 l 307 -10 q 159 28 208 -10 q 111 151 111 66 l 111 607 l 20 607 l 20 661 q 46 677 31 672 q 79 689 62 683 q 130 738 119 704 q 186 865 165 837 q 222 911 206 893 l 313 912 m 373 71 q 450 106 428 71 q 465 142 460 122 q 477 182 471 162 l 532 161 q 490 53 515 82 q 438 9 465 23 q 373 -10 412 -4 l 373 71 m 373 682 l 495 682 l 495 607 l 373 607 l 373 682 z "},"u":{"ha":810,"x_min":26,"x_max":783,"o":"m 433 14 q 299 -10 389 -10 q 162 41 210 -10 q 115 195 115 92 l 115 564 q 82 612 115 600 q 53 621 68 618 q 26 634 38 625 l 26 682 l 316 682 l 316 177 q 333 98 316 125 q 380 71 349 71 q 433 85 412 71 l 433 14 m 494 564 q 462 612 494 600 q 433 622 448 618 q 405 634 418 625 l 405 682 l 695 682 l 695 117 q 728 69 695 82 q 756 60 741 64 q 783 47 772 56 l 783 0 l 494 0 l 494 564 z "},"v":{"ha":650,"x_min":-37,"x_max":679,"o":"m 417 293 l 497 522 q 511 578 511 564 q 504 601 511 593 q 485 613 496 608 q 460 622 473 618 q 436 631 447 625 l 436 682 l 679 682 l 679 635 q 657 625 669 629 q 633 614 645 620 q 597 574 606 599 l 457 188 l 417 293 m 387 0 l 267 0 l 50 556 q -15 618 31 604 q -37 630 -26 623 l -37 682 l 334 682 l 334 631 q 310 620 323 624 q 283 611 296 616 q 253 577 253 600 q 321 376 253 558 q 425 98 390 195 l 387 0 z "},"w":{"ha":955,"x_min":-31,"x_max":980,"o":"m 334 0 l 220 0 l 47 565 q -12 621 34 607 q -31 630 -22 625 l -31 682 l 321 682 l 321 631 q 301 623 313 626 q 278 614 289 619 q 252 588 252 604 q 264 525 252 568 l 377 121 l 334 0 m 375 345 l 457 624 l 610 624 l 749 121 l 707 0 l 591 0 l 474 434 l 470 434 l 411 223 l 375 345 m 747 343 l 812 535 q 821 577 821 562 q 812 600 821 591 q 792 613 804 608 q 767 622 781 618 q 741 631 753 626 l 741 682 l 980 682 l 980 635 q 960 624 970 627 q 937 611 949 621 q 885 517 909 588 l 783 220 l 747 343 z "},"x":{"ha":782,"x_min":14,"x_max":771,"o":"m 304 197 l 250 126 q 235 91 235 106 q 243 70 235 76 q 262 60 251 64 q 288 53 274 56 q 313 42 301 50 l 313 0 l 14 0 l 14 47 q 38 60 23 56 q 72 72 53 64 q 166 145 123 92 l 258 260 l 304 197 m 120 559 q 41 623 85 607 q 21 633 30 626 l 21 682 l 404 682 l 404 635 q 384 626 394 629 q 364 617 373 622 q 345 596 345 608 q 348 576 345 585 q 359 556 352 567 q 401 496 367 543 l 677 110 q 754 56 709 65 q 771 47 764 54 l 771 0 l 382 0 l 382 43 q 401 57 391 51 q 421 71 412 64 q 444 106 444 87 q 419 141 444 109 q 389 182 395 174 l 120 559 m 475 498 l 517 552 q 536 588 536 575 q 529 607 536 601 q 512 616 522 612 q 492 623 503 619 q 475 633 481 626 l 475 682 l 752 682 l 752 633 q 686 609 726 633 q 607 538 646 585 l 520 434 l 475 498 z "},"y":{"ha":680,"x_min":-24,"x_max":710,"o":"m 282 51 l 73 547 q -1 621 47 607 q -24 630 -13 624 l -24 682 l 363 682 l 363 631 q 342 622 354 624 q 318 616 330 619 q 290 576 290 606 q 304 525 290 557 l 385 323 l 282 51 m 166 -178 q 188 -199 166 -199 q 227 -187 210 -199 q 258 -153 243 -175 q 315 -31 283 -115 l 522 512 q 541 576 541 561 q 533 600 541 592 q 512 613 525 608 q 485 622 500 618 q 458 631 471 626 l 458 682 l 710 682 l 710 650 q 700 627 710 633 q 675 613 689 620 q 646 596 661 607 q 622 562 631 585 l 377 -76 q 285 -232 338 -178 q 153 -285 232 -285 q 39 -243 81 -285 q 2 -148 2 -203 q 62 -47 2 -75 q 103 -39 82 -39 q 140 -46 125 -39 q 168 -62 156 -52 q 193 -107 193 -85 q 189 -141 193 -130 q 179 -159 184 -152 q 170 -170 174 -166 q 166 -178 166 -174 z "},"z":{"ha":650,"x_min":28,"x_max":611,"o":"m 328 67 q 497 140 450 73 q 522 180 511 159 q 574 260 555 241 l 611 260 l 611 0 l 285 0 l 328 67 m 304 614 q 161 553 200 612 q 141 517 151 536 q 123 479 132 498 q 100 444 114 460 l 59 444 l 59 682 l 347 682 l 304 614 m 420 682 l 608 682 l 608 610 l 212 0 l 28 0 l 28 76 l 420 682 z "},"{":{"ha":694,"x_min":122,"x_max":528,"o":"m 239 193 q 221 294 239 267 q 181 335 203 321 q 122 359 158 349 q 217 418 192 379 q 239 526 239 453 l 239 786 q 308 955 239 913 q 528 991 368 991 l 528 954 q 433 903 457 945 q 413 782 413 869 l 413 549 q 394 433 413 464 q 351 386 376 402 q 288 361 327 370 l 288 358 q 389 294 362 340 q 413 171 413 254 l 413 -64 q 429 -178 413 -151 q 468 -218 445 -206 q 528 -235 490 -231 l 528 -272 q 308 -236 367 -272 q 239 -68 239 -193 l 239 193 z "},"|":{"ha":347,"x_min":91,"x_max":255,"o":"m 91 974 l 255 974 l 255 0 l 91 0 l 91 974 z "},"}":{"ha":694,"x_min":164,"x_max":571,"o":"m 454 525 q 471 424 454 451 q 512 384 489 397 q 571 359 534 370 q 476 300 501 338 q 454 193 454 267 l 454 -68 q 385 -236 454 -193 q 164 -272 326 -272 l 164 -235 q 260 -184 237 -227 q 280 -64 280 -151 l 280 171 q 299 285 280 254 q 342 332 317 316 q 406 358 366 348 l 406 361 q 285 478 299 386 q 280 547 280 509 l 280 782 q 264 897 280 869 q 225 937 248 924 q 164 954 202 949 l 164 991 q 385 955 326 991 q 454 786 454 911 l 454 525 z "},"~":{"ha":938,"x_min":111,"x_max":827,"o":"m 300 304 q 172 207 220 304 l 111 336 q 178 410 148 389 q 306 452 238 452 q 478 406 370 452 q 620 359 587 359 q 672 368 653 359 q 707 391 691 376 q 764 457 729 409 l 827 329 q 747 252 774 271 q 630 212 692 212 q 538 229 580 212 q 472 258 496 246 q 420 281 447 271 q 300 304 357 304 z "}," ":{"ha":391,"x_min":0,"x_max":0,"o":""},"¡":{"ha":463,"x_min":115,"x_max":351,"o":"m 266 390 q 306 131 279 279 q 342 -71 333 -18 q 351 -157 351 -124 q 343 -217 351 -191 q 321 -263 336 -244 q 231 -304 291 -304 q 115 -158 115 -304 q 136 3 115 -114 q 197 390 183 275 l 266 390 m 117 578 q 149 663 117 628 q 231 697 181 697 q 313 663 281 697 q 346 578 346 628 q 313 493 346 528 q 231 458 281 458 q 126 531 154 458 q 117 578 117 553 z "},"¢":{"ha":782,"x_min":109,"x_max":628,"o":"m 430 236 q 583 396 551 236 l 628 386 q 513 199 609 246 q 422 178 476 181 l 422 -11 l 372 -11 l 372 178 q 175 282 248 185 q 109 486 109 368 q 184 699 109 610 q 372 799 258 784 l 372 950 l 422 950 l 422 803 q 576 751 522 800 q 628 635 628 707 q 602 565 628 588 q 543 542 576 542 q 494 549 510 542 q 467 570 477 557 q 448 621 448 593 q 452 664 448 648 q 467 692 457 680 q 534 717 489 717 q 449 755 513 755 q 422 753 431 755 l 422 237 q 430 236 425 236 m 372 733 q 291 482 291 682 q 309 331 291 389 q 372 252 327 273 l 372 733 z "},"£":{"ha":781,"x_min":20,"x_max":782,"o":"m 333 94 q 230 151 276 151 q 185 139 201 151 q 169 104 169 127 q 193 67 169 82 q 250 52 218 52 q 333 94 311 52 m 518 892 q 469 924 507 918 l 469 984 q 659 884 611 973 q 675 827 675 856 q 667 780 675 798 q 646 749 660 762 q 571 722 617 722 q 499 747 526 722 q 473 801 473 772 q 477 841 473 829 q 488 862 481 853 q 502 878 494 871 q 518 892 510 884 m 238 489 q 160 729 160 594 q 230 903 160 832 q 409 983 299 974 l 409 922 q 367 881 384 911 q 351 807 351 851 q 362 723 351 762 q 393 645 374 683 q 496 489 414 605 l 736 489 l 736 421 l 530 421 q 563 358 549 391 q 577 285 577 326 q 490 96 577 173 q 583 64 541 64 q 721 176 660 64 l 782 134 q 645 3 737 35 q 577 -8 614 -8 q 419 45 498 -8 q 237 -21 339 -21 q 84 19 146 -21 q 20 126 20 61 q 68 220 20 184 q 191 254 113 254 q 383 158 269 254 q 390 224 390 188 q 381 286 390 260 q 357 336 372 313 q 290 421 342 361 l 37 421 l 37 489 l 238 489 z "},"¤":{"ha":782,"x_min":7,"x_max":774,"o":"m 182 750 q 391 808 269 808 q 598 750 513 808 l 684 828 l 774 749 l 686 672 q 758 482 758 600 q 686 292 758 366 l 774 214 l 684 136 l 598 212 q 392 155 511 155 q 182 212 272 155 l 96 136 l 7 214 l 94 292 q 24 482 24 362 q 94 672 24 604 l 7 749 l 96 828 l 182 750 m 189 481 q 204 411 189 444 q 247 352 220 377 q 391 298 304 298 q 534 352 476 298 q 592 482 592 406 q 534 611 592 557 q 391 665 475 665 q 247 611 305 665 q 189 481 189 557 z "},"¥":{"ha":782,"x_min":-35,"x_max":804,"o":"m 530 494 l 500 435 l 500 396 l 738 396 l 738 328 l 500 328 l 500 122 q 531 71 500 83 q 565 61 545 64 q 607 50 585 58 l 607 0 l 180 0 l 180 50 q 220 61 201 58 q 255 71 240 65 q 288 121 288 83 l 288 328 l 45 328 l 45 396 l 288 396 l 288 414 l 245 494 l 45 494 l 45 562 l 210 562 l 78 819 q -11 903 42 888 q -35 913 -24 906 l -35 964 l 377 964 l 377 913 q 346 903 361 907 q 316 895 330 899 q 286 864 286 885 q 330 762 286 842 l 458 524 l 587 777 q 616 857 616 835 q 551 903 616 890 q 517 913 533 907 l 517 964 l 804 964 l 804 916 q 781 903 793 907 q 757 891 770 899 q 702 829 726 873 l 566 562 l 738 562 l 738 494 l 530 494 z "},"¦":{"ha":347,"x_min":91,"x_max":255,"o":"m 91 363 l 255 363 l 255 0 l 91 0 l 91 363 m 91 974 l 255 974 l 255 610 l 91 610 l 91 974 z "},"§":{"ha":853,"x_min":116,"x_max":739,"o":"m 519 905 q 463 935 519 930 l 463 983 q 614 932 557 975 q 667 838 667 892 q 606 753 667 775 q 566 746 588 746 q 527 752 545 746 q 498 769 510 758 q 471 817 471 791 q 479 856 471 843 q 495 878 486 869 q 511 893 504 887 q 519 905 519 899 m 321 -85 q 377 -115 321 -106 l 377 -165 q 216 -111 275 -160 q 165 -14 165 -69 q 184 43 165 24 q 265 77 220 77 q 338 55 310 77 q 366 7 366 34 q 358 -32 366 -20 q 343 -52 351 -43 q 328 -68 335 -61 q 321 -85 321 -76 m 402 931 q 330 846 330 913 q 459 701 330 790 q 604 597 562 631 q 675 530 646 563 q 739 380 739 457 q 650 229 739 279 q 566 203 616 210 q 637 138 618 161 q 677 40 677 90 q 659 -44 677 -10 q 610 -104 642 -79 q 437 -164 545 -156 l 437 -115 q 497 -89 473 -109 q 522 -37 522 -68 q 504 17 522 -7 q 458 64 487 41 q 393 113 430 88 q 319 163 357 137 q 244 218 281 189 q 179 278 208 246 q 116 425 116 350 q 295 606 116 579 q 180 793 180 697 q 243 928 180 876 q 402 984 302 977 l 402 931 m 317 558 q 300 558 317 558 q 261 539 283 558 q 240 498 240 520 q 245 461 240 477 q 263 429 250 446 q 349 348 289 393 q 528 254 470 254 q 604 296 582 254 q 610 322 610 308 q 604 352 610 336 q 583 387 598 368 q 503 466 553 427 q 428 519 452 504 q 385 543 404 534 q 317 558 351 558 z "},"¨":{"ha":435,"x_min":-92,"x_max":525,"o":"m -64 799 q -70 805 -64 799 q -84 826 -77 810 q -92 860 -92 842 q -84 894 -92 878 q -64 921 -77 909 q -5 946 -36 946 q 43 939 25 946 q 73 921 60 932 q 102 869 102 896 q 95 826 102 842 q 73 799 87 810 q 15 774 45 774 q -33 781 -15 774 q -64 799 -51 787 m 359 799 q 352 805 359 799 q 338 826 346 810 q 331 860 331 842 q 338 894 331 878 q 359 921 346 909 q 417 946 387 946 q 465 939 448 946 q 496 921 483 932 q 525 869 525 896 q 517 826 525 842 q 496 799 509 810 q 437 774 467 774 q 390 781 408 774 q 359 799 372 787 z "},"©":{"ha":1251,"x_min":71,"x_max":1177,"o":"m 601 -21 q 220 129 372 -15 q 88 349 125 219 q 71 498 71 412 q 110 675 71 585 q 220 833 149 766 q 601 984 370 976 l 601 897 q 316 769 427 888 q 208 481 208 651 q 316 195 208 311 q 601 67 428 75 l 601 -21 m 648 67 q 930 195 820 75 q 1040 481 1040 313 q 930 768 1040 650 q 648 897 819 887 l 648 984 q 1028 832 880 976 q 1177 481 1177 688 q 1138 287 1177 377 q 1028 130 1099 197 q 648 -20 880 -12 l 648 67 m 827 615 q 648 737 779 730 l 648 778 q 770 766 716 777 q 867 728 867 747 l 867 615 l 827 615 m 648 249 q 854 380 780 253 l 891 380 l 867 258 q 722 216 862 239 q 648 209 683 210 l 648 249 m 601 732 q 507 495 507 700 q 601 256 507 290 l 601 209 q 324 377 385 217 q 304 490 304 430 q 322 598 304 550 q 375 684 339 646 q 601 777 454 768 l 601 732 z "},"ª":{"ha":566,"x_min":0,"x_max":566,"o":"m 193 850 q 113 783 193 783 q 57 804 77 783 q 37 854 37 825 q 49 904 37 882 q 81 942 60 926 q 199 983 124 975 l 199 936 q 156 902 163 928 q 193 850 193 888 m 310 847 q 260 932 307 916 l 260 984 q 449 886 401 977 q 467 804 467 852 l 467 566 q 471 529 467 542 q 490 515 476 515 q 509 517 503 515 q 518 524 514 519 q 527 568 524 534 l 566 557 q 535 477 557 499 q 423 437 495 437 q 310 478 351 437 l 310 847 m 250 714 q 171 593 171 676 q 205 514 171 534 q 228 507 216 507 q 250 509 240 507 l 250 448 q 178 437 218 437 q 106 447 138 437 q 50 475 73 456 q 0 581 0 514 q 156 743 0 694 q 250 770 201 757 l 250 714 z "},"«":{"ha":781,"x_min":96,"x_max":663,"o":"m 663 725 l 663 625 l 517 407 l 663 189 l 663 89 l 377 350 l 377 464 l 663 725 m 382 725 l 382 625 l 236 407 l 382 189 l 382 89 l 96 350 l 96 464 l 382 725 z "},"¬":{"ha":938,"x_min":94,"x_max":843,"o":"m 679 403 l 94 403 l 94 549 l 843 549 l 843 115 l 679 115 l 679 403 z "},"­":{"ha":433,"x_min":35,"x_max":398,"o":"m 35 264 l 35 400 l 398 400 l 398 264 l 35 264 z "},"®":{"ha":1251,"x_min":71,"x_max":1178,"o":"m 592 -20 q 217 132 363 -10 q 71 481 71 274 q 218 830 71 688 q 592 984 365 973 l 592 896 q 315 765 422 885 q 208 481 208 648 q 315 197 208 314 q 592 68 422 79 l 592 -20 m 652 67 q 933 197 822 77 q 1040 481 1040 313 q 933 766 1040 649 q 652 897 824 886 l 652 984 q 1030 831 882 973 q 1178 481 1178 688 q 1030 132 1178 273 q 652 -20 882 -10 l 652 67 m 736 478 q 920 245 842 337 l 920 227 l 772 227 q 697 309 742 227 q 670 359 684 333 q 610 460 634 425 l 575 460 l 575 313 q 583 272 575 279 q 642 258 596 260 l 642 227 l 357 227 l 357 258 q 415 269 406 260 q 427 313 427 280 l 427 672 q 419 713 427 706 q 357 728 406 726 l 357 761 l 682 761 q 844 682 804 761 q 857 626 857 656 q 849 575 857 597 q 826 534 841 553 q 736 478 793 492 m 605 500 q 696 614 696 500 q 653 716 696 701 q 620 721 639 721 l 575 721 l 575 500 l 605 500 z "},"¯":{"ha":434,"x_min":-19,"x_max":452,"o":"m -19 812 l -19 903 l 452 903 l 452 812 l -19 812 z "},"°":{"ha":625,"x_min":87,"x_max":536,"o":"m 312 909 q 261 899 285 909 q 220 871 237 888 q 180 785 180 833 q 220 699 180 735 q 311 661 259 661 q 406 699 366 661 q 444 785 444 735 q 406 871 444 833 q 312 909 366 909 m 313 985 q 400 969 360 985 q 471 926 441 954 q 536 785 536 869 q 471 644 536 702 q 313 586 407 586 q 153 644 218 586 q 87 785 87 701 q 153 926 87 869 q 313 985 218 985 z "},"±":{"ha":938,"x_min":94,"x_max":843,"o":"m 387 665 l 551 665 l 551 503 l 843 503 l 843 357 l 551 357 l 551 195 l 387 195 l 387 357 l 94 357 l 94 503 l 387 503 l 387 665 m 94 146 l 843 146 l 843 0 l 94 0 l 94 146 z "},"²":{"ha":469,"x_min":22,"x_max":431,"o":"m 111 896 q 176 823 176 886 q 157 779 176 797 q 103 760 138 760 q 46 783 67 760 q 26 838 26 806 q 40 896 26 870 q 80 942 54 922 q 226 985 136 985 q 370 943 313 985 q 431 820 431 897 q 310 652 431 731 q 241 608 276 630 q 115 502 153 551 l 140 502 l 140 395 l 22 395 q 31 466 22 444 q 48 502 40 488 q 139 601 95 555 q 221 690 184 648 q 279 829 279 759 q 227 933 279 905 q 190 943 209 943 q 159 939 172 943 q 136 928 146 935 q 111 896 112 913 m 188 502 l 257 502 q 361 544 338 502 q 372 567 367 555 q 400 606 387 597 l 422 606 l 422 395 l 188 395 l 188 502 z "},"³":{"ha":492,"x_min":31,"x_max":463,"o":"m 195 943 q 142 916 161 939 q 138 904 138 909 q 180 879 166 898 q 194 834 194 861 q 173 791 194 808 q 120 775 151 775 q 67 794 88 775 q 45 845 45 814 q 56 896 45 876 q 87 934 67 917 q 195 981 129 970 l 195 943 m 120 461 q 195 425 134 427 l 195 382 q 42 461 79 391 q 31 515 31 483 q 55 568 31 547 q 114 589 79 589 q 183 526 183 589 q 140 463 183 471 q 120 461 128 461 m 291 703 q 463 557 463 685 q 404 439 463 488 q 256 384 347 392 l 256 434 q 304 550 304 458 q 267 657 304 631 q 157 677 237 677 q 137 684 143 677 q 130 700 130 691 q 137 717 130 709 q 157 724 143 724 q 295 833 295 724 q 256 928 295 901 l 256 985 q 390 941 336 982 q 444 839 444 900 q 291 705 444 735 l 291 703 z "},"´":{"ha":435,"x_min":102,"x_max":455,"o":"m 102 760 l 300 968 q 387 1013 344 1013 q 449 979 429 1013 q 455 954 455 968 q 444 918 455 929 q 397 884 429 902 l 185 760 l 102 760 z "},"µ":{"ha":819,"x_min":26,"x_max":797,"o":"m 316 -264 l 26 -264 l 26 -221 q 53 -209 38 -212 q 82 -199 68 -205 q 115 -153 115 -186 l 115 550 q 82 598 115 586 q 53 607 68 603 q 26 619 38 610 l 26 665 l 316 665 l 316 -264 m 401 71 q 507 183 475 71 l 507 550 q 475 598 507 586 q 447 607 462 603 q 418 619 431 610 l 418 665 l 709 665 l 709 114 q 741 68 709 80 q 770 59 755 62 q 797 46 785 55 l 797 0 l 520 0 l 520 64 q 376 -15 454 -3 l 376 74 q 401 71 387 71 z "},"¶":{"ha":954,"x_min":81,"x_max":842,"o":"m 497 -195 l 339 -195 l 339 393 q 155 469 226 393 q 81 686 81 548 q 403 964 81 964 l 497 964 l 497 -195 m 842 925 q 715 825 715 918 l 715 -195 l 557 -195 l 557 964 l 842 964 l 842 925 z "},"·":{"ha":391,"x_min":68,"x_max":322,"o":"m 68 332 q 106 411 68 378 q 195 444 142 444 q 285 411 248 444 q 322 332 322 378 q 285 252 322 286 q 195 220 248 220 q 106 252 142 220 q 68 332 68 286 z "},"¸":{"ha":435,"x_min":24,"x_max":373,"o":"m 236 -192 q 216 -152 236 -166 q 173 -138 197 -138 q 116 -147 149 -138 l 98 -136 l 165 -1 l 230 -1 l 183 -92 q 234 -85 205 -85 q 288 -91 262 -85 q 332 -109 313 -96 q 373 -182 373 -134 q 315 -273 373 -239 q 170 -304 260 -304 q 24 -281 98 -304 l 48 -231 q 140 -252 97 -252 q 236 -192 236 -252 z "},"¹":{"ha":463,"x_min":36,"x_max":422,"o":"m 36 926 q 107 938 57 928 l 107 877 q 36 886 94 884 l 36 926 m 168 949 q 245 978 207 960 l 314 978 l 314 489 q 389 437 314 446 q 422 429 408 434 l 422 395 l 51 395 l 51 429 q 88 437 68 434 q 126 445 109 439 q 168 489 168 456 l 168 949 z "},"º":{"ha":654,"x_min":41,"x_max":618,"o":"m 300 930 q 236 711 236 896 q 300 491 236 526 l 300 437 q 114 524 187 447 q 41 710 41 601 q 115 895 41 818 q 300 983 189 972 l 300 930 m 361 491 q 425 711 425 526 q 361 930 425 895 l 361 983 q 545 897 473 974 q 618 710 618 820 q 545 524 618 601 q 361 437 473 447 l 361 491 z "},"»":{"ha":781,"x_min":118,"x_max":685,"o":"m 118 725 l 404 464 l 404 350 l 118 89 l 118 189 l 264 407 l 118 625 l 118 725 m 399 725 l 685 464 l 685 350 l 399 89 l 399 189 l 545 407 l 399 625 l 399 725 z "},"¼":{"ha":1173,"x_min":36,"x_max":1122,"o":"m 817 336 l 722 207 l 817 207 l 817 153 l 650 153 l 650 207 l 817 429 l 817 336 m 1084 207 l 1122 207 l 1122 153 l 1084 153 l 1084 207 m 1023 86 q 1047 47 1023 56 q 1069 42 1057 44 q 1091 35 1081 40 l 1091 0 l 805 0 l 805 35 q 830 43 817 40 q 853 50 843 45 q 877 89 877 60 l 877 511 l 932 582 l 1023 582 l 1023 86 m 337 -21 l 201 -21 l 852 985 l 986 985 l 337 -21 m 36 926 q 107 938 57 928 l 107 877 q 36 886 94 884 l 36 926 m 168 949 q 245 978 207 960 l 314 978 l 314 489 q 389 437 314 446 q 422 429 408 434 l 422 395 l 51 395 l 51 429 q 88 437 68 434 q 126 445 109 439 q 168 489 168 456 l 168 949 z "},"½":{"ha":1173,"x_min":2,"x_max":1124,"o":"m 804 501 q 869 428 869 492 q 850 384 869 402 q 796 366 831 366 q 740 389 760 366 q 719 444 719 412 q 733 502 719 475 q 773 547 747 528 q 919 590 829 590 q 1063 548 1006 590 q 1124 425 1124 503 q 1003 258 1124 336 q 934 213 969 235 q 808 107 846 156 l 833 107 l 833 0 l 715 0 q 724 71 715 50 q 741 107 733 93 q 832 207 788 160 q 914 296 877 253 q 972 435 972 364 q 920 538 972 510 q 883 549 902 549 q 852 545 865 549 q 829 534 840 541 q 804 501 805 518 m 881 107 l 950 107 q 1054 149 1031 107 q 1065 172 1060 161 q 1093 211 1080 202 l 1116 211 l 1116 0 l 881 0 l 881 107 m 335 -21 l 198 -21 l 881 985 l 983 985 l 335 -21 m 2 926 q 73 938 23 928 l 73 877 q 2 886 60 884 l 2 926 m 134 949 q 212 978 173 960 l 280 978 l 280 489 q 355 437 280 446 q 389 429 374 434 l 389 395 l 17 395 l 17 429 q 54 437 34 434 q 92 445 75 439 q 134 489 134 456 l 134 949 z "},"¾":{"ha":1173,"x_min":31,"x_max":1145,"o":"m 364 -21 l 229 -21 l 878 985 l 1013 985 l 364 -21 m 120 461 q 195 424 132 424 l 195 382 q 75 423 120 388 q 31 502 31 457 q 55 568 31 547 q 114 589 79 589 q 183 526 183 589 q 134 467 183 478 q 120 461 123 464 m 195 943 q 142 920 157 941 q 138 904 138 913 q 181 880 168 900 q 194 834 194 861 q 173 791 194 808 q 120 775 151 775 q 67 794 88 775 q 45 844 45 814 q 56 896 45 875 q 87 934 67 917 q 195 981 127 970 l 195 943 m 295 833 q 254 929 295 902 l 254 985 q 389 941 334 982 q 444 839 444 900 q 291 705 444 735 l 291 703 q 463 557 463 685 q 404 440 463 488 q 254 384 346 392 l 254 435 q 304 550 304 460 q 239 671 304 652 q 190 677 218 677 l 157 677 q 140 686 147 677 q 134 703 134 694 q 163 724 134 724 l 205 724 q 285 781 259 724 q 295 833 295 802 m 841 336 l 746 207 l 841 207 l 841 153 l 674 153 l 674 207 l 841 429 l 841 336 m 1107 207 l 1145 207 l 1145 153 l 1107 153 l 1107 207 m 1047 86 q 1071 47 1047 56 q 1093 42 1081 44 q 1115 35 1105 40 l 1115 0 l 829 0 l 829 35 q 854 43 841 40 q 877 50 867 45 q 901 89 901 60 l 901 511 l 956 582 l 1047 582 l 1047 86 z "},"¿":{"ha":752,"x_min":100,"x_max":668,"o":"m 450 -87 q 531 -37 519 -81 q 457 19 477 -29 q 450 73 450 37 q 479 136 450 109 q 561 163 508 163 q 639 129 609 163 q 667 50 667 95 q 651 -30 667 5 q 604 -89 634 -64 q 450 -151 545 -142 l 450 -87 m 390 -153 q 124 -23 195 -145 q 100 75 100 20 q 120 166 100 130 q 172 231 141 202 q 240 285 203 260 q 307 337 276 309 q 380 482 380 402 l 380 543 l 457 543 l 457 477 q 389 291 457 391 q 320 88 320 191 q 391 -80 320 -48 l 390 -153 m 523 772 q 531 725 531 750 q 523 677 531 699 q 499 640 514 656 q 416 605 467 605 q 335 640 367 605 q 303 724 303 674 q 335 810 303 775 q 416 844 367 844 q 523 772 494 844 z "},"À":{"ha":911,"x_min":-26,"x_max":937,"o":"m 336 817 l 239 847 q 244 898 243 876 q 250 939 245 921 q 446 982 309 965 q 484 985 467 985 q 508 946 500 964 l 822 155 q 869 78 842 103 q 937 50 896 54 l 937 0 l 503 0 l 503 43 q 538 58 520 53 q 571 68 556 63 q 604 102 604 77 q 591 149 604 115 l 336 817 m 348 608 l 195 171 q 184 120 184 140 q 196 89 184 100 q 225 71 208 77 q 262 60 242 64 q 298 46 281 55 l 298 0 l -26 0 l -26 46 q 3 60 -13 55 q 35 75 19 66 q 92 149 73 97 l 303 728 l 348 608 m 470 289 l 303 289 l 326 361 l 443 361 l 470 289 m 548 1062 l 335 1186 q 294 1213 303 1204 q 279 1250 279 1230 q 285 1281 279 1270 q 302 1299 292 1292 q 345 1315 322 1315 q 434 1270 391 1315 l 632 1062 l 548 1062 z "},"Á":{"ha":911,"x_min":-26,"x_max":937,"o":"m 336 817 l 239 847 q 244 898 243 876 q 250 939 245 921 q 446 982 309 965 q 484 985 467 985 q 508 946 500 964 l 822 155 q 869 78 842 103 q 937 50 896 54 l 937 0 l 503 0 l 503 43 q 538 58 520 53 q 571 68 556 63 q 604 102 604 77 q 591 149 604 115 l 336 817 m 348 608 l 195 171 q 184 120 184 140 q 196 89 184 100 q 225 71 208 77 q 262 60 242 64 q 298 46 281 55 l 298 0 l -26 0 l -26 46 q 3 60 -13 55 q 35 75 19 66 q 92 149 73 97 l 303 728 l 348 608 m 470 289 l 303 289 l 326 361 l 443 361 l 470 289 m 279 1062 l 477 1270 q 564 1315 521 1315 q 626 1281 606 1315 q 632 1257 632 1270 q 621 1220 632 1232 q 574 1186 606 1204 l 362 1062 l 279 1062 z "},"Â":{"ha":911,"x_min":-26,"x_max":937,"o":"m 336 817 l 239 847 q 244 898 243 876 q 250 939 245 921 q 446 982 309 965 q 484 985 467 985 q 508 946 500 964 l 822 155 q 869 78 842 103 q 937 50 896 54 l 937 0 l 503 0 l 503 43 q 538 58 520 53 q 571 68 556 63 q 604 102 604 77 q 591 149 604 115 l 336 817 m 348 608 l 195 171 q 184 120 184 140 q 196 89 184 100 q 225 71 208 77 q 262 60 242 64 q 298 46 281 55 l 298 0 l -26 0 l -26 46 q 3 60 -13 55 q 35 75 19 66 q 92 149 73 97 l 303 728 l 348 608 m 470 289 l 303 289 l 326 361 l 443 361 l 470 289 m 621 1062 l 456 1206 l 292 1062 l 211 1062 l 389 1304 l 522 1304 l 700 1062 l 621 1062 z "},"Ã":{"ha":911,"x_min":-26,"x_max":937,"o":"m 336 817 l 239 847 q 244 898 243 876 q 250 939 245 921 q 446 982 309 965 q 484 985 467 985 q 508 946 500 964 l 822 155 q 869 78 842 103 q 937 50 896 54 l 937 0 l 503 0 l 503 43 q 538 58 520 53 q 571 68 556 63 q 604 102 604 77 q 591 149 604 115 l 336 817 m 348 608 l 195 171 q 184 120 184 140 q 196 89 184 100 q 225 71 208 77 q 262 60 242 64 q 298 46 281 55 l 298 0 l -26 0 l -26 46 q 3 60 -13 55 q 35 75 19 66 q 92 149 73 97 l 303 728 l 348 608 m 470 289 l 303 289 l 326 361 l 443 361 l 470 289 m 713 1259 q 621 1108 695 1149 q 553 1091 592 1091 q 484 1102 514 1091 q 426 1126 453 1113 q 374 1150 398 1139 q 322 1161 349 1161 q 276 1140 295 1161 q 251 1090 258 1118 l 198 1090 q 299 1246 218 1208 q 359 1259 326 1259 q 451 1236 402 1259 q 526 1201 500 1212 q 575 1190 552 1190 q 610 1196 598 1190 q 631 1213 623 1202 q 657 1259 644 1227 l 713 1259 z "},"Ä":{"ha":911,"x_min":-26,"x_max":937,"o":"m 336 817 l 239 847 q 244 898 243 876 q 250 939 245 921 q 446 982 309 965 q 484 985 467 985 q 508 946 500 964 l 822 155 q 869 78 842 103 q 937 50 896 54 l 937 0 l 503 0 l 503 43 q 538 58 520 53 q 571 68 556 63 q 604 102 604 77 q 591 149 604 115 l 336 817 m 348 608 l 195 171 q 184 120 184 140 q 196 89 184 100 q 225 71 208 77 q 262 60 242 64 q 298 46 281 55 l 298 0 l -26 0 l -26 46 q 3 60 -13 55 q 35 75 19 66 q 92 149 73 97 l 303 728 l 348 608 m 470 289 l 303 289 l 326 361 l 443 361 l 470 289 m 175 1101 q 169 1107 175 1101 q 155 1129 162 1113 q 147 1163 147 1145 q 155 1196 147 1181 q 175 1223 162 1212 q 233 1249 203 1249 q 281 1242 264 1249 q 312 1223 299 1235 q 341 1172 341 1198 q 333 1129 341 1145 q 312 1101 326 1113 q 254 1076 283 1076 q 206 1083 224 1076 q 175 1101 188 1090 m 597 1101 q 591 1107 597 1101 q 577 1129 585 1113 q 570 1163 570 1145 q 577 1196 570 1181 q 597 1223 585 1212 q 656 1249 625 1249 q 704 1242 686 1249 q 735 1223 722 1235 q 764 1172 764 1198 q 756 1129 764 1145 q 735 1101 748 1113 q 676 1076 706 1076 q 628 1083 646 1076 q 597 1101 610 1090 z "},"Å":{"ha":911,"x_min":-26,"x_max":937,"o":"m 336 817 l 239 847 q 244 898 243 876 q 250 939 245 921 q 446 982 309 965 q 484 985 467 985 q 508 946 500 964 l 822 155 q 869 78 842 103 q 937 50 896 54 l 937 0 l 503 0 l 503 43 q 538 58 520 53 q 571 68 556 63 q 604 102 604 77 q 591 149 604 115 l 336 817 m 348 608 l 195 171 q 184 120 184 140 q 196 89 184 100 q 225 71 208 77 q 262 60 242 64 q 298 46 281 55 l 298 0 l -26 0 l -26 46 q 3 60 -13 55 q 35 75 19 66 q 92 149 73 97 l 303 728 l 348 608 m 470 289 l 303 289 l 326 361 l 443 361 l 470 289 m 292 1208 q 304 1264 292 1238 q 340 1310 317 1291 q 456 1352 388 1352 q 570 1310 524 1352 q 618 1208 618 1267 q 571 1105 618 1147 q 456 1062 523 1062 q 340 1105 389 1062 q 292 1208 292 1147 m 361 1208 q 389 1149 361 1174 q 446 1124 416 1124 q 492 1131 475 1124 q 522 1149 509 1138 q 548 1208 548 1173 q 492 1283 548 1262 q 455 1290 475 1290 q 419 1283 436 1290 q 389 1266 401 1277 q 361 1208 361 1242 z "},"Æ":{"ha":1822,"x_min":-26,"x_max":1758,"o":"m 336 817 l 239 847 q 244 898 243 876 q 250 939 245 921 q 446 982 309 965 q 484 985 467 985 q 508 946 500 964 l 822 155 q 869 78 842 103 q 937 50 896 54 l 937 0 l 503 0 l 503 43 q 538 58 520 53 q 571 68 556 63 q 604 102 604 77 q 591 149 604 115 l 336 817 m 348 608 l 195 171 q 184 120 184 140 q 196 89 184 100 q 225 71 208 77 q 262 60 242 64 q 298 46 281 55 l 298 0 l -26 0 l -26 46 q 3 60 -13 55 q 35 75 19 66 q 92 149 73 97 l 303 728 l 348 608 m 470 289 l 303 289 l 326 361 l 443 361 l 470 289 m 1284 964 l 1284 0 l 963 0 l 963 50 q 999 61 981 58 q 1029 72 1016 65 q 1060 129 1060 87 l 1060 833 q 1029 891 1060 876 q 999 902 1016 898 q 963 913 981 905 l 963 964 l 1284 964 m 1344 68 q 1430 65 1378 65 q 1524 81 1482 65 q 1592 123 1566 98 q 1633 180 1618 149 q 1659 241 1648 211 q 1681 297 1670 271 q 1712 336 1692 322 l 1758 336 l 1758 0 l 1344 0 l 1344 68 m 1554 847 q 1542 859 1554 847 q 1495 884 1531 870 q 1412 899 1459 899 q 1344 897 1364 899 l 1344 964 l 1497 964 q 1719 974 1650 964 l 1719 646 l 1672 646 q 1643 687 1655 662 q 1620 740 1632 712 q 1593 797 1608 768 q 1554 847 1578 825 m 1344 574 l 1570 574 l 1570 400 l 1344 400 l 1344 574 z "},"Ç":{"ha":869,"x_min":39,"x_max":809,"o":"m 517 73 q 654 127 602 75 q 731 347 721 194 l 809 321 q 647 18 790 94 q 517 -14 593 -11 l 517 73 m 290 490 q 456 73 290 110 l 456 -14 q 152 134 268 -5 q 39 481 39 271 q 157 842 39 699 q 290 947 214 909 q 456 985 367 985 l 456 898 q 298 650 323 877 q 290 490 290 578 m 517 985 q 611 958 572 977 q 663 932 649 940 q 686 925 677 925 q 703 936 696 925 q 718 964 710 947 l 783 964 l 783 614 l 731 614 q 692 693 714 637 q 655 779 669 748 q 621 834 640 809 q 517 898 577 890 l 517 985 m 472 -192 q 452 -152 472 -166 q 409 -138 433 -138 q 352 -147 385 -138 l 334 -136 l 401 -1 l 466 -1 l 419 -92 q 470 -85 441 -85 q 524 -91 498 -85 q 568 -109 549 -96 q 609 -182 609 -134 q 551 -273 609 -239 q 406 -304 496 -304 q 260 -281 334 -304 l 284 -231 q 376 -252 333 -252 q 472 -192 472 -252 z "},"È":{"ha":911,"x_min":52,"x_max":847,"o":"m 373 964 l 373 0 l 52 0 l 52 50 q 88 61 71 58 q 119 72 105 65 q 149 129 149 87 l 149 833 q 119 891 149 876 q 88 902 105 898 q 52 913 71 905 l 52 964 l 373 964 m 433 68 q 519 65 467 65 q 613 81 572 65 q 681 123 655 98 q 722 180 707 149 q 748 241 737 211 q 770 297 759 271 q 801 336 781 322 l 847 336 l 847 0 l 433 0 l 433 68 m 644 847 q 632 859 644 847 q 584 884 620 870 q 501 899 549 899 q 433 897 454 899 l 433 964 l 587 964 q 808 974 739 964 l 808 646 l 761 646 q 732 687 744 662 q 709 740 721 712 q 682 797 697 768 q 644 847 667 825 m 433 574 l 659 574 l 659 400 l 433 400 l 433 574 m 548 1062 l 335 1186 q 294 1213 303 1204 q 279 1250 279 1230 q 285 1281 279 1270 q 302 1299 292 1292 q 345 1315 322 1315 q 434 1270 391 1315 l 632 1062 l 548 1062 z "},"É":{"ha":911,"x_min":52,"x_max":847,"o":"m 373 964 l 373 0 l 52 0 l 52 50 q 88 61 71 58 q 119 72 105 65 q 149 129 149 87 l 149 833 q 119 891 149 876 q 88 902 105 898 q 52 913 71 905 l 52 964 l 373 964 m 433 68 q 519 65 467 65 q 613 81 572 65 q 681 123 655 98 q 722 180 707 149 q 748 241 737 211 q 770 297 759 271 q 801 336 781 322 l 847 336 l 847 0 l 433 0 l 433 68 m 644 847 q 632 859 644 847 q 584 884 620 870 q 501 899 549 899 q 433 897 454 899 l 433 964 l 587 964 q 808 974 739 964 l 808 646 l 761 646 q 732 687 744 662 q 709 740 721 712 q 682 797 697 768 q 644 847 667 825 m 433 574 l 659 574 l 659 400 l 433 400 l 433 574 m 279 1062 l 477 1270 q 564 1315 521 1315 q 626 1281 606 1315 q 632 1257 632 1270 q 621 1220 632 1232 q 574 1186 606 1204 l 362 1062 l 279 1062 z "},"Ê":{"ha":911,"x_min":52,"x_max":847,"o":"m 373 964 l 373 0 l 52 0 l 52 50 q 88 61 71 58 q 119 72 105 65 q 149 129 149 87 l 149 833 q 119 891 149 876 q 88 902 105 898 q 52 913 71 905 l 52 964 l 373 964 m 433 68 q 519 65 467 65 q 613 81 572 65 q 681 123 655 98 q 722 180 707 149 q 748 241 737 211 q 770 297 759 271 q 801 336 781 322 l 847 336 l 847 0 l 433 0 l 433 68 m 644 847 q 632 859 644 847 q 584 884 620 870 q 501 899 549 899 q 433 897 454 899 l 433 964 l 587 964 q 808 974 739 964 l 808 646 l 761 646 q 732 687 744 662 q 709 740 721 712 q 682 797 697 768 q 644 847 667 825 m 433 574 l 659 574 l 659 400 l 433 400 l 433 574 m 621 1062 l 456 1206 l 292 1062 l 211 1062 l 389 1304 l 522 1304 l 700 1062 l 621 1062 z "},"Ë":{"ha":911,"x_min":52,"x_max":847,"o":"m 373 964 l 373 0 l 52 0 l 52 50 q 88 61 71 58 q 119 72 105 65 q 149 129 149 87 l 149 833 q 119 891 149 876 q 88 902 105 898 q 52 913 71 905 l 52 964 l 373 964 m 433 68 q 519 65 467 65 q 613 81 572 65 q 681 123 655 98 q 722 180 707 149 q 748 241 737 211 q 770 297 759 271 q 801 336 781 322 l 847 336 l 847 0 l 433 0 l 433 68 m 644 847 q 632 859 644 847 q 584 884 620 870 q 501 899 549 899 q 433 897 454 899 l 433 964 l 587 964 q 808 974 739 964 l 808 646 l 761 646 q 732 687 744 662 q 709 740 721 712 q 682 797 697 768 q 644 847 667 825 m 433 574 l 659 574 l 659 400 l 433 400 l 433 574 m 175 1101 q 169 1107 175 1101 q 155 1129 162 1113 q 147 1163 147 1145 q 155 1196 147 1181 q 175 1223 162 1212 q 233 1249 203 1249 q 281 1242 264 1249 q 312 1223 299 1235 q 341 1172 341 1198 q 333 1129 341 1145 q 312 1101 326 1113 q 254 1076 283 1076 q 206 1083 224 1076 q 175 1101 188 1090 m 597 1101 q 591 1107 597 1101 q 577 1129 585 1113 q 570 1163 570 1145 q 577 1196 570 1181 q 597 1223 585 1212 q 656 1249 625 1249 q 704 1242 686 1249 q 735 1223 722 1235 q 764 1172 764 1198 q 756 1129 764 1145 q 735 1101 748 1113 q 676 1076 706 1076 q 628 1083 646 1076 q 597 1101 610 1090 z "},"Ì":{"ha":520,"x_min":50,"x_max":467,"o":"m 147 800 q 137 871 147 856 q 117 890 126 886 q 97 897 108 895 q 74 903 86 900 q 50 913 62 905 l 50 964 l 467 964 l 467 913 q 444 903 455 905 q 421 897 432 900 q 401 890 410 895 q 386 876 393 886 q 372 800 372 856 l 372 163 q 382 91 372 106 q 402 72 393 76 q 422 65 411 68 q 467 50 454 58 l 467 0 l 50 0 l 50 50 q 86 61 68 58 q 117 72 103 65 q 147 129 147 87 l 147 800 m 353 1062 l 140 1186 q 99 1213 108 1204 q 83 1250 83 1230 q 90 1281 83 1270 q 106 1299 96 1292 q 149 1315 127 1315 q 239 1270 195 1315 l 437 1062 l 353 1062 z "},"Í":{"ha":520,"x_min":50,"x_max":467,"o":"m 147 800 q 137 871 147 856 q 117 890 126 886 q 97 897 108 895 q 74 903 86 900 q 50 913 62 905 l 50 964 l 467 964 l 467 913 q 444 903 455 905 q 421 897 432 900 q 401 890 410 895 q 386 876 393 886 q 372 800 372 856 l 372 163 q 382 91 372 106 q 402 72 393 76 q 422 65 411 68 q 467 50 454 58 l 467 0 l 50 0 l 50 50 q 86 61 68 58 q 117 72 103 65 q 147 129 147 87 l 147 800 m 85 1062 l 283 1270 q 370 1315 327 1315 q 432 1281 412 1315 q 438 1257 438 1270 q 427 1220 438 1232 q 380 1186 412 1204 l 168 1062 l 85 1062 z "},"Î":{"ha":520,"x_min":16,"x_max":505,"o":"m 147 800 q 137 871 147 856 q 117 890 126 886 q 97 897 108 895 q 74 903 86 900 q 50 913 62 905 l 50 964 l 467 964 l 467 913 q 444 903 455 905 q 421 897 432 900 q 401 890 410 895 q 386 876 393 886 q 372 800 372 856 l 372 163 q 382 91 372 106 q 402 72 393 76 q 422 65 411 68 q 467 50 454 58 l 467 0 l 50 0 l 50 50 q 86 61 68 58 q 117 72 103 65 q 147 129 147 87 l 147 800 m 425 1062 l 261 1206 l 97 1062 l 16 1062 l 194 1304 l 327 1304 l 505 1062 l 425 1062 z "},"Ï":{"ha":520,"x_min":-48,"x_max":568,"o":"m 147 800 q 137 871 147 856 q 117 890 126 886 q 97 897 108 895 q 74 903 86 900 q 50 913 62 905 l 50 964 l 467 964 l 467 913 q 444 903 455 905 q 421 897 432 900 q 401 890 410 895 q 386 876 393 886 q 372 800 372 856 l 372 163 q 382 91 372 106 q 402 72 393 76 q 422 65 411 68 q 467 50 454 58 l 467 0 l 50 0 l 50 50 q 86 61 68 58 q 117 72 103 65 q 147 129 147 87 l 147 800 m -20 1101 q -27 1107 -20 1101 q -41 1129 -33 1113 q -48 1163 -48 1145 q -41 1196 -48 1181 q -20 1223 -33 1212 q 38 1249 7 1249 q 86 1242 68 1249 q 117 1223 104 1235 q 146 1172 146 1198 q 138 1129 146 1145 q 117 1101 130 1113 q 58 1076 88 1076 q 11 1083 28 1076 q -20 1101 -7 1090 m 402 1101 q 396 1107 402 1101 q 382 1129 389 1113 q 374 1163 374 1145 q 382 1196 374 1181 q 402 1223 389 1212 q 460 1249 430 1249 q 509 1242 491 1249 q 540 1223 526 1235 q 568 1172 568 1198 q 561 1129 568 1145 q 540 1101 553 1113 q 481 1076 511 1076 q 433 1083 451 1076 q 402 1101 415 1090 z "},"Ð":{"ha":1027,"x_min":0,"x_max":975,"o":"m 43 0 l 43 50 q 79 61 62 58 q 110 72 96 65 q 140 129 140 87 l 140 458 l 0 458 l 0 526 l 140 526 l 140 833 q 110 891 140 876 q 79 902 96 898 q 43 913 62 905 l 43 964 l 366 964 l 366 526 l 499 526 l 499 458 l 366 458 l 366 0 l 43 0 m 665 798 q 589 874 635 849 q 493 899 542 899 q 426 896 445 899 l 426 964 l 492 964 q 861 814 733 964 q 975 482 975 682 q 857 144 975 275 q 500 0 728 0 l 426 0 l 426 68 q 494 65 448 65 q 587 86 540 65 q 665 155 634 106 q 724 482 724 250 q 665 798 724 699 z "},"Ñ":{"ha":983,"x_min":36,"x_max":970,"o":"m 775 453 l 775 833 q 742 891 775 876 q 708 903 727 899 q 669 916 689 907 l 669 964 l 970 964 l 970 916 q 933 903 951 907 q 899 891 914 899 q 866 833 866 876 l 866 319 l 775 453 m 234 655 l 234 146 q 309 62 234 83 q 346 49 328 57 l 346 0 l 36 0 l 36 49 q 72 62 53 57 q 106 77 90 68 q 143 146 143 98 l 143 790 l 234 655 m 172 854 q 115 865 140 861 q 42 879 58 875 l 42 964 l 357 964 l 866 211 l 866 0 l 749 0 l 172 854 m 749 1259 q 657 1108 731 1149 q 589 1091 628 1091 q 519 1102 550 1091 q 461 1126 489 1113 q 410 1150 434 1139 q 358 1161 385 1161 q 312 1140 331 1161 q 287 1090 294 1118 l 234 1090 q 335 1246 254 1208 q 395 1259 362 1259 q 487 1236 438 1259 q 562 1201 536 1212 q 611 1190 588 1190 q 646 1196 634 1190 q 667 1213 659 1202 q 693 1259 680 1227 l 749 1259 z "},"Ò":{"ha":999,"x_min":50,"x_max":947,"o":"m 475 -14 q 161 142 279 -5 q 50 482 50 279 q 159 825 50 685 q 469 985 276 975 l 469 898 q 309 628 332 876 q 302 482 302 557 q 309 337 302 407 q 335 210 316 267 q 475 73 378 88 l 475 -14 m 695 482 q 529 898 695 874 l 529 985 q 838 825 723 975 q 947 482 947 684 q 840 142 947 281 q 536 -14 727 -3 l 536 73 q 689 336 667 91 q 695 482 695 407 m 592 1062 l 379 1186 q 338 1213 347 1204 q 323 1250 323 1230 q 329 1281 323 1270 q 346 1299 336 1292 q 389 1315 366 1315 q 478 1270 435 1315 l 676 1062 l 592 1062 z "},"Ó":{"ha":999,"x_min":50,"x_max":947,"o":"m 475 -14 q 161 142 279 -5 q 50 482 50 279 q 159 825 50 685 q 469 985 276 975 l 469 898 q 309 628 332 876 q 302 482 302 557 q 309 337 302 407 q 335 210 316 267 q 475 73 378 88 l 475 -14 m 695 482 q 529 898 695 874 l 529 985 q 838 825 723 975 q 947 482 947 684 q 840 142 947 281 q 536 -14 727 -3 l 536 73 q 689 336 667 91 q 695 482 695 407 m 323 1062 l 522 1270 q 608 1315 565 1315 q 670 1281 650 1315 q 676 1257 676 1270 q 665 1220 676 1232 q 618 1186 650 1204 l 406 1062 l 323 1062 z "},"Ô":{"ha":999,"x_min":50,"x_max":947,"o":"m 475 -14 q 161 142 279 -5 q 50 482 50 279 q 159 825 50 685 q 469 985 276 975 l 469 898 q 309 628 332 876 q 302 482 302 557 q 309 337 302 407 q 335 210 316 267 q 475 73 378 88 l 475 -14 m 695 482 q 529 898 695 874 l 529 985 q 838 825 723 975 q 947 482 947 684 q 840 142 947 281 q 536 -14 727 -3 l 536 73 q 689 336 667 91 q 695 482 695 407 m 665 1062 l 500 1206 l 336 1062 l 255 1062 l 433 1304 l 566 1304 l 744 1062 l 665 1062 z "},"Õ":{"ha":999,"x_min":50,"x_max":947,"o":"m 475 -14 q 161 142 279 -5 q 50 482 50 279 q 159 825 50 685 q 469 985 276 975 l 469 898 q 309 628 332 876 q 302 482 302 557 q 309 337 302 407 q 335 210 316 267 q 475 73 378 88 l 475 -14 m 695 482 q 529 898 695 874 l 529 985 q 838 825 723 975 q 947 482 947 684 q 840 142 947 281 q 536 -14 727 -3 l 536 73 q 689 336 667 91 q 695 482 695 407 m 757 1259 q 665 1108 739 1149 q 597 1091 636 1091 q 528 1102 558 1091 q 470 1126 497 1113 q 418 1150 442 1139 q 366 1161 393 1161 q 320 1140 339 1161 q 295 1090 302 1118 l 242 1090 q 343 1246 262 1208 q 403 1259 370 1259 q 495 1236 446 1259 q 570 1201 544 1212 q 619 1190 596 1190 q 654 1196 642 1190 q 675 1213 667 1202 q 701 1259 688 1227 l 757 1259 z "},"Ö":{"ha":999,"x_min":50,"x_max":947,"o":"m 475 -14 q 161 142 279 -5 q 50 482 50 279 q 159 825 50 685 q 469 985 276 975 l 469 898 q 309 628 332 876 q 302 482 302 557 q 309 337 302 407 q 335 210 316 267 q 475 73 378 88 l 475 -14 m 695 482 q 529 898 695 874 l 529 985 q 838 825 723 975 q 947 482 947 684 q 840 142 947 281 q 536 -14 727 -3 l 536 73 q 689 336 667 91 q 695 482 695 407 m 219 1101 q 213 1107 219 1101 q 199 1129 206 1113 q 191 1163 191 1145 q 199 1196 191 1181 q 219 1223 206 1212 q 277 1249 247 1249 q 326 1242 308 1249 q 356 1223 343 1235 q 385 1172 385 1198 q 377 1129 385 1145 q 356 1101 370 1113 q 298 1076 328 1076 q 250 1083 268 1076 q 219 1101 232 1090 m 642 1101 q 635 1107 642 1101 q 621 1129 629 1113 q 614 1163 614 1145 q 621 1196 614 1181 q 642 1223 629 1212 q 700 1249 669 1249 q 748 1242 730 1249 q 779 1223 766 1235 q 808 1172 808 1198 q 800 1129 808 1145 q 779 1101 792 1113 q 720 1076 750 1076 q 672 1083 690 1076 q 642 1101 654 1090 z "},"×":{"ha":938,"x_min":94,"x_max":843,"o":"m 94 561 l 211 665 l 469 436 l 727 665 l 843 561 l 585 332 l 843 103 l 727 0 l 469 229 l 211 0 l 94 103 l 353 332 l 94 561 z "},"Ø":{"ha":999,"x_min":50,"x_max":947,"o":"m 345 171 q 475 66 386 77 l 475 -21 q 266 43 355 -14 l 176 -104 l 87 -104 l 205 90 q 60 369 92 195 q 50 486 50 425 q 63 608 50 547 q 99 724 75 669 q 159 825 123 779 q 241 906 195 871 q 469 985 340 978 l 469 898 q 302 482 302 871 q 317 271 302 354 l 646 810 q 529 898 602 890 l 529 985 q 719 930 633 979 l 797 1057 l 885 1057 l 781 886 q 937 600 903 781 q 947 479 947 542 q 935 356 947 417 q 899 240 923 294 q 840 139 876 185 q 760 58 805 92 q 536 -21 663 -14 l 536 66 q 689 335 666 83 q 695 475 695 407 q 675 714 695 618 l 345 171 z "},"Ù":{"ha":955,"x_min":24,"x_max":949,"o":"m 579 73 q 721 133 681 80 q 758 293 758 182 l 758 829 q 722 892 758 877 q 688 904 707 900 q 652 916 669 907 l 652 964 l 949 964 l 949 916 q 917 905 934 908 q 884 895 899 901 q 850 836 850 880 l 850 301 q 791 83 850 157 q 579 -14 727 3 l 579 73 m 519 -14 q 145 130 213 -14 q 122 243 122 178 l 122 836 q 88 893 122 879 q 57 903 74 899 q 24 916 39 907 l 24 964 l 455 964 l 455 916 q 418 905 436 908 q 385 896 399 902 q 353 840 353 882 l 353 271 q 440 93 353 136 q 519 73 472 77 l 519 -14 m 570 1062 l 357 1186 q 316 1213 325 1204 q 300 1250 300 1230 q 307 1281 300 1270 q 323 1299 313 1292 q 366 1315 344 1315 q 456 1270 412 1315 l 654 1062 l 570 1062 z "},"Ú":{"ha":955,"x_min":24,"x_max":949,"o":"m 579 73 q 721 133 681 80 q 758 293 758 182 l 758 829 q 722 892 758 877 q 688 904 707 900 q 652 916 669 907 l 652 964 l 949 964 l 949 916 q 917 905 934 908 q 884 895 899 901 q 850 836 850 880 l 850 301 q 791 83 850 157 q 579 -14 727 3 l 579 73 m 519 -14 q 145 130 213 -14 q 122 243 122 178 l 122 836 q 88 893 122 879 q 57 903 74 899 q 24 916 39 907 l 24 964 l 455 964 l 455 916 q 418 905 436 908 q 385 896 399 902 q 353 840 353 882 l 353 271 q 440 93 353 136 q 519 73 472 77 l 519 -14 m 300 1062 l 499 1270 q 585 1315 543 1315 q 648 1281 627 1315 q 654 1257 654 1270 q 642 1220 654 1232 q 595 1186 627 1204 l 384 1062 l 300 1062 z "},"Û":{"ha":955,"x_min":24,"x_max":949,"o":"m 579 73 q 721 133 681 80 q 758 293 758 182 l 758 829 q 722 892 758 877 q 688 904 707 900 q 652 916 669 907 l 652 964 l 949 964 l 949 916 q 917 905 934 908 q 884 895 899 901 q 850 836 850 880 l 850 301 q 791 83 850 157 q 579 -14 727 3 l 579 73 m 519 -14 q 145 130 213 -14 q 122 243 122 178 l 122 836 q 88 893 122 879 q 57 903 74 899 q 24 916 39 907 l 24 964 l 455 964 l 455 916 q 418 905 436 908 q 385 896 399 902 q 353 840 353 882 l 353 271 q 440 93 353 136 q 519 73 472 77 l 519 -14 m 642 1062 l 478 1206 l 314 1062 l 233 1062 l 411 1304 l 544 1304 l 722 1062 l 642 1062 z "},"Ü":{"ha":955,"x_min":24,"x_max":949,"o":"m 579 73 q 721 133 681 80 q 758 293 758 182 l 758 829 q 722 892 758 877 q 688 904 707 900 q 652 916 669 907 l 652 964 l 949 964 l 949 916 q 917 905 934 908 q 884 895 899 901 q 850 836 850 880 l 850 301 q 791 83 850 157 q 579 -14 727 3 l 579 73 m 519 -14 q 145 130 213 -14 q 122 243 122 178 l 122 836 q 88 893 122 879 q 57 903 74 899 q 24 916 39 907 l 24 964 l 455 964 l 455 916 q 418 905 436 908 q 385 896 399 902 q 353 840 353 882 l 353 271 q 440 93 353 136 q 519 73 472 77 l 519 -14 m 195 1101 q 189 1107 195 1101 q 175 1129 182 1113 q 168 1163 168 1145 q 175 1196 168 1181 q 195 1223 182 1212 q 254 1249 223 1249 q 302 1242 284 1249 q 332 1223 319 1235 q 361 1172 361 1198 q 354 1129 361 1145 q 332 1101 346 1113 q 274 1076 304 1076 q 226 1083 244 1076 q 195 1101 208 1090 m 618 1101 q 611 1107 618 1101 q 597 1129 605 1113 q 590 1163 590 1145 q 597 1196 590 1181 q 618 1223 605 1212 q 676 1249 646 1249 q 724 1242 707 1249 q 755 1223 742 1235 q 784 1172 784 1198 q 776 1129 784 1145 q 755 1101 768 1113 q 696 1076 726 1076 q 649 1083 667 1076 q 618 1101 631 1090 z "},"Ý":{"ha":782,"x_min":-36,"x_max":818,"o":"m 513 451 l 513 122 q 545 71 513 83 q 579 61 560 64 q 621 50 599 58 l 621 0 l 178 0 l 178 50 q 219 61 199 58 q 255 71 239 65 q 288 121 288 83 l 288 416 l 78 819 q -12 903 42 888 q -36 913 -25 906 l -36 964 l 399 964 l 399 913 q 368 903 384 907 q 338 895 351 900 q 308 863 308 886 q 319 827 308 848 q 346 777 331 805 l 513 451 m 501 586 l 589 760 q 627 853 627 833 q 617 882 627 873 q 594 895 608 890 q 563 903 580 899 q 530 913 546 907 l 530 964 l 818 964 l 818 916 q 795 903 807 907 q 772 891 784 899 q 718 829 740 873 l 545 495 l 501 586 m 214 1062 l 413 1270 q 499 1315 456 1315 q 562 1281 541 1315 q 568 1257 568 1270 q 556 1220 568 1232 q 509 1186 541 1204 l 298 1062 l 214 1062 z "},"Þ":{"ha":840,"x_min":40,"x_max":814,"o":"m 573 503 q 429 703 573 694 l 429 770 l 454 770 q 795 619 734 770 q 814 501 814 570 q 791 382 814 433 q 723 299 768 331 q 451 239 637 239 l 429 239 l 429 308 q 540 361 507 317 q 573 503 573 406 m 368 151 q 380 89 368 103 q 401 71 391 75 q 423 65 412 67 q 474 50 460 57 l 474 0 l 40 0 l 40 50 q 79 61 60 58 q 112 72 98 65 q 143 129 143 87 l 143 803 q 111 891 143 878 q 76 901 99 897 q 40 913 53 906 l 40 964 l 477 964 l 477 913 q 439 901 464 905 q 403 892 414 896 q 385 881 393 889 q 368 818 368 863 l 368 151 z "},"ß":{"ha":911,"x_min":36,"x_max":872,"o":"m 505 137 q 570 52 505 68 l 570 -24 q 395 99 439 -8 q 380 168 380 136 q 387 213 380 200 q 404 233 393 225 q 449 249 425 249 q 482 243 472 249 q 498 229 492 238 q 506 184 506 214 q 505 137 506 184 m 326 0 l 36 0 l 36 43 q 64 55 49 52 q 93 64 79 59 q 125 111 125 77 l 125 602 q 326 964 125 899 l 326 0 m 387 978 q 469 983 415 983 q 578 967 523 983 q 674 922 633 951 q 760 761 760 861 q 644 553 760 629 q 529 506 593 521 q 583 460 529 483 q 638 437 607 449 q 701 412 669 426 q 763 380 732 398 q 819 340 794 363 q 872 225 872 289 q 851 118 872 162 q 797 43 831 74 q 631 -25 730 -18 l 631 52 q 702 112 684 66 q 708 155 708 127 q 684 208 708 182 q 622 255 659 234 q 543 296 585 276 q 463 339 500 315 q 377 463 377 393 q 425 557 377 513 q 468 593 444 576 q 511 632 491 611 q 558 745 558 682 q 539 859 558 825 q 498 909 520 894 q 443 924 475 924 q 387 914 410 924 l 387 978 z "},"à":{"ha":782,"x_min":45,"x_max":774,"o":"m 602 -10 q 447 37 499 -10 l 447 439 q 439 552 447 526 q 384 614 426 604 l 384 695 q 649 456 649 686 l 649 153 q 687 71 649 71 q 725 154 718 71 l 774 142 q 674 0 757 27 q 602 -10 644 -10 m 387 22 q 285 -10 348 -10 q 181 2 222 -10 q 110 37 140 14 q 45 174 45 87 q 139 333 45 275 q 387 424 206 375 l 387 352 q 266 185 266 304 q 302 80 266 107 q 340 71 315 71 q 387 87 364 71 l 387 22 m 243 570 q 290 508 290 549 q 229 439 290 456 q 195 435 212 435 q 120 463 146 435 q 94 529 94 491 q 109 595 94 568 q 153 644 124 623 q 323 695 216 690 l 323 614 q 243 570 270 610 m 484 760 l 271 884 q 230 911 239 902 q 214 947 214 927 q 221 979 214 968 q 237 997 227 989 q 280 1013 258 1013 q 370 968 326 1013 l 568 760 l 484 760 z "},"á":{"ha":782,"x_min":45,"x_max":774,"o":"m 602 -10 q 447 37 499 -10 l 447 439 q 439 552 447 526 q 384 614 426 604 l 384 695 q 649 456 649 686 l 649 153 q 687 71 649 71 q 725 154 718 71 l 774 142 q 674 0 757 27 q 602 -10 644 -10 m 387 22 q 285 -10 348 -10 q 181 2 222 -10 q 110 37 140 14 q 45 174 45 87 q 139 333 45 275 q 387 424 206 375 l 387 352 q 266 185 266 304 q 302 80 266 107 q 340 71 315 71 q 387 87 364 71 l 387 22 m 243 570 q 290 508 290 549 q 229 439 290 456 q 195 435 212 435 q 120 463 146 435 q 94 529 94 491 q 109 595 94 568 q 153 644 124 623 q 323 695 216 690 l 323 614 q 243 570 270 610 m 214 760 l 413 968 q 499 1013 456 1013 q 562 979 541 1013 q 568 954 568 968 q 556 918 568 929 q 509 884 541 902 l 298 760 l 214 760 z "},"â":{"ha":782,"x_min":45,"x_max":774,"o":"m 602 -10 q 447 37 499 -10 l 447 439 q 439 552 447 526 q 384 614 426 604 l 384 695 q 649 456 649 686 l 649 153 q 687 71 649 71 q 725 154 718 71 l 774 142 q 674 0 757 27 q 602 -10 644 -10 m 387 22 q 285 -10 348 -10 q 181 2 222 -10 q 110 37 140 14 q 45 174 45 87 q 139 333 45 275 q 387 424 206 375 l 387 352 q 266 185 266 304 q 302 80 266 107 q 340 71 315 71 q 387 87 364 71 l 387 22 m 243 570 q 290 508 290 549 q 229 439 290 456 q 195 435 212 435 q 120 463 146 435 q 94 529 94 491 q 109 595 94 568 q 153 644 124 623 q 323 695 216 690 l 323 614 q 243 570 270 610 m 556 760 l 392 904 l 228 760 l 146 760 l 325 1002 l 458 1002 l 635 760 l 556 760 z "},"ã":{"ha":782,"x_min":45,"x_max":774,"o":"m 602 -10 q 447 37 499 -10 l 447 439 q 439 552 447 526 q 384 614 426 604 l 384 695 q 649 456 649 686 l 649 153 q 687 71 649 71 q 725 154 718 71 l 774 142 q 674 0 757 27 q 602 -10 644 -10 m 387 22 q 285 -10 348 -10 q 181 2 222 -10 q 110 37 140 14 q 45 174 45 87 q 139 333 45 275 q 387 424 206 375 l 387 352 q 266 185 266 304 q 302 80 266 107 q 340 71 315 71 q 387 87 364 71 l 387 22 m 243 570 q 290 508 290 549 q 229 439 290 456 q 195 435 212 435 q 120 463 146 435 q 94 529 94 491 q 109 595 94 568 q 153 644 124 623 q 323 695 216 690 l 323 614 q 243 570 270 610 m 648 957 q 557 806 631 847 q 489 789 528 789 q 419 800 450 789 q 361 824 389 810 q 309 848 334 837 q 258 859 285 859 q 212 837 231 859 q 186 787 193 816 l 134 787 q 235 944 153 905 q 294 957 262 957 q 387 933 338 957 q 461 899 435 909 q 511 888 488 888 q 546 894 534 888 q 567 910 558 900 q 593 957 580 924 l 648 957 z "},"ä":{"ha":782,"x_min":45,"x_max":774,"o":"m 602 -10 q 447 37 499 -10 l 447 439 q 439 552 447 526 q 384 614 426 604 l 384 695 q 649 456 649 686 l 649 153 q 687 71 649 71 q 725 154 718 71 l 774 142 q 674 0 757 27 q 602 -10 644 -10 m 387 22 q 285 -10 348 -10 q 181 2 222 -10 q 110 37 140 14 q 45 174 45 87 q 139 333 45 275 q 387 424 206 375 l 387 352 q 266 185 266 304 q 302 80 266 107 q 340 71 315 71 q 387 87 364 71 l 387 22 m 243 570 q 290 508 290 549 q 229 439 290 456 q 195 435 212 435 q 120 463 146 435 q 94 529 94 491 q 109 595 94 568 q 153 644 124 623 q 323 695 216 690 l 323 614 q 243 570 270 610 m 111 799 q 104 805 111 799 q 90 826 98 810 q 83 860 83 842 q 90 894 83 878 q 111 921 98 909 q 169 946 138 946 q 217 939 199 946 q 248 921 235 932 q 277 869 277 896 q 269 826 277 842 q 248 799 261 810 q 189 774 219 774 q 141 781 159 774 q 111 799 123 787 m 533 799 q 527 805 533 799 q 513 826 520 810 q 505 860 505 842 q 513 894 505 878 q 533 921 520 909 q 591 946 561 946 q 640 939 622 946 q 671 921 657 932 q 699 869 699 896 q 691 826 699 842 q 671 799 684 810 q 612 774 642 774 q 564 781 582 774 q 533 799 546 787 z "},"å":{"ha":782,"x_min":45,"x_max":774,"o":"m 602 -10 q 447 37 499 -10 l 447 439 q 439 552 447 526 q 384 614 426 604 l 384 695 q 649 456 649 686 l 649 153 q 687 71 649 71 q 725 154 718 71 l 774 142 q 674 0 757 27 q 602 -10 644 -10 m 387 22 q 285 -10 348 -10 q 181 2 222 -10 q 110 37 140 14 q 45 174 45 87 q 139 333 45 275 q 387 424 206 375 l 387 352 q 266 185 266 304 q 302 80 266 107 q 340 71 315 71 q 387 87 364 71 l 387 22 m 243 570 q 290 508 290 549 q 229 439 290 456 q 195 435 212 435 q 120 463 146 435 q 94 529 94 491 q 109 595 94 568 q 153 644 124 623 q 323 695 216 690 l 323 614 q 243 570 270 610 m 227 906 q 240 962 227 936 q 275 1008 253 988 q 391 1050 323 1050 q 506 1008 459 1050 q 554 905 554 965 q 506 802 554 845 q 391 760 458 760 q 275 802 324 760 q 227 906 227 844 m 297 905 q 324 846 297 871 q 381 822 352 822 q 427 829 410 822 q 457 846 444 836 q 484 905 484 871 q 427 981 484 960 q 391 987 410 987 q 354 981 372 987 q 324 964 337 975 q 297 905 297 940 z "},"æ":{"ha":1140,"x_min":45,"x_max":1080,"o":"m 748 -17 q 447 39 532 -17 l 447 429 q 439 553 447 524 q 384 621 426 610 l 384 684 q 580 620 511 678 q 748 682 654 675 l 748 612 q 687 538 703 598 q 671 396 671 479 q 674 267 671 314 q 685 180 677 219 q 748 71 703 99 l 748 -17 m 387 23 q 279 -16 335 -16 q 181 -3 222 -16 q 110 32 140 9 q 45 167 45 81 q 139 323 45 265 q 387 414 209 367 l 387 344 q 266 178 266 296 q 302 79 266 104 q 340 71 315 71 q 387 86 364 71 l 387 23 m 808 682 q 1018 573 948 672 q 1080 336 1080 485 l 731 336 l 731 404 l 871 404 q 858 548 871 498 q 808 610 845 597 l 808 682 m 243 557 q 290 496 290 537 q 229 430 290 446 q 195 425 212 425 q 120 453 146 425 q 94 517 94 480 q 109 582 94 554 q 153 631 124 609 q 323 684 218 678 l 323 625 q 257 582 281 622 q 243 557 250 570 m 808 54 q 998 227 951 62 l 1061 199 q 808 -16 1008 1 l 808 54 z "},"ç":{"ha":680,"x_min":42,"x_max":669,"o":"m 507 589 q 446 614 492 612 l 446 695 q 601 635 541 687 q 658 515 658 585 q 638 449 658 472 q 549 407 602 407 q 471 435 501 407 q 444 494 444 460 q 507 589 444 555 m 446 71 q 585 160 544 73 q 606 219 597 187 l 669 191 q 446 -10 627 10 l 446 71 m 386 -10 q 136 92 234 -9 q 42 333 42 188 q 133 587 42 488 q 386 695 227 690 l 386 614 q 294 528 326 597 q 262 346 262 459 q 330 106 262 178 q 386 71 353 81 l 386 -10 m 378 -192 q 358 -152 378 -166 q 314 -138 338 -138 q 258 -147 290 -138 l 240 -136 l 307 -1 l 372 -1 l 325 -92 q 375 -85 347 -85 q 429 -91 404 -85 q 474 -109 455 -96 q 515 -182 515 -134 q 457 -273 515 -239 q 312 -304 402 -304 q 165 -281 240 -304 l 190 -231 q 282 -252 239 -252 q 378 -192 378 -252 z "},"è":{"ha":739,"x_min":42,"x_max":675,"o":"m 424 71 q 607 222 560 78 l 669 193 q 424 -10 618 7 l 424 71 m 404 695 q 613 584 543 685 q 675 345 675 494 l 326 345 l 326 414 l 467 414 q 453 551 467 500 q 404 614 440 602 l 404 695 m 363 -10 q 126 104 216 1 q 42 340 42 200 q 127 586 42 486 q 343 695 211 686 l 343 614 q 280 530 298 598 q 262 375 262 461 q 267 247 262 290 q 283 171 271 205 q 363 71 307 100 l 363 -10 m 462 760 l 249 884 q 208 911 217 902 q 193 947 193 927 q 199 979 193 968 q 216 997 205 989 q 258 1013 236 1013 q 348 968 304 1013 l 546 760 l 462 760 z "},"é":{"ha":739,"x_min":42,"x_max":675,"o":"m 424 71 q 607 222 560 78 l 669 193 q 424 -10 618 7 l 424 71 m 404 695 q 613 584 543 685 q 675 345 675 494 l 326 345 l 326 414 l 467 414 q 453 551 467 500 q 404 614 440 602 l 404 695 m 363 -10 q 126 104 216 1 q 42 340 42 200 q 127 586 42 486 q 343 695 211 686 l 343 614 q 280 530 298 598 q 262 375 262 461 q 267 247 262 290 q 283 171 271 205 q 363 71 307 100 l 363 -10 m 193 760 l 391 968 q 477 1013 435 1013 q 540 979 519 1013 q 546 954 546 968 q 534 918 546 929 q 488 884 519 902 l 276 760 l 193 760 z "},"ê":{"ha":739,"x_min":42,"x_max":675,"o":"m 424 71 q 607 222 560 78 l 669 193 q 424 -10 618 7 l 424 71 m 404 695 q 613 584 543 685 q 675 345 675 494 l 326 345 l 326 414 l 467 414 q 453 551 467 500 q 404 614 440 602 l 404 695 m 363 -10 q 126 104 216 1 q 42 340 42 200 q 127 586 42 486 q 343 695 211 686 l 343 614 q 280 530 298 598 q 262 375 262 461 q 267 247 262 290 q 283 171 271 205 q 363 71 307 100 l 363 -10 m 534 760 l 370 904 l 206 760 l 125 760 l 303 1002 l 436 1002 l 614 760 l 534 760 z "},"ë":{"ha":739,"x_min":42,"x_max":677,"o":"m 424 71 q 607 222 560 78 l 669 193 q 424 -10 618 7 l 424 71 m 404 695 q 613 584 543 685 q 675 345 675 494 l 326 345 l 326 414 l 467 414 q 453 551 467 500 q 404 614 440 602 l 404 695 m 363 -10 q 126 104 216 1 q 42 340 42 200 q 127 586 42 486 q 343 695 211 686 l 343 614 q 280 530 298 598 q 262 375 262 461 q 267 247 262 290 q 283 171 271 205 q 363 71 307 100 l 363 -10 m 89 799 q 82 805 89 799 q 68 826 76 810 q 61 860 61 842 q 68 894 61 878 q 89 921 76 909 q 147 946 117 946 q 195 939 178 946 q 226 921 213 932 q 255 869 255 896 q 247 826 255 842 q 226 799 239 810 q 168 774 197 774 q 120 781 138 774 q 89 799 102 787 m 511 799 q 505 805 511 799 q 491 826 498 810 q 484 860 484 842 q 491 894 484 878 q 511 921 498 909 q 570 946 539 946 q 618 939 600 946 q 649 921 635 932 q 677 869 677 896 q 670 826 677 842 q 649 799 662 810 q 590 774 620 774 q 542 781 560 774 q 511 799 524 787 z "},"ì":{"ha":435,"x_min":26,"x_max":408,"o":"m 317 111 q 350 64 317 77 q 379 55 363 59 q 408 43 395 52 l 408 0 l 26 0 l 26 43 q 55 55 39 52 q 84 64 71 59 q 116 111 116 77 l 116 550 q 84 597 116 585 q 55 607 71 603 q 26 619 39 610 l 26 665 l 317 665 l 317 111 m 310 760 l 97 884 q 56 911 65 902 q 41 947 41 927 q 47 979 41 968 q 64 997 54 989 q 106 1013 84 1013 q 196 968 153 1013 l 394 760 l 310 760 z "},"í":{"ha":435,"x_min":26,"x_max":408,"o":"m 317 111 q 350 64 317 77 q 379 55 363 59 q 408 43 395 52 l 408 0 l 26 0 l 26 43 q 55 55 39 52 q 84 64 71 59 q 116 111 116 77 l 116 550 q 84 597 116 585 q 55 607 71 603 q 26 619 39 610 l 26 665 l 317 665 l 317 111 m 42 760 l 241 968 q 327 1013 284 1013 q 389 979 369 1013 q 395 954 395 968 q 384 918 395 929 q 337 884 369 902 l 125 760 l 42 760 z "},"î":{"ha":435,"x_min":-27,"x_max":462,"o":"m 317 111 q 350 64 317 77 q 379 55 363 59 q 408 43 395 52 l 408 0 l 26 0 l 26 43 q 55 55 39 52 q 84 64 71 59 q 116 111 116 77 l 116 550 q 84 597 116 585 q 55 607 71 603 q 26 619 39 610 l 26 665 l 317 665 l 317 111 m 382 760 l 218 904 l 54 760 l -27 760 l 151 1002 l 284 1002 l 462 760 l 382 760 z "},"ï":{"ha":435,"x_min":-91,"x_max":526,"o":"m 317 111 q 350 64 317 77 q 379 55 363 59 q 408 43 395 52 l 408 0 l 26 0 l 26 43 q 55 55 39 52 q 84 64 71 59 q 116 111 116 77 l 116 550 q 84 597 116 585 q 55 607 71 603 q 26 619 39 610 l 26 665 l 317 665 l 317 111 m -63 799 q -70 805 -63 799 q -83 826 -76 810 q -91 860 -91 842 q -83 894 -91 878 q -63 921 -76 909 q -5 946 -35 946 q 43 939 26 946 q 74 921 61 932 q 103 869 103 896 q 95 826 103 842 q 74 799 87 810 q 16 774 45 774 q -32 781 -14 774 q -63 799 -50 787 m 359 799 q 353 805 359 799 q 339 826 347 810 q 332 860 332 842 q 339 894 332 878 q 359 921 347 909 q 418 946 387 946 q 466 939 448 946 q 497 921 484 932 q 526 869 526 896 q 518 826 526 842 q 497 799 510 810 q 438 774 468 774 q 390 781 408 774 q 359 799 372 787 z "},"ð":{"ha":766,"x_min":42,"x_max":724,"o":"m 271 314 q 359 44 271 72 l 359 -18 q 129 93 220 -8 q 42 314 42 190 q 129 534 42 439 q 359 645 220 636 l 359 585 q 291 505 312 572 q 271 314 271 439 m 239 999 q 433 908 346 970 l 585 999 l 627 946 l 491 864 q 663 624 600 772 q 724 353 721 489 q 628 84 721 184 q 406 -18 542 -9 l 406 43 q 496 314 496 67 q 406 585 496 560 l 406 645 q 461 636 437 642 q 388 803 441 734 l 234 713 l 192 765 l 339 852 q 286 895 320 871 q 218 950 227 935 l 239 999 z "},"ñ":{"ha":810,"x_min":26,"x_max":783,"o":"m 376 652 q 487 695 430 695 q 580 682 544 695 q 642 644 616 669 q 695 494 695 591 l 695 142 q 726 66 695 75 q 745 61 735 63 q 783 43 771 56 l 783 0 l 461 0 l 461 47 q 472 72 461 62 q 489 89 484 81 q 494 111 494 96 l 494 488 q 484 577 494 557 q 433 614 468 614 q 376 597 399 614 l 376 652 m 316 142 q 345 66 316 75 q 363 61 353 63 q 400 43 388 56 l 400 0 l 26 0 l 26 43 q 53 56 38 52 q 82 66 68 60 q 115 114 115 79 l 115 533 q 92 603 115 581 q 26 634 75 621 l 26 682 l 316 682 l 316 142 m 662 957 q 570 806 644 847 q 502 789 541 789 q 433 800 463 789 q 375 824 402 810 q 323 848 347 837 q 271 859 298 859 q 225 837 244 859 q 200 787 207 816 l 147 787 q 248 944 167 905 q 308 957 275 957 q 400 933 351 957 q 475 899 449 909 q 524 888 501 888 q 559 894 547 888 q 581 910 572 900 q 606 957 593 924 l 662 957 z "},"ò":{"ha":766,"x_min":42,"x_max":724,"o":"m 353 614 q 271 342 271 584 q 289 156 271 222 q 353 71 308 89 l 353 -10 q 130 98 218 1 q 42 340 42 197 q 130 582 42 480 q 353 695 220 684 l 353 614 m 496 342 q 413 614 496 584 l 413 695 q 635 582 547 684 q 724 340 724 480 q 635 98 724 197 q 413 -10 548 1 l 413 71 q 477 155 458 88 q 496 342 496 222 m 475 760 l 262 884 q 222 911 231 902 q 206 947 206 927 q 213 979 206 968 q 229 997 219 989 q 272 1013 250 1013 q 361 968 318 1013 l 559 760 l 475 760 z "},"ó":{"ha":766,"x_min":42,"x_max":724,"o":"m 353 614 q 271 342 271 584 q 289 156 271 222 q 353 71 308 89 l 353 -10 q 130 98 218 1 q 42 340 42 197 q 130 582 42 480 q 353 695 220 684 l 353 614 m 496 342 q 413 614 496 584 l 413 695 q 635 582 547 684 q 724 340 724 480 q 635 98 724 197 q 413 -10 548 1 l 413 71 q 477 155 458 88 q 496 342 496 222 m 206 760 l 405 968 q 491 1013 448 1013 q 553 979 533 1013 q 559 954 559 968 q 548 918 559 929 q 501 884 533 902 l 290 760 l 206 760 z "},"ô":{"ha":766,"x_min":42,"x_max":724,"o":"m 353 614 q 271 342 271 584 q 289 156 271 222 q 353 71 308 89 l 353 -10 q 130 98 218 1 q 42 340 42 197 q 130 582 42 480 q 353 695 220 684 l 353 614 m 496 342 q 413 614 496 584 l 413 695 q 635 582 547 684 q 724 340 724 480 q 635 98 724 197 q 413 -10 548 1 l 413 71 q 477 155 458 88 q 496 342 496 222 m 548 760 l 384 904 l 220 760 l 138 760 l 317 1002 l 450 1002 l 627 760 l 548 760 z "},"õ":{"ha":766,"x_min":42,"x_max":724,"o":"m 353 614 q 271 342 271 584 q 289 156 271 222 q 353 71 308 89 l 353 -10 q 130 98 218 1 q 42 340 42 197 q 130 582 42 480 q 353 695 220 684 l 353 614 m 496 342 q 413 614 496 584 l 413 695 q 635 582 547 684 q 724 340 724 480 q 635 98 724 197 q 413 -10 548 1 l 413 71 q 477 155 458 88 q 496 342 496 222 m 640 957 q 549 806 623 847 q 480 789 519 789 q 411 800 441 789 q 353 824 380 810 q 301 848 326 837 q 250 859 277 859 q 204 837 222 859 q 178 787 185 816 l 125 787 q 227 944 145 905 q 286 957 254 957 q 378 933 330 957 q 453 899 427 909 q 503 888 479 888 q 538 894 526 888 q 559 910 550 900 q 585 957 572 924 l 640 957 z "},"ö":{"ha":766,"x_min":42,"x_max":724,"o":"m 353 614 q 271 342 271 584 q 289 156 271 222 q 353 71 308 89 l 353 -10 q 130 98 218 1 q 42 340 42 197 q 130 582 42 480 q 353 695 220 684 l 353 614 m 496 342 q 413 614 496 584 l 413 695 q 635 582 547 684 q 724 340 724 480 q 635 98 724 197 q 413 -10 548 1 l 413 71 q 477 155 458 88 q 496 342 496 222 m 102 799 q 96 805 102 799 q 82 826 90 810 q 75 860 75 842 q 82 894 75 878 q 102 921 90 909 q 161 946 130 946 q 209 939 191 946 q 239 921 227 932 q 269 869 269 896 q 261 826 269 842 q 239 799 253 810 q 181 774 211 774 q 133 781 151 774 q 102 799 115 787 m 525 799 q 518 805 525 799 q 505 826 512 810 q 497 860 497 842 q 505 894 497 878 q 525 921 512 909 q 583 946 553 946 q 631 939 614 946 q 663 921 649 932 q 691 869 691 896 q 683 826 691 842 q 663 799 675 810 q 604 774 633 774 q 556 781 574 774 q 525 799 538 787 z "},"÷":{"ha":938,"x_min":94,"x_max":843,"o":"m 94 260 l 94 406 l 843 406 l 843 260 l 94 260 m 347 45 q 357 86 347 66 q 384 121 367 106 q 469 153 419 153 q 553 120 517 153 q 589 44 589 88 q 553 -31 589 1 q 469 -63 517 -63 q 384 -31 419 -63 q 347 45 347 0 m 347 621 q 357 663 347 643 q 384 697 367 682 q 469 728 419 728 q 553 697 518 728 q 589 621 589 665 q 553 545 589 578 q 469 513 518 513 q 384 545 419 513 q 347 621 347 577 z "},"ø":{"ha":766,"x_min":42,"x_max":724,"o":"m 353 600 q 271 334 271 569 q 275 231 271 276 l 469 537 q 413 600 448 587 l 413 682 q 539 647 481 676 l 604 749 l 675 749 l 591 614 q 688 493 652 566 q 724 341 724 420 q 700 200 724 261 q 635 92 677 139 q 413 -17 547 -6 l 413 66 q 477 150 458 82 q 496 293 496 217 q 489 454 496 402 l 292 142 q 353 66 313 81 l 353 -17 q 216 23 278 -11 l 149 -83 l 75 -83 l 165 58 q 75 176 108 106 q 42 325 42 247 q 65 464 42 402 q 130 571 89 525 q 353 682 219 670 l 353 600 z "},"ù":{"ha":810,"x_min":26,"x_max":783,"o":"m 433 14 q 299 -10 389 -10 q 162 41 210 -10 q 115 195 115 92 l 115 564 q 82 612 115 600 q 53 621 68 618 q 26 634 38 625 l 26 682 l 316 682 l 316 177 q 333 98 316 125 q 380 71 349 71 q 433 85 412 71 l 433 14 m 494 564 q 462 612 494 600 q 433 622 448 618 q 405 634 418 625 l 405 682 l 695 682 l 695 117 q 728 69 695 82 q 756 60 741 64 q 783 47 772 56 l 783 0 l 494 0 l 494 564 m 497 760 l 284 884 q 243 911 252 902 q 228 947 228 927 q 234 979 228 968 q 251 997 241 989 q 294 1013 271 1013 q 383 968 340 1013 l 581 760 l 497 760 z "},"ú":{"ha":810,"x_min":26,"x_max":783,"o":"m 433 14 q 299 -10 389 -10 q 162 41 210 -10 q 115 195 115 92 l 115 564 q 82 612 115 600 q 53 621 68 618 q 26 634 38 625 l 26 682 l 316 682 l 316 177 q 333 98 316 125 q 380 71 349 71 q 433 85 412 71 l 433 14 m 494 564 q 462 612 494 600 q 433 622 448 618 q 405 634 418 625 l 405 682 l 695 682 l 695 117 q 728 69 695 82 q 756 60 741 64 q 783 47 772 56 l 783 0 l 494 0 l 494 564 m 228 760 l 427 968 q 513 1013 470 1013 q 575 979 555 1013 q 581 954 581 968 q 570 918 581 929 q 523 884 555 902 l 311 760 l 228 760 z "},"û":{"ha":810,"x_min":26,"x_max":783,"o":"m 433 14 q 299 -10 389 -10 q 162 41 210 -10 q 115 195 115 92 l 115 564 q 82 612 115 600 q 53 621 68 618 q 26 634 38 625 l 26 682 l 316 682 l 316 177 q 333 98 316 125 q 380 71 349 71 q 433 85 412 71 l 433 14 m 494 564 q 462 612 494 600 q 433 622 448 618 q 405 634 418 625 l 405 682 l 695 682 l 695 117 q 728 69 695 82 q 756 60 741 64 q 783 47 772 56 l 783 0 l 494 0 l 494 564 m 570 760 l 406 904 l 241 760 l 160 760 l 338 1002 l 471 1002 l 649 760 l 570 760 z "},"ü":{"ha":810,"x_min":26,"x_max":783,"o":"m 433 14 q 299 -10 389 -10 q 162 41 210 -10 q 115 195 115 92 l 115 564 q 82 612 115 600 q 53 621 68 618 q 26 634 38 625 l 26 682 l 316 682 l 316 177 q 333 98 316 125 q 380 71 349 71 q 433 85 412 71 l 433 14 m 494 564 q 462 612 494 600 q 433 622 448 618 q 405 634 418 625 l 405 682 l 695 682 l 695 117 q 728 69 695 82 q 756 60 741 64 q 783 47 772 56 l 783 0 l 494 0 l 494 564 m 124 799 q 118 805 124 799 q 104 826 111 810 q 96 860 96 842 q 104 894 96 878 q 124 921 111 909 q 182 946 152 946 q 231 939 213 946 q 261 921 248 932 q 290 869 290 896 q 282 826 290 842 q 261 799 275 810 q 203 774 233 774 q 155 781 173 774 q 124 799 137 787 m 547 799 q 540 805 547 799 q 526 826 534 810 q 519 860 519 842 q 526 894 519 878 q 547 921 534 909 q 605 946 574 946 q 653 939 635 946 q 684 921 671 932 q 713 869 713 896 q 705 826 713 842 q 684 799 697 810 q 625 774 655 774 q 577 781 595 774 q 547 799 559 787 z "},"ý":{"ha":680,"x_min":-24,"x_max":710,"o":"m 282 51 l 73 547 q -1 621 47 607 q -24 630 -13 624 l -24 682 l 363 682 l 363 631 q 342 622 354 624 q 318 616 330 619 q 290 576 290 606 q 304 525 290 557 l 385 323 l 282 51 m 166 -178 q 188 -199 166 -199 q 227 -187 210 -199 q 258 -153 243 -175 q 315 -31 283 -115 l 522 512 q 541 576 541 561 q 533 600 541 592 q 512 613 525 608 q 485 622 500 618 q 458 631 471 626 l 458 682 l 710 682 l 710 650 q 700 627 710 633 q 675 613 689 620 q 646 596 661 607 q 622 562 631 585 l 377 -76 q 285 -232 338 -178 q 153 -285 232 -285 q 39 -243 81 -285 q 2 -148 2 -203 q 62 -47 2 -75 q 103 -39 82 -39 q 140 -46 125 -39 q 168 -62 156 -52 q 193 -107 193 -85 q 189 -141 193 -130 q 179 -159 184 -152 q 170 -170 174 -166 q 166 -178 166 -174 m 163 760 l 362 968 q 448 1013 406 1013 q 511 979 490 1013 q 517 954 517 968 q 505 918 517 929 q 458 884 490 902 l 247 760 l 163 760 z "},"þ":{"ha":782,"x_min":3,"x_max":731,"o":"m 99 469 l 100 732 l 100 848 q 67 897 100 884 q 38 906 54 902 q 9 918 22 909 l 9 964 l 302 964 l 300 -144 q 334 -195 300 -180 q 367 -208 349 -203 q 405 -221 386 -213 l 405 -264 l 3 -264 l 3 -221 q 35 -208 18 -212 q 66 -198 52 -204 q 98 -144 98 -184 l 98 148 l 99 469 m 348 648 q 452 684 398 684 q 559 656 506 684 q 650 579 612 628 q 731 328 731 475 q 647 81 731 180 q 439 -18 563 -18 q 388 -9 408 -18 q 348 10 367 0 l 348 72 q 393 58 370 58 q 507 328 507 58 q 399 597 507 597 q 348 583 378 597 l 348 648 z "},"ÿ":{"ha":680,"x_min":-24,"x_max":710,"o":"m 282 51 l 73 547 q -1 621 47 607 q -24 630 -13 624 l -24 682 l 363 682 l 363 631 q 342 622 354 624 q 318 616 330 619 q 290 576 290 606 q 304 525 290 557 l 385 323 l 282 51 m 166 -178 q 188 -199 166 -199 q 227 -187 210 -199 q 258 -153 243 -175 q 315 -31 283 -115 l 522 512 q 541 576 541 561 q 533 600 541 592 q 512 613 525 608 q 485 622 500 618 q 458 631 471 626 l 458 682 l 710 682 l 710 650 q 700 627 710 633 q 675 613 689 620 q 646 596 661 607 q 622 562 631 585 l 377 -76 q 285 -232 338 -178 q 153 -285 232 -285 q 39 -243 81 -285 q 2 -148 2 -203 q 62 -47 2 -75 q 103 -39 82 -39 q 140 -46 125 -39 q 168 -62 156 -52 q 193 -107 193 -85 q 189 -141 193 -130 q 179 -159 184 -152 q 170 -170 174 -166 q 166 -178 166 -174 m 60 799 q 53 805 60 799 q 39 826 47 810 q 32 860 32 842 q 39 894 32 878 q 60 921 47 909 q 118 946 87 946 q 166 939 149 946 q 197 921 184 932 q 226 869 226 896 q 218 826 226 842 q 197 799 210 810 q 138 774 168 774 q 91 781 109 774 q 60 799 73 787 m 482 799 q 476 805 482 799 q 462 826 469 810 q 454 860 454 842 q 462 894 454 878 q 482 921 469 909 q 541 946 510 946 q 589 939 571 946 q 620 921 606 932 q 648 869 648 896 q 641 826 648 842 q 620 799 633 810 q 561 774 591 774 q 513 781 531 774 q 482 799 495 787 z "},"ħ":{"ha":810,"x_min":0,"x_max":783,"o":"m 376 753 l 376 826 l 587 826 l 587 753 l 376 753 m 0 753 l 0 826 l 56 826 l 56 753 l 0 753 m 486 576 q 481 586 486 576 q 465 605 477 597 q 426 614 453 614 q 376 602 399 614 l 376 663 q 488 695 432 695 q 580 682 544 695 q 642 644 616 669 q 695 494 695 591 l 695 114 q 728 66 695 79 q 756 56 741 60 q 783 43 772 52 l 783 0 l 461 0 l 461 43 q 472 56 466 51 q 482 66 477 60 q 494 104 494 79 l 494 485 q 486 576 494 555 m 316 114 q 345 66 316 78 q 372 56 357 60 q 400 43 387 52 l 400 0 l 26 0 l 26 43 q 53 56 38 52 q 82 66 68 60 q 115 114 115 79 l 115 869 q 82 918 115 904 q 53 927 68 924 q 26 940 38 931 l 26 987 l 316 987 l 316 114 z "},"Ĩ":{"ha":520,"x_min":3,"x_max":517,"o":"m 147 800 q 137 871 147 856 q 117 890 126 886 q 97 897 108 895 q 74 903 86 900 q 50 913 62 905 l 50 964 l 467 964 l 467 913 q 444 903 455 905 q 421 897 432 900 q 401 890 410 895 q 386 876 393 886 q 372 800 372 856 l 372 163 q 382 91 372 106 q 402 72 393 76 q 422 65 411 68 q 467 50 454 58 l 467 0 l 50 0 l 50 50 q 86 61 68 58 q 117 72 103 65 q 147 129 147 87 l 147 800 m 517 1239 q 426 1088 500 1129 q 358 1071 397 1071 q 288 1082 319 1071 q 230 1106 258 1093 q 178 1130 203 1119 q 127 1141 154 1141 q 81 1119 100 1141 q 56 1069 62 1098 l 3 1069 q 104 1226 22 1187 q 163 1239 131 1239 q 256 1215 207 1239 q 331 1181 304 1192 q 380 1170 357 1170 q 415 1176 403 1170 q 436 1192 427 1182 q 462 1239 449 1206 l 517 1239 z "},"ĩ":{"ha":435,"x_min":-40,"x_max":475,"o":"m 317 111 q 350 64 317 77 q 379 55 363 59 q 408 43 395 52 l 408 0 l 26 0 l 26 43 q 55 55 39 52 q 84 64 71 59 q 116 111 116 77 l 116 550 q 84 597 116 585 q 55 607 71 603 q 26 619 39 610 l 26 665 l 317 665 l 317 111 m 475 957 q 383 806 457 847 q 315 789 354 789 q 245 800 276 789 q 188 824 215 810 q 136 848 160 837 q 84 859 111 859 q 38 837 57 859 q 13 787 20 816 l -40 787 q 61 944 -20 905 q 121 957 88 957 q 213 933 164 957 q 288 899 262 909 q 337 888 314 888 q 372 894 360 888 q 393 910 385 900 q 419 957 406 924 l 475 957 z "},"ı":{"ha":435,"x_min":26,"x_max":408,"o":"m 317 111 q 350 64 317 77 q 379 55 363 59 q 408 43 395 52 l 408 0 l 26 0 l 26 43 q 55 55 39 52 q 84 64 71 59 q 116 111 116 77 l 116 550 q 84 597 116 585 q 55 607 71 603 q 26 619 39 610 l 26 665 l 317 665 l 317 111 z "},"Ĳ":{"ha":1259,"x_min":50,"x_max":1233,"o":"m 147 800 q 137 871 147 856 q 117 890 126 886 q 97 897 108 895 q 74 903 86 900 q 50 913 62 905 l 50 964 l 467 964 l 467 913 q 444 903 455 905 q 421 897 432 900 q 401 890 410 895 q 386 876 393 886 q 372 800 372 856 l 372 163 q 382 91 372 106 q 402 72 393 76 q 422 65 411 68 q 467 50 454 58 l 467 0 l 50 0 l 50 50 q 86 61 68 58 q 117 72 103 65 q 147 129 147 87 l 147 800 m 763 -14 q 595 56 660 -2 q 525 217 525 118 q 601 349 525 316 q 651 359 625 359 q 698 352 677 359 q 734 331 719 345 q 768 250 768 302 q 702 146 768 189 q 667 128 684 134 q 696 94 671 111 q 763 73 721 77 l 763 -14 m 823 73 q 907 184 907 90 l 907 833 q 876 891 907 877 q 841 901 861 897 q 799 913 821 905 l 799 964 l 1233 964 l 1233 913 q 1195 901 1213 905 q 1163 891 1177 897 q 1133 833 1133 877 l 1133 258 q 954 4 1133 54 q 823 -14 897 -12 l 823 73 z "},"ĳ":{"ha":869,"x_min":26,"x_max":775,"o":"m 317 114 q 350 66 317 79 q 379 56 363 60 q 408 43 395 52 l 408 0 l 26 0 l 26 43 q 55 56 39 52 q 84 66 71 60 q 116 114 116 79 l 116 564 q 84 612 116 600 q 55 621 71 617 q 26 634 39 625 l 26 682 l 317 682 l 317 114 m 205 762 q 158 772 179 762 q 122 798 137 781 q 91 880 91 831 q 122 963 91 928 q 205 999 155 999 q 288 963 256 999 q 319 880 319 928 q 288 798 319 831 q 205 762 256 762 m 459 -172 q 500 -213 471 -206 l 500 -285 l 495 -285 q 358 -244 412 -285 q 304 -141 304 -203 q 323 -78 304 -99 q 404 -41 357 -41 q 485 -90 468 -41 q 490 -121 490 -105 q 459 -172 490 -162 m 561 -203 q 587 -144 587 -184 q 583 -88 587 -122 q 574 7 574 -23 l 574 564 q 542 610 574 599 q 513 619 528 616 q 485 631 498 622 l 485 682 l 775 682 l 775 37 q 561 -280 775 -247 l 561 -203 m 743 798 q 736 789 743 798 q 707 772 728 781 q 660 762 686 762 q 613 772 634 762 q 577 798 592 781 q 545 880 545 831 q 577 963 545 928 q 660 999 610 999 q 743 963 711 999 q 774 892 774 928 q 766 835 774 857 q 743 798 758 814 z "},"Ĵ":{"ha":739,"x_min":5,"x_max":713,"o":"m 243 -14 q 75 56 140 -2 q 5 217 5 118 q 81 349 5 316 q 131 359 104 359 q 178 352 157 359 q 214 331 199 345 q 248 250 248 302 q 182 146 248 189 q 147 128 163 134 q 176 94 151 111 q 243 73 201 77 l 243 -14 m 303 73 q 387 184 387 90 l 387 833 q 355 891 387 877 q 321 901 341 897 q 279 913 301 905 l 279 964 l 713 964 l 713 913 q 675 901 693 905 q 643 891 656 897 q 612 833 612 877 l 612 258 q 434 4 612 54 q 303 -14 376 -12 l 303 73 m 534 1042 l 370 1186 l 206 1042 l 125 1042 l 303 1284 l 436 1284 l 614 1042 l 534 1042 z "},"ĵ":{"ha":435,"x_min":-131,"x_max":462,"o":"m 24 -172 q 66 -213 36 -206 l 66 -285 l 60 -285 q -77 -244 -23 -285 q -131 -141 -131 -203 q -111 -78 -131 -99 q -31 -41 -78 -41 q 50 -90 33 -41 q 55 -121 55 -105 q 24 -172 55 -162 m 126 -203 q 152 -144 152 -184 q 148 -88 152 -122 q 139 7 139 -23 l 139 564 q 107 610 139 599 q 78 619 94 616 q 50 631 63 622 l 50 682 l 340 682 l 340 37 q 126 -280 340 -247 l 126 -203 m 382 760 l 218 904 l 54 760 l -27 760 l 151 1002 l 284 1002 l 462 760 l 382 760 z "},"ķ":{"ha":781,"x_min":16,"x_max":819,"o":"m 374 427 l 486 525 q 524 560 511 547 q 536 587 536 574 q 529 605 536 600 q 509 614 521 611 q 484 622 498 618 q 460 634 471 625 l 460 682 l 771 682 l 771 647 q 738 615 771 631 q 648 564 665 578 l 524 455 l 711 144 q 796 60 745 84 q 819 43 808 54 l 819 0 l 463 0 l 462 46 q 481 59 462 56 q 510 66 500 63 q 519 75 519 68 q 480 150 510 98 q 438 224 450 203 l 374 332 l 374 427 m 112 839 q 94 911 112 901 q 57 925 81 920 q 24 940 32 931 l 24 987 l 314 987 l 313 122 q 342 71 313 85 q 372 59 355 64 q 404 46 388 54 l 404 0 l 16 0 l 16 43 q 48 57 31 52 q 79 67 65 61 q 112 122 112 81 l 112 839 m 279 -522 q 319 -475 298 -499 q 359 -426 340 -451 q 410 -319 403 -368 q 302 -282 338 -315 q 267 -197 267 -250 q 299 -114 267 -149 q 375 -77 333 -77 q 441 -90 417 -77 q 481 -125 465 -103 q 514 -222 514 -170 q 501 -314 514 -274 q 465 -395 488 -354 q 334 -564 415 -481 l 279 -522 z "},"ĸ":{"ha":781,"x_min":16,"x_max":819,"o":"m 374 399 l 486 525 q 506 546 497 537 q 522 562 515 555 q 536 588 536 577 q 529 605 536 600 q 509 614 521 611 q 484 622 498 618 q 460 634 471 625 l 460 682 l 771 682 l 771 647 q 737 616 771 633 q 648 564 666 583 l 524 428 l 711 144 q 796 60 745 84 q 819 43 808 54 l 819 0 l 463 0 l 462 46 q 481 59 462 56 q 510 66 500 63 q 519 72 519 68 q 477 148 519 77 l 374 304 l 374 399 m 112 533 q 94 606 112 595 q 57 620 81 614 q 24 634 32 625 l 24 681 l 313 681 l 313 122 q 342 71 313 85 q 372 59 355 64 q 404 46 388 54 l 404 0 l 16 0 l 16 43 q 48 57 31 52 q 79 67 65 61 q 112 122 112 81 l 112 533 z "},"Ŀ":{"ha":795,"x_min":56,"x_max":785,"o":"m 439 66 q 448 65 444 65 q 458 65 453 65 q 665 180 611 65 q 689 242 679 212 q 710 298 700 272 q 739 338 721 323 l 785 338 l 785 0 l 439 0 l 439 66 m 378 0 l 56 0 l 56 50 q 92 61 75 58 q 123 72 109 65 q 153 129 153 87 l 153 833 q 123 891 153 876 q 92 902 109 898 q 56 913 75 905 l 56 964 l 480 964 l 480 913 q 441 902 460 905 q 410 891 423 898 q 378 833 378 876 l 378 0 m 549 487 q 543 493 549 487 q 530 514 536 498 q 523 548 523 530 q 530 582 523 566 q 549 609 536 597 q 603 634 575 634 q 648 627 631 634 q 676 609 664 621 q 703 557 703 585 q 696 514 703 530 q 676 487 689 498 q 622 462 649 462 q 577 469 594 462 q 549 487 561 475 z "},"ŀ":{"ha":435,"x_min":26,"x_max":568,"o":"m 317 114 q 350 66 317 79 q 379 56 363 60 q 408 43 395 52 l 408 0 l 26 0 l 26 43 q 55 56 39 52 q 84 66 71 60 q 116 114 116 79 l 116 869 q 84 918 116 905 q 55 927 71 924 q 26 940 39 931 l 26 987 l 317 987 l 317 114 m 414 487 q 408 493 414 487 q 395 514 401 498 q 388 548 388 530 q 395 582 388 566 q 414 609 401 597 q 468 634 440 634 q 513 627 496 634 q 541 609 529 621 q 568 557 568 585 q 561 514 568 530 q 541 487 554 498 q 487 462 514 462 q 443 469 459 462 q 414 487 426 475 z "},"Ł":{"ha":795,"x_min":7,"x_max":785,"o":"m 439 653 l 585 722 l 585 614 l 439 545 l 439 653 m 102 387 l 7 342 l 7 450 l 102 495 l 102 387 m 378 0 l 56 0 l 56 50 q 92 61 75 58 q 123 72 109 65 q 153 129 153 87 l 153 833 q 123 891 153 876 q 92 902 109 898 q 56 913 75 905 l 56 964 l 480 964 l 480 913 q 441 902 460 905 q 410 891 423 898 q 378 833 378 876 l 378 0 m 439 66 q 448 65 444 65 q 458 65 453 65 q 665 180 611 65 q 689 242 679 212 q 710 298 700 272 q 739 338 721 323 l 785 338 l 785 0 l 439 0 l 439 66 z "},"ł":{"ha":434,"x_min":-26,"x_max":461,"o":"m 366 631 l 461 673 l 461 602 l 366 559 l 366 631 m 68 424 l -26 380 l -26 453 l 68 496 l 68 424 m 116 821 q 105 882 116 869 q 84 896 94 894 q 65 901 75 899 q 26 918 39 905 l 26 964 l 317 964 l 317 139 q 349 64 317 75 q 378 58 362 60 q 408 43 394 56 l 408 0 l 26 0 l 26 43 q 57 58 38 54 q 84 64 75 62 q 100 75 94 67 q 116 140 116 93 l 116 821 z "},"Ń":{"ha":983,"x_min":36,"x_max":970,"o":"m 775 453 l 775 833 q 742 891 775 876 q 708 903 727 899 q 669 916 689 907 l 669 964 l 970 964 l 970 916 q 933 903 951 907 q 899 891 914 899 q 866 833 866 876 l 866 319 l 775 453 m 234 655 l 234 146 q 309 62 234 83 q 346 49 328 57 l 346 0 l 36 0 l 36 49 q 72 62 53 57 q 106 77 90 68 q 143 146 143 98 l 143 790 l 234 655 m 172 854 q 115 865 140 861 q 42 879 58 875 l 42 964 l 357 964 l 866 211 l 866 0 l 749 0 l 172 854 m 315 1042 l 513 1250 q 600 1295 557 1295 q 662 1261 642 1295 q 668 1236 668 1250 q 656 1200 668 1211 q 610 1166 642 1184 l 398 1042 l 315 1042 z "},"ń":{"ha":810,"x_min":26,"x_max":783,"o":"m 376 652 q 487 695 430 695 q 580 682 544 695 q 642 644 616 669 q 695 494 695 591 l 695 142 q 726 66 695 75 q 745 61 735 63 q 783 43 771 56 l 783 0 l 461 0 l 461 47 q 472 72 461 62 q 489 89 484 81 q 494 111 494 96 l 494 488 q 484 577 494 557 q 433 614 468 614 q 376 597 399 614 l 376 652 m 316 142 q 345 66 316 75 q 363 61 353 63 q 400 43 388 56 l 400 0 l 26 0 l 26 43 q 53 56 38 52 q 82 66 68 60 q 115 114 115 79 l 115 533 q 92 603 115 581 q 26 634 75 621 l 26 682 l 316 682 l 316 142 m 228 760 l 427 968 q 513 1013 470 1013 q 575 979 555 1013 q 581 954 581 968 q 570 918 581 929 q 523 884 555 902 l 311 760 l 228 760 z "},"Œ":{"ha":1489,"x_min":50,"x_max":1424,"o":"m 529 985 q 719 964 625 982 l 947 964 l 947 0 l 724 0 q 536 -21 634 -18 l 536 50 q 695 481 695 73 q 529 914 695 890 l 529 985 m 469 914 q 302 482 302 888 q 475 50 302 77 l 475 -21 q 161 138 281 -12 q 50 482 50 279 q 159 825 50 685 q 469 985 276 975 l 469 914 m 1010 68 q 1097 65 1044 65 q 1191 81 1149 65 q 1258 123 1232 98 q 1299 180 1284 149 q 1325 241 1314 211 q 1347 297 1336 271 q 1378 336 1358 322 l 1424 336 l 1424 0 l 1010 0 l 1010 68 m 1221 847 q 1209 859 1221 847 q 1161 884 1197 870 q 1078 899 1126 899 q 1010 897 1031 899 l 1010 964 l 1164 964 q 1385 974 1316 964 l 1385 646 l 1338 646 q 1310 687 1321 662 q 1286 740 1298 712 q 1259 797 1274 768 q 1221 847 1244 825 m 1010 538 q 1136 587 1111 543 q 1149 614 1143 600 q 1187 672 1166 653 l 1236 672 l 1236 336 l 1187 336 q 1155 379 1167 353 q 1136 419 1143 406 q 1113 442 1128 432 q 1010 465 1080 465 l 1010 538 z "},"œ":{"ha":1194,"x_min":42,"x_max":1135,"o":"m 802 -17 q 609 94 686 -2 q 413 -17 532 -1 l 413 45 q 477 136 458 63 q 496 334 496 208 q 413 620 496 587 l 413 682 q 608 572 530 667 q 802 682 686 670 l 802 612 q 741 538 758 598 q 725 396 725 479 q 728 267 725 314 q 739 180 731 219 q 802 71 758 99 l 802 -17 m 353 620 q 271 334 271 587 q 289 136 271 209 q 353 45 308 64 l 353 -17 q 130 92 218 -6 q 42 332 42 191 q 130 571 42 473 q 353 682 219 670 l 353 620 m 863 682 q 1072 573 1002 672 q 1135 336 1135 485 l 785 336 l 785 404 l 926 404 q 912 548 926 498 q 863 610 899 597 l 863 682 m 863 54 q 1053 227 1006 62 l 1115 199 q 863 -16 1062 1 l 863 54 z "},"Ŕ":{"ha":959,"x_min":52,"x_max":926,"o":"m 926 87 q 739 -14 870 -14 q 573 96 622 -14 q 534 211 551 147 q 506 310 518 275 q 433 424 478 389 l 433 524 q 548 567 513 531 q 589 704 589 610 q 551 853 589 810 q 433 898 517 894 l 433 964 l 513 964 q 755 891 671 964 q 831 718 831 826 q 663 502 831 555 q 539 481 608 484 l 539 475 q 631 445 602 465 q 730 314 694 401 q 753 254 742 285 q 775 195 764 224 q 798 142 786 165 q 854 92 825 92 q 879 108 868 92 q 898 133 890 125 q 915 140 905 140 q 926 140 924 140 l 926 87 m 372 964 l 372 129 q 403 72 372 87 q 434 61 417 65 q 470 50 452 58 l 470 0 l 52 0 l 52 50 q 87 61 70 58 q 118 72 104 65 q 149 129 149 87 l 149 833 q 118 891 149 876 q 87 902 104 898 q 52 913 70 905 l 52 964 l 372 964 m 302 1042 l 501 1250 q 587 1295 545 1295 q 650 1261 629 1295 q 656 1236 656 1250 q 644 1200 656 1211 q 597 1166 629 1184 l 386 1042 l 302 1042 z "},"Ŗ":{"ha":959,"x_min":52,"x_max":926,"o":"m 926 87 q 739 -14 870 -14 q 573 96 622 -14 q 534 211 551 147 q 506 310 518 275 q 433 424 478 389 l 433 524 q 548 567 513 531 q 589 704 589 610 q 551 853 589 810 q 433 898 517 894 l 433 964 l 513 964 q 755 891 671 964 q 831 718 831 826 q 663 502 831 555 q 539 481 608 484 l 539 475 q 631 445 602 465 q 730 314 694 401 q 753 254 742 285 q 775 195 764 224 q 798 142 786 165 q 854 92 825 92 q 879 108 868 92 q 898 133 890 125 q 915 140 905 140 q 926 140 924 140 l 926 87 m 372 964 l 372 129 q 403 72 372 87 q 434 61 417 65 q 470 50 452 58 l 470 0 l 52 0 l 52 50 q 87 61 70 58 q 118 72 104 65 q 149 129 149 87 l 149 833 q 118 891 149 876 q 87 902 104 898 q 52 913 70 905 l 52 964 l 372 964 m 368 -516 q 408 -470 387 -494 q 448 -420 429 -446 q 498 -313 492 -362 q 391 -277 427 -309 q 356 -191 356 -245 q 389 -109 356 -143 q 464 -72 422 -72 q 530 -85 506 -72 q 570 -119 554 -98 q 603 -216 603 -164 q 590 -309 603 -269 q 553 -390 577 -349 q 423 -558 504 -476 l 368 -516 z "},"ŗ":{"ha":637,"x_min":26,"x_max":633,"o":"m 437 564 q 374 494 406 564 l 370 623 q 512 695 425 695 q 599 658 563 695 q 633 576 633 623 q 604 492 633 526 q 528 456 574 456 q 457 491 481 456 q 437 564 437 520 m 303 682 q 317 321 317 522 l 317 121 q 351 70 317 85 q 384 58 366 63 q 419 43 401 52 l 419 0 l 26 0 l 26 43 q 55 56 39 52 q 84 66 71 60 q 116 114 116 79 l 116 564 q 84 613 116 601 q 55 621 71 618 q 26 634 39 625 l 26 682 l 303 682 m 207 -516 q 247 -470 225 -494 q 287 -420 268 -446 q 337 -313 330 -362 q 230 -277 265 -309 q 195 -191 195 -245 q 227 -109 195 -143 q 302 -72 260 -72 q 369 -85 345 -72 q 409 -119 393 -98 q 441 -216 441 -164 q 429 -309 441 -269 q 392 -390 416 -349 q 262 -558 342 -476 l 207 -516 z "},"Ř":{"ha":959,"x_min":52,"x_max":926,"o":"m 926 87 q 739 -14 870 -14 q 573 96 622 -14 q 534 211 551 147 q 506 310 518 275 q 433 424 478 389 l 433 524 q 548 567 513 531 q 589 704 589 610 q 551 853 589 810 q 433 898 517 894 l 433 964 l 513 964 q 755 891 671 964 q 831 718 831 826 q 663 502 831 555 q 539 481 608 484 l 539 475 q 631 445 602 465 q 730 314 694 401 q 753 254 742 285 q 775 195 764 224 q 798 142 786 165 q 854 92 825 92 q 879 108 868 92 q 898 133 890 125 q 915 140 905 140 q 926 140 924 140 l 926 87 m 372 964 l 372 129 q 403 72 372 87 q 434 61 417 65 q 470 50 452 58 l 470 0 l 52 0 l 52 50 q 87 61 70 58 q 118 72 104 65 q 149 129 149 87 l 149 833 q 118 891 149 876 q 87 902 104 898 q 52 913 70 905 l 52 964 l 372 964 m 316 1284 l 480 1139 l 644 1284 l 724 1284 l 546 1042 l 413 1042 l 235 1284 l 316 1284 z "},"ř":{"ha":637,"x_min":26,"x_max":633,"o":"m 437 564 q 374 494 406 564 l 370 623 q 512 695 425 695 q 599 658 563 695 q 633 576 633 623 q 604 492 633 526 q 528 456 574 456 q 457 491 481 456 q 437 564 437 520 m 303 682 q 317 321 317 522 l 317 121 q 351 70 317 85 q 384 58 366 63 q 419 43 401 52 l 419 0 l 26 0 l 26 43 q 55 56 39 52 q 84 66 71 60 q 116 114 116 79 l 116 564 q 84 613 116 601 q 55 621 71 618 q 26 634 39 625 l 26 682 l 303 682 m 155 1002 l 319 857 l 484 1002 l 563 1002 l 385 760 l 252 760 l 74 1002 l 155 1002 z "},"Š":{"ha":825,"x_min":62,"x_max":764,"o":"m 434 985 q 567 930 498 975 q 590 922 579 922 q 612 935 602 922 q 634 964 622 947 l 695 964 l 695 635 l 644 635 q 603 703 625 655 q 567 779 581 751 q 535 831 553 807 q 434 898 494 886 l 434 985 m 174 41 q 132 1 149 41 l 64 1 l 64 355 l 109 355 q 156 289 134 340 q 194 205 178 237 q 233 145 210 173 q 374 73 287 81 l 374 -14 q 264 8 311 -9 q 201 34 218 26 q 174 41 184 41 m 434 73 q 537 117 500 81 q 575 207 575 153 q 553 292 575 260 q 495 347 531 323 q 413 389 459 370 q 319 428 367 408 q 224 470 271 448 q 142 524 178 493 q 62 700 62 593 q 142 892 62 809 q 374 985 232 983 l 374 898 q 285 863 319 892 q 252 789 252 833 q 274 718 252 746 q 332 667 296 689 q 414 627 368 645 q 508 590 460 609 q 602 547 555 570 q 684 491 648 524 q 764 309 764 418 q 682 92 764 180 q 434 -14 592 -6 l 434 73 m 250 1310 l 414 1166 l 578 1310 l 657 1310 l 479 1068 l 347 1068 l 168 1310 l 250 1310 z "},"š":{"ha":650,"x_min":61,"x_max":611,"o":"m 298 614 q 235 555 235 597 q 354 441 235 487 q 487 386 448 406 q 552 342 526 366 q 611 207 611 288 q 538 54 611 111 q 358 -10 468 -2 l 358 71 q 429 150 429 88 q 313 259 429 214 q 183 314 221 294 q 119 357 144 334 q 61 484 61 408 q 130 628 61 565 q 298 695 200 691 l 298 614 m 484 600 q 358 614 469 606 l 358 695 q 543 639 476 690 q 598 543 598 595 q 548 456 598 477 q 499 449 530 449 q 448 469 468 449 q 428 518 428 489 q 484 600 428 568 m 181 90 q 298 71 199 75 l 298 -10 q 121 50 185 -1 q 66 149 66 93 q 87 209 66 185 q 149 232 107 232 q 210 214 190 232 q 230 166 230 195 q 181 90 230 115 m 162 1002 l 326 857 l 490 1002 l 570 1002 l 392 760 l 259 760 l 81 1002 l 162 1002 z "},"Ÿ":{"ha":782,"x_min":-36,"x_max":818,"o":"m 513 451 l 513 122 q 545 71 513 83 q 579 61 560 64 q 621 50 599 58 l 621 0 l 178 0 l 178 50 q 219 61 199 58 q 255 71 239 65 q 288 121 288 83 l 288 416 l 78 819 q -12 903 42 888 q -36 913 -25 906 l -36 964 l 399 964 l 399 913 q 368 903 384 907 q 338 895 351 900 q 308 863 308 886 q 319 827 308 848 q 346 777 331 805 l 513 451 m 501 586 l 589 760 q 627 853 627 833 q 617 882 627 873 q 594 895 608 890 q 563 903 580 899 q 530 913 546 907 l 530 964 l 818 964 l 818 916 q 795 903 807 907 q 772 891 784 899 q 718 829 740 873 l 545 495 l 501 586 m 111 1101 q 104 1107 111 1101 q 90 1129 98 1113 q 83 1163 83 1145 q 90 1196 83 1181 q 111 1223 98 1212 q 169 1249 138 1249 q 217 1242 199 1249 q 248 1223 235 1235 q 277 1172 277 1198 q 269 1129 277 1145 q 248 1101 261 1113 q 189 1076 219 1076 q 141 1083 159 1076 q 111 1101 123 1090 m 533 1101 q 527 1107 533 1101 q 513 1129 520 1113 q 505 1163 505 1145 q 513 1196 505 1181 q 533 1223 520 1212 q 591 1249 561 1249 q 640 1242 622 1249 q 671 1223 657 1235 q 699 1172 699 1198 q 691 1129 699 1145 q 671 1101 684 1113 q 612 1076 642 1076 q 564 1083 582 1076 q 533 1101 546 1090 z "},"Ž":{"ha":782,"x_min":52,"x_max":760,"o":"m 334 73 l 410 77 q 627 180 571 85 q 668 266 644 210 q 711 345 692 321 l 760 345 l 760 0 l 294 0 l 334 73 m 90 974 q 261 964 165 964 l 486 964 l 449 899 l 431 899 q 214 812 275 899 q 168 723 186 772 q 138 650 151 675 l 90 650 l 90 974 m 539 964 l 739 964 l 739 892 l 239 0 l 52 0 l 52 102 l 539 964 m 228 1304 l 392 1160 l 556 1304 l 635 1304 l 458 1062 l 325 1062 l 146 1304 l 228 1304 z "},"ž":{"ha":650,"x_min":28,"x_max":611,"o":"m 328 67 q 497 140 450 73 q 522 180 511 159 q 574 260 555 241 l 611 260 l 611 0 l 285 0 l 328 67 m 304 614 q 161 553 200 612 q 141 517 151 536 q 123 479 132 498 q 100 444 114 460 l 59 444 l 59 682 l 347 682 l 304 614 m 420 682 l 608 682 l 608 610 l 212 0 l 28 0 l 28 76 l 420 682 m 162 1002 l 326 857 l 490 1002 l 570 1002 l 392 760 l 259 760 l 81 1002 l 162 1002 z "},"ƒ":{"ha":782,"x_min":-140,"x_max":807,"o":"m 627 882 q 608 909 627 906 l 608 979 q 746 937 690 975 q 807 838 807 898 q 781 774 807 800 q 707 749 754 749 q 614 821 614 749 q 621 856 614 840 q 627 882 627 873 m 62 -271 q -125 -197 -80 -267 q -140 -150 -140 -174 q -133 -109 -140 -125 q -113 -81 -125 -93 q -41 -54 -83 -54 q 26 -75 1 -54 q 52 -122 52 -96 q 24 -182 52 -168 q 62 -207 37 -202 l 62 -271 m 123 -202 q 183 -60 168 -181 l 252 519 l 102 519 l 119 587 l 261 587 q 388 907 294 815 q 547 978 452 970 l 547 903 q 481 712 501 880 q 469 587 475 657 l 641 587 l 622 519 l 461 519 l 449 387 q 410 86 429 176 q 368 -62 391 -3 q 312 -164 346 -121 q 123 -269 241 -256 l 123 -202 z "},"Ȁ":{"ha":911,"x_min":-26,"x_max":937,"o":"m 336 817 l 239 847 q 244 898 243 876 q 250 939 245 921 q 446 982 309 965 q 484 985 467 985 q 508 946 500 964 l 822 155 q 869 78 842 103 q 937 50 896 54 l 937 0 l 503 0 l 503 43 q 538 58 520 53 q 571 68 556 63 q 604 102 604 77 q 591 149 604 115 l 336 817 m 348 608 l 195 171 q 184 120 184 140 q 196 89 184 100 q 225 71 208 77 q 262 60 242 64 q 298 46 281 55 l 298 0 l -26 0 l -26 46 q 3 60 -13 55 q 35 75 19 66 q 92 149 73 97 l 303 728 l 348 608 m 470 289 l 303 289 l 326 361 l 443 361 l 470 289 m 675 1062 l 475 1190 q 425 1251 425 1222 q 443 1298 425 1280 q 486 1315 461 1315 q 577 1267 534 1315 l 756 1062 l 675 1062 m 425 1062 l 213 1186 q 170 1214 178 1206 q 155 1250 155 1230 q 161 1281 155 1270 q 177 1299 168 1292 q 221 1315 198 1315 q 310 1270 267 1315 l 508 1062 l 425 1062 z "},"ȁ":{"ha":782,"x_min":45,"x_max":774,"o":"m 602 -10 q 447 37 499 -10 l 447 439 q 439 552 447 526 q 384 614 426 604 l 384 695 q 649 456 649 686 l 649 153 q 687 71 649 71 q 725 154 718 71 l 774 142 q 674 0 757 27 q 602 -10 644 -10 m 387 22 q 285 -10 348 -10 q 181 2 222 -10 q 110 37 140 14 q 45 174 45 87 q 139 333 45 275 q 387 424 206 375 l 387 352 q 266 185 266 304 q 302 80 266 107 q 340 71 315 71 q 387 87 364 71 l 387 22 m 243 570 q 290 508 290 549 q 229 439 290 456 q 195 435 212 435 q 120 463 146 435 q 94 529 94 491 q 109 595 94 568 q 153 644 124 623 q 323 695 216 690 l 323 614 q 243 570 270 610 m 610 760 l 411 888 q 361 949 361 920 q 379 995 361 978 q 422 1013 397 1013 q 513 965 470 1013 l 692 760 l 610 760 m 361 760 l 149 884 q 106 911 114 903 q 90 947 90 927 q 97 979 90 968 q 113 997 103 989 q 157 1013 134 1013 q 245 968 202 1013 l 444 760 l 361 760 z "},"Ȃ":{"ha":911,"x_min":-26,"x_max":937,"o":"m 336 817 l 239 847 q 244 898 243 876 q 250 939 245 921 q 446 982 309 965 q 484 985 467 985 q 508 946 500 964 l 822 155 q 869 78 842 103 q 937 50 896 54 l 937 0 l 503 0 l 503 43 q 538 58 520 53 q 571 68 556 63 q 604 102 604 77 q 591 149 604 115 l 336 817 m 348 608 l 195 171 q 184 120 184 140 q 196 89 184 100 q 225 71 208 77 q 262 60 242 64 q 298 46 281 55 l 298 0 l -26 0 l -26 46 q 3 60 -13 55 q 35 75 19 66 q 92 149 73 97 l 303 728 l 348 608 m 470 289 l 303 289 l 326 361 l 443 361 l 470 289 m 447 1183 q 301 1062 330 1183 l 241 1062 q 360 1261 246 1211 q 447 1279 399 1279 q 527 1268 494 1279 q 584 1240 560 1257 q 624 1199 608 1222 q 649 1152 640 1176 q 669 1062 666 1112 l 610 1062 q 447 1183 588 1183 z "},"ȃ":{"ha":782,"x_min":45,"x_max":774,"o":"m 602 -10 q 447 37 499 -10 l 447 439 q 439 552 447 526 q 384 614 426 604 l 384 695 q 649 456 649 686 l 649 153 q 687 71 649 71 q 725 154 718 71 l 774 142 q 674 0 757 27 q 602 -10 644 -10 m 387 22 q 285 -10 348 -10 q 181 2 222 -10 q 110 37 140 14 q 45 174 45 87 q 139 333 45 275 q 387 424 206 375 l 387 352 q 266 185 266 304 q 302 80 266 107 q 340 71 315 71 q 387 87 364 71 l 387 22 m 243 570 q 290 508 290 549 q 229 439 290 456 q 195 435 212 435 q 120 463 146 435 q 94 529 94 491 q 109 595 94 568 q 153 644 124 623 q 323 695 216 690 l 323 614 q 243 570 270 610 m 382 880 q 237 760 265 880 l 177 760 q 296 959 182 908 q 382 977 334 977 q 463 966 430 977 q 519 937 496 955 q 559 897 543 920 q 585 849 575 873 q 605 760 602 809 l 545 760 q 382 880 524 880 z "},"Ȅ":{"ha":911,"x_min":52,"x_max":847,"o":"m 373 964 l 373 0 l 52 0 l 52 50 q 88 61 71 58 q 119 72 105 65 q 149 129 149 87 l 149 833 q 119 891 149 876 q 88 902 105 898 q 52 913 71 905 l 52 964 l 373 964 m 433 68 q 519 65 467 65 q 613 81 572 65 q 681 123 655 98 q 722 180 707 149 q 748 241 737 211 q 770 297 759 271 q 801 336 781 322 l 847 336 l 847 0 l 433 0 l 433 68 m 644 847 q 632 859 644 847 q 584 884 620 870 q 501 899 549 899 q 433 897 454 899 l 433 964 l 587 964 q 808 974 739 964 l 808 646 l 761 646 q 732 687 744 662 q 709 740 721 712 q 682 797 697 768 q 644 847 667 825 m 433 574 l 659 574 l 659 400 l 433 400 l 433 574 m 675 1062 l 475 1190 q 425 1251 425 1222 q 443 1298 425 1280 q 486 1315 461 1315 q 577 1267 534 1315 l 756 1062 l 675 1062 m 425 1062 l 213 1186 q 170 1214 178 1206 q 155 1250 155 1230 q 161 1281 155 1270 q 177 1299 168 1292 q 221 1315 198 1315 q 310 1270 267 1315 l 508 1062 l 425 1062 z "},"ȅ":{"ha":739,"x_min":42,"x_max":675,"o":"m 424 71 q 607 222 560 78 l 669 193 q 424 -10 618 7 l 424 71 m 404 695 q 613 584 543 685 q 675 345 675 494 l 326 345 l 326 414 l 467 414 q 453 551 467 500 q 404 614 440 602 l 404 695 m 363 -10 q 126 104 216 1 q 42 340 42 200 q 127 586 42 486 q 343 695 211 686 l 343 614 q 280 530 298 598 q 262 375 262 461 q 267 247 262 290 q 283 171 271 205 q 363 71 307 100 l 363 -10 m 589 760 l 389 888 q 339 949 339 920 q 357 995 339 978 q 400 1013 375 1013 q 491 965 448 1013 l 670 760 l 589 760 m 339 760 l 127 884 q 84 911 92 903 q 68 947 68 927 q 75 979 68 968 q 91 997 81 989 q 135 1013 112 1013 q 224 968 180 1013 l 422 760 l 339 760 z "},"Ȇ":{"ha":911,"x_min":52,"x_max":847,"o":"m 373 964 l 373 0 l 52 0 l 52 50 q 88 61 71 58 q 119 72 105 65 q 149 129 149 87 l 149 833 q 119 891 149 876 q 88 902 105 898 q 52 913 71 905 l 52 964 l 373 964 m 433 68 q 519 65 467 65 q 613 81 572 65 q 681 123 655 98 q 722 180 707 149 q 748 241 737 211 q 770 297 759 271 q 801 336 781 322 l 847 336 l 847 0 l 433 0 l 433 68 m 644 847 q 632 859 644 847 q 584 884 620 870 q 501 899 549 899 q 433 897 454 899 l 433 964 l 587 964 q 808 974 739 964 l 808 646 l 761 646 q 732 687 744 662 q 709 740 721 712 q 682 797 697 768 q 644 847 667 825 m 433 574 l 659 574 l 659 400 l 433 400 l 433 574 m 447 1183 q 301 1062 330 1183 l 241 1062 q 360 1261 246 1211 q 447 1279 399 1279 q 527 1268 494 1279 q 584 1240 560 1257 q 624 1199 608 1222 q 649 1152 640 1176 q 669 1062 666 1112 l 610 1062 q 447 1183 588 1183 z "},"ȇ":{"ha":739,"x_min":42,"x_max":675,"o":"m 424 71 q 607 222 560 78 l 669 193 q 424 -10 618 7 l 424 71 m 404 695 q 613 584 543 685 q 675 345 675 494 l 326 345 l 326 414 l 467 414 q 453 551 467 500 q 404 614 440 602 l 404 695 m 363 -10 q 126 104 216 1 q 42 340 42 200 q 127 586 42 486 q 343 695 211 686 l 343 614 q 280 530 298 598 q 262 375 262 461 q 267 247 262 290 q 283 171 271 205 q 363 71 307 100 l 363 -10 m 361 880 q 215 760 243 880 l 155 760 q 274 959 160 908 q 360 977 313 977 q 441 966 408 977 q 498 937 474 955 q 537 897 522 920 q 563 849 553 873 q 583 760 580 809 l 524 760 q 361 880 502 880 z "},"Ȉ":{"ha":520,"x_min":-39,"x_max":562,"o":"m 147 800 q 137 871 147 856 q 117 890 126 886 q 97 897 108 895 q 74 903 86 900 q 50 913 62 905 l 50 964 l 467 964 l 467 913 q 444 903 455 905 q 421 897 432 900 q 401 890 410 895 q 386 876 393 886 q 372 800 372 856 l 372 163 q 382 91 372 106 q 402 72 393 76 q 422 65 411 68 q 467 50 454 58 l 467 0 l 50 0 l 50 50 q 86 61 68 58 q 117 72 103 65 q 147 129 147 87 l 147 800 m 481 1062 l 281 1190 q 231 1251 231 1222 q 249 1298 231 1280 q 292 1315 267 1315 q 383 1267 340 1315 l 562 1062 l 481 1062 m 231 1062 l 19 1186 q -24 1214 -16 1206 q -39 1250 -39 1230 q -33 1281 -39 1270 q -17 1299 -26 1292 q 27 1315 4 1315 q 116 1270 73 1315 l 314 1062 l 231 1062 z "},"ȉ":{"ha":435,"x_min":-82,"x_max":519,"o":"m 317 111 q 350 64 317 77 q 379 55 363 59 q 408 43 395 52 l 408 0 l 26 0 l 26 43 q 55 55 39 52 q 84 64 71 59 q 116 111 116 77 l 116 550 q 84 597 116 585 q 55 607 71 603 q 26 619 39 610 l 26 665 l 317 665 l 317 111 m 438 760 l 239 888 q 189 949 189 920 q 207 995 189 978 q 250 1013 224 1013 q 340 965 298 1013 l 519 760 l 438 760 m 189 760 l -24 884 q -66 911 -58 903 q -82 947 -82 927 q -76 979 -82 968 q -60 997 -69 989 q -16 1013 -39 1013 q 73 968 30 1013 l 271 760 l 189 760 z "},"Ȋ":{"ha":520,"x_min":46,"x_max":474,"o":"m 147 800 q 137 871 147 856 q 117 890 126 886 q 97 897 108 895 q 74 903 86 900 q 50 913 62 905 l 50 964 l 467 964 l 467 913 q 444 903 455 905 q 421 897 432 900 q 401 890 410 895 q 386 876 393 886 q 372 800 372 856 l 372 163 q 382 91 372 106 q 402 72 393 76 q 422 65 411 68 q 467 50 454 58 l 467 0 l 50 0 l 50 50 q 86 61 68 58 q 117 72 103 65 q 147 129 147 87 l 147 800 m 252 1183 q 106 1062 134 1183 l 46 1062 q 165 1261 51 1211 q 251 1279 203 1279 q 332 1268 299 1279 q 389 1240 365 1257 q 428 1199 412 1222 q 454 1152 444 1176 q 474 1062 471 1112 l 414 1062 q 252 1183 393 1183 z "},"ȋ":{"ha":435,"x_min":3,"x_max":431,"o":"m 317 111 q 350 64 317 77 q 379 55 363 59 q 408 43 395 52 l 408 0 l 26 0 l 26 43 q 55 55 39 52 q 84 64 71 59 q 116 111 116 77 l 116 550 q 84 597 116 585 q 55 607 71 603 q 26 619 39 610 l 26 665 l 317 665 l 317 111 m 209 880 q 63 760 92 880 l 3 760 q 122 959 8 908 q 209 977 161 977 q 289 966 256 977 q 346 937 322 955 q 386 897 370 920 q 411 849 401 873 q 431 760 428 809 l 372 760 q 209 880 350 880 z "},"Ȍ":{"ha":999,"x_min":50,"x_max":947,"o":"m 475 -14 q 161 142 279 -5 q 50 482 50 279 q 159 825 50 685 q 469 985 276 975 l 469 898 q 309 628 332 876 q 302 482 302 557 q 309 337 302 407 q 335 210 316 267 q 475 73 378 88 l 475 -14 m 695 482 q 529 898 695 874 l 529 985 q 838 825 723 975 q 947 482 947 684 q 840 142 947 281 q 536 -14 727 -3 l 536 73 q 689 336 667 91 q 695 482 695 407 m 719 1062 l 519 1190 q 469 1251 469 1222 q 487 1298 469 1280 q 530 1315 505 1315 q 621 1267 578 1315 l 800 1062 l 719 1062 m 469 1062 l 257 1186 q 214 1214 222 1206 q 199 1250 199 1230 q 205 1281 199 1270 q 221 1299 212 1292 q 265 1315 242 1315 q 354 1270 311 1315 l 552 1062 l 469 1062 z "},"ȍ":{"ha":766,"x_min":42,"x_max":724,"o":"m 353 614 q 271 342 271 584 q 289 156 271 222 q 353 71 308 89 l 353 -10 q 130 98 218 1 q 42 340 42 197 q 130 582 42 480 q 353 695 220 684 l 353 614 m 496 342 q 413 614 496 584 l 413 695 q 635 582 547 684 q 724 340 724 480 q 635 98 724 197 q 413 -10 548 1 l 413 71 q 477 155 458 88 q 496 342 496 222 m 602 760 l 403 888 q 353 949 353 920 q 371 995 353 978 q 414 1013 389 1013 q 505 965 462 1013 l 684 760 l 602 760 m 353 760 l 140 884 q 98 911 106 903 q 82 947 82 927 q 89 979 82 968 q 104 997 95 989 q 149 1013 125 1013 q 237 968 194 1013 l 435 760 l 353 760 z "},"Ȏ":{"ha":999,"x_min":50,"x_max":947,"o":"m 475 -14 q 161 142 279 -5 q 50 482 50 279 q 159 825 50 685 q 469 985 276 975 l 469 898 q 309 628 332 876 q 302 482 302 557 q 309 337 302 407 q 335 210 316 267 q 475 73 378 88 l 475 -14 m 695 482 q 529 898 695 874 l 529 985 q 838 825 723 975 q 947 482 947 684 q 840 142 947 281 q 536 -14 727 -3 l 536 73 q 689 336 667 91 q 695 482 695 407 m 491 1183 q 345 1062 374 1183 l 286 1062 q 404 1261 290 1211 q 491 1279 443 1279 q 571 1268 538 1279 q 628 1240 604 1257 q 668 1199 652 1222 q 693 1152 684 1176 q 713 1062 710 1112 l 654 1062 q 491 1183 632 1183 z "},"ȏ":{"ha":766,"x_min":42,"x_max":724,"o":"m 353 614 q 271 342 271 584 q 289 156 271 222 q 353 71 308 89 l 353 -10 q 130 98 218 1 q 42 340 42 197 q 130 582 42 480 q 353 695 220 684 l 353 614 m 496 342 q 413 614 496 584 l 413 695 q 635 582 547 684 q 724 340 724 480 q 635 98 724 197 q 413 -10 548 1 l 413 71 q 477 155 458 88 q 496 342 496 222 m 374 880 q 229 760 257 880 l 169 760 q 288 959 174 908 q 374 977 326 977 q 455 966 422 977 q 511 937 488 955 q 551 897 535 920 q 576 849 567 873 q 597 760 593 809 l 537 760 q 374 880 515 880 z "},"Ȑ":{"ha":927,"x_min":52,"x_max":926,"o":"m 926 87 q 739 -14 870 -14 q 573 96 622 -14 q 534 211 551 147 q 506 310 518 275 q 433 424 478 389 l 433 524 q 548 567 513 531 q 589 704 589 610 q 551 853 589 810 q 433 898 517 894 l 433 964 l 513 964 q 755 891 671 964 q 831 718 831 826 q 663 502 831 555 q 539 481 608 484 l 539 475 q 631 445 602 465 q 730 314 694 401 q 753 254 742 285 q 775 195 764 224 q 798 142 786 165 q 854 92 825 92 q 879 108 868 92 q 898 133 890 125 q 915 140 905 140 q 926 140 924 140 l 926 87 m 372 964 l 372 129 q 403 72 372 87 q 434 61 417 65 q 470 50 452 58 l 470 0 l 52 0 l 52 50 q 87 61 70 58 q 118 72 104 65 q 149 129 149 87 l 149 833 q 118 891 149 876 q 87 902 104 898 q 52 913 70 905 l 52 964 l 372 964 m 683 1062 l 484 1190 q 433 1251 433 1222 q 451 1298 433 1280 q 494 1315 469 1315 q 585 1267 543 1315 l 764 1062 l 683 1062 m 433 1062 l 221 1186 q 178 1214 186 1206 q 163 1250 163 1230 q 169 1281 163 1270 q 185 1299 176 1292 q 229 1315 206 1315 q 318 1270 275 1315 l 516 1062 l 433 1062 z "},"ȑ":{"ha":637,"x_min":18,"x_max":633,"o":"m 437 564 q 374 494 406 564 l 370 623 q 512 695 425 695 q 599 658 563 695 q 633 576 633 623 q 604 492 633 526 q 528 456 574 456 q 457 491 481 456 q 437 564 437 520 m 303 682 q 317 321 317 522 l 317 121 q 351 70 317 85 q 384 58 366 63 q 419 43 401 52 l 419 0 l 26 0 l 26 43 q 55 56 39 52 q 84 66 71 60 q 116 114 116 79 l 116 564 q 84 613 116 601 q 55 621 71 618 q 26 634 39 625 l 26 682 l 303 682 m 538 760 l 338 888 q 288 949 288 920 q 306 995 288 978 q 349 1013 324 1013 q 440 965 397 1013 l 619 760 l 538 760 m 288 760 l 76 884 q 33 911 41 903 q 18 947 18 927 q 24 979 18 968 q 40 997 31 989 q 84 1013 61 1013 q 173 968 130 1013 l 371 760 l 288 760 z "},"Ȓ":{"ha":927,"x_min":52,"x_max":926,"o":"m 926 87 q 739 -14 870 -14 q 573 96 622 -14 q 534 211 551 147 q 506 310 518 275 q 433 424 478 389 l 433 524 q 548 567 513 531 q 589 704 589 610 q 551 853 589 810 q 433 898 517 894 l 433 964 l 513 964 q 755 891 671 964 q 831 718 831 826 q 663 502 831 555 q 539 481 608 484 l 539 475 q 631 445 602 465 q 730 314 694 401 q 753 254 742 285 q 775 195 764 224 q 798 142 786 165 q 854 92 825 92 q 879 108 868 92 q 898 133 890 125 q 915 140 905 140 q 926 140 924 140 l 926 87 m 372 964 l 372 129 q 403 72 372 87 q 434 61 417 65 q 470 50 452 58 l 470 0 l 52 0 l 52 50 q 87 61 70 58 q 118 72 104 65 q 149 129 149 87 l 149 833 q 118 891 149 876 q 87 902 104 898 q 52 913 70 905 l 52 964 l 372 964 m 455 1183 q 309 1062 338 1183 l 250 1062 q 368 1261 254 1211 q 455 1279 407 1279 q 535 1268 503 1279 q 592 1240 568 1257 q 632 1199 616 1222 q 657 1152 648 1176 q 677 1062 674 1112 l 618 1062 q 455 1183 596 1183 z "},"ȓ":{"ha":637,"x_min":26,"x_max":633,"o":"m 437 564 q 374 494 406 564 l 370 623 q 512 695 425 695 q 599 658 563 695 q 633 576 633 623 q 604 492 633 526 q 528 456 574 456 q 457 491 481 456 q 437 564 437 520 m 303 682 q 317 321 317 522 l 317 121 q 351 70 317 85 q 384 58 366 63 q 419 43 401 52 l 419 0 l 26 0 l 26 43 q 55 56 39 52 q 84 66 71 60 q 116 114 116 79 l 116 564 q 84 613 116 601 q 55 621 71 618 q 26 634 39 625 l 26 682 l 303 682 m 310 880 q 164 760 193 880 l 104 760 q 223 959 109 908 q 310 977 262 977 q 390 966 357 977 q 447 937 423 955 q 487 897 471 920 q 512 849 503 873 q 532 760 529 809 l 473 760 q 310 880 451 880 z "},"Ȕ":{"ha":955,"x_min":24,"x_max":949,"o":"m 579 73 q 721 133 681 80 q 758 293 758 182 l 758 829 q 722 892 758 877 q 688 904 707 900 q 652 916 669 907 l 652 964 l 949 964 l 949 916 q 917 905 934 908 q 884 895 899 901 q 850 836 850 880 l 850 301 q 791 83 850 157 q 579 -14 727 3 l 579 73 m 519 -14 q 145 130 213 -14 q 122 243 122 178 l 122 836 q 88 893 122 879 q 57 903 74 899 q 24 916 39 907 l 24 964 l 455 964 l 455 916 q 418 905 436 908 q 385 896 399 902 q 353 840 353 882 l 353 271 q 440 93 353 136 q 519 73 472 77 l 519 -14 m 696 1062 l 497 1190 q 447 1251 447 1222 q 465 1298 447 1280 q 508 1315 483 1315 q 599 1267 556 1315 l 778 1062 l 696 1062 m 447 1062 l 235 1186 q 192 1214 200 1206 q 176 1250 176 1230 q 183 1281 176 1270 q 199 1299 189 1292 q 243 1315 220 1315 q 332 1270 288 1315 l 530 1062 l 447 1062 z "},"ȕ":{"ha":810,"x_min":26,"x_max":783,"o":"m 433 14 q 299 -10 389 -10 q 162 41 210 -10 q 115 195 115 92 l 115 564 q 82 612 115 600 q 53 621 68 618 q 26 634 38 625 l 26 682 l 316 682 l 316 177 q 333 98 316 125 q 380 71 349 71 q 433 85 412 71 l 433 14 m 494 564 q 462 612 494 600 q 433 622 448 618 q 405 634 418 625 l 405 682 l 695 682 l 695 117 q 728 69 695 82 q 756 60 741 64 q 783 47 772 56 l 783 0 l 494 0 l 494 564 m 624 760 l 425 888 q 374 949 374 920 q 392 995 374 978 q 435 1013 410 1013 q 526 965 484 1013 l 705 760 l 624 760 m 374 760 l 162 884 q 119 911 127 903 q 104 947 104 927 q 110 979 104 968 q 126 997 117 989 q 170 1013 147 1013 q 259 968 216 1013 l 457 760 l 374 760 z "},"Ȗ":{"ha":955,"x_min":24,"x_max":949,"o":"m 579 73 q 721 133 681 80 q 758 293 758 182 l 758 829 q 722 892 758 877 q 688 904 707 900 q 652 916 669 907 l 652 964 l 949 964 l 949 916 q 917 905 934 908 q 884 895 899 901 q 850 836 850 880 l 850 301 q 791 83 850 157 q 579 -14 727 3 l 579 73 m 519 -14 q 145 130 213 -14 q 122 243 122 178 l 122 836 q 88 893 122 879 q 57 903 74 899 q 24 916 39 907 l 24 964 l 455 964 l 455 916 q 418 905 436 908 q 385 896 399 902 q 353 840 353 882 l 353 271 q 440 93 353 136 q 519 73 472 77 l 519 -14 m 469 1183 q 323 1062 351 1183 l 263 1062 q 382 1261 268 1211 q 468 1279 420 1279 q 549 1268 516 1279 q 606 1240 582 1257 q 645 1199 629 1222 q 671 1152 661 1176 q 691 1062 688 1112 l 631 1062 q 469 1183 610 1183 z "},"ȗ":{"ha":810,"x_min":26,"x_max":783,"o":"m 433 14 q 299 -10 389 -10 q 162 41 210 -10 q 115 195 115 92 l 115 564 q 82 612 115 600 q 53 621 68 618 q 26 634 38 625 l 26 682 l 316 682 l 316 177 q 333 98 316 125 q 380 71 349 71 q 433 85 412 71 l 433 14 m 494 564 q 462 612 494 600 q 433 622 448 618 q 405 634 418 625 l 405 682 l 695 682 l 695 117 q 728 69 695 82 q 756 60 741 64 q 783 47 772 56 l 783 0 l 494 0 l 494 564 m 396 880 q 250 760 279 880 l 191 760 q 309 959 195 908 q 396 977 348 977 q 476 966 444 977 q 533 937 509 955 q 573 897 557 920 q 598 849 589 873 q 618 760 615 809 l 559 760 q 396 880 537 880 z "},"Ș":{"ha":825,"x_min":62,"x_max":764,"o":"m 434 985 q 567 930 498 975 q 590 922 579 922 q 612 935 602 922 q 634 964 622 947 l 695 964 l 695 635 l 644 635 q 603 703 625 655 q 567 779 581 751 q 535 831 553 807 q 434 898 494 886 l 434 985 m 174 41 q 132 1 149 41 l 64 1 l 64 355 l 109 355 q 156 289 134 340 q 194 205 178 237 q 233 145 210 173 q 374 73 287 81 l 374 -14 q 264 8 311 -9 q 201 34 218 26 q 174 41 184 41 m 434 73 q 537 117 500 81 q 575 207 575 153 q 553 292 575 260 q 495 347 531 323 q 413 389 459 370 q 319 428 367 408 q 224 470 271 448 q 142 524 178 493 q 62 700 62 593 q 142 892 62 809 q 374 985 232 983 l 374 898 q 285 863 319 892 q 252 789 252 833 q 274 718 252 746 q 332 667 296 689 q 414 627 368 645 q 508 590 460 609 q 602 547 555 570 q 684 491 648 524 q 764 309 764 418 q 682 92 764 180 q 434 -14 592 -6 l 434 73 m 294 -522 q 333 -475 312 -499 q 373 -426 355 -451 q 424 -319 417 -368 q 317 -282 352 -315 q 281 -197 281 -250 q 313 -114 281 -149 q 389 -77 347 -77 q 455 -90 431 -77 q 496 -125 479 -103 q 528 -222 528 -170 q 515 -314 528 -274 q 479 -395 503 -354 q 349 -564 429 -481 l 294 -522 z "},"ș":{"ha":650,"x_min":61,"x_max":611,"o":"m 298 614 q 235 555 235 597 q 354 441 235 487 q 487 386 448 406 q 552 342 526 366 q 611 207 611 288 q 538 54 611 111 q 358 -10 468 -2 l 358 71 q 429 150 429 88 q 313 259 429 214 q 183 314 221 294 q 119 357 144 334 q 61 484 61 408 q 130 628 61 565 q 298 695 200 691 l 298 614 m 484 600 q 358 614 469 606 l 358 695 q 543 639 476 690 q 598 543 598 595 q 548 456 598 477 q 499 449 530 449 q 448 469 468 449 q 428 518 428 489 q 484 600 428 568 m 181 90 q 298 71 199 75 l 298 -10 q 121 50 185 -1 q 66 149 66 93 q 87 209 66 185 q 149 232 107 232 q 210 214 190 232 q 230 166 230 195 q 181 90 230 115 m 242 -522 q 282 -475 260 -499 q 321 -426 303 -451 q 372 -319 366 -368 q 265 -282 300 -315 q 230 -197 230 -250 q 262 -114 230 -149 q 338 -77 296 -77 q 404 -90 380 -77 q 444 -125 428 -103 q 477 -222 477 -170 q 464 -314 477 -274 q 427 -395 451 -354 q 297 -564 378 -481 l 242 -522 z "},"Ț":{"ha":870,"x_min":20,"x_max":850,"o":"m 20 974 q 117 964 108 964 l 262 964 l 262 895 q 126 789 157 885 q 110 736 118 762 q 62 647 89 669 l 20 647 l 20 974 m 548 168 q 582 75 548 92 q 617 64 597 67 q 659 50 637 62 l 659 0 l 209 0 l 209 50 q 251 63 231 58 q 288 76 271 68 q 322 138 322 95 l 322 964 l 548 964 l 548 168 m 753 964 q 850 974 762 964 l 850 647 l 808 647 q 767 715 781 669 q 743 789 752 762 q 719 838 734 816 q 608 895 684 888 l 608 964 l 753 964 m 323 -522 q 363 -475 342 -499 q 403 -426 385 -451 q 454 -319 447 -368 q 347 -282 382 -315 q 311 -197 311 -250 q 343 -114 311 -149 q 419 -77 377 -77 q 485 -90 461 -77 q 526 -125 509 -103 q 558 -222 558 -170 q 545 -314 558 -274 q 509 -395 532 -354 q 378 -564 459 -481 l 323 -522 z "},"ț":{"ha":520,"x_min":20,"x_max":532,"o":"m 313 912 l 313 -10 l 307 -10 q 159 28 208 -10 q 111 151 111 66 l 111 607 l 20 607 l 20 661 q 46 677 31 672 q 79 689 62 683 q 130 738 119 704 q 186 865 165 837 q 222 911 206 893 l 313 912 m 373 71 q 450 106 428 71 q 465 142 460 122 q 477 182 471 162 l 532 161 q 490 53 515 82 q 438 9 465 23 q 373 -10 412 -4 l 373 71 m 373 682 l 495 682 l 495 607 l 373 607 l 373 682 m 149 -522 q 188 -475 167 -499 q 228 -426 210 -451 q 279 -319 272 -368 q 172 -282 207 -315 q 136 -197 136 -250 q 168 -114 136 -149 q 244 -77 202 -77 q 310 -90 286 -77 q 351 -125 334 -103 q 383 -222 383 -170 q 370 -314 383 -274 q 334 -395 357 -354 q 203 -564 284 -481 l 149 -522 z "},"ȷ":{"ha":435,"x_min":-131,"x_max":340,"o":"m 24 -172 q 66 -213 36 -206 l 66 -285 l 60 -285 q -77 -244 -23 -285 q -131 -141 -131 -203 q -111 -78 -131 -99 q -31 -41 -78 -41 q 50 -90 33 -41 q 55 -121 55 -105 q 24 -172 55 -162 m 126 -203 q 152 -144 152 -184 q 148 -88 152 -122 q 139 7 139 -23 l 139 564 q 107 610 139 599 q 78 619 94 616 q 50 631 63 622 l 50 682 l 340 682 l 340 37 q 126 -280 340 -247 l 126 -203 z "},"ˆ":{"ha":434,"x_min":-28,"x_max":461,"o":"m 382 760 l 218 904 l 54 760 l -28 760 l 151 1002 l 283 1002 l 461 760 l 382 760 z "},"ˇ":{"ha":434,"x_min":-28,"x_max":461,"o":"m 54 1002 l 218 857 l 382 1002 l 461 1002 l 283 760 l 151 760 l -28 1002 l 54 1002 z "},"ˉ":{"ha":434,"x_min":-19,"x_max":452,"o":"m -19 812 l -19 903 l 452 903 l 452 812 l -19 812 z "},"˘":{"ha":434,"x_min":3,"x_max":431,"o":"m 209 856 q 372 977 350 856 l 431 977 q 289 770 420 813 q 209 760 256 760 q 122 777 161 760 q 57 823 83 794 q 3 977 6 882 l 63 977 q 209 856 92 856 z "},"˙":{"ha":435,"x_min":127,"x_max":308,"o":"m 153 799 q 147 805 153 799 q 134 826 141 810 q 127 860 127 842 q 134 894 127 878 q 153 921 141 909 q 208 946 180 946 q 252 939 236 946 q 281 921 269 932 q 308 869 308 897 q 301 826 308 842 q 281 799 294 810 q 226 774 254 774 q 182 781 199 774 q 153 799 165 787 z "},"˚":{"ha":435,"x_min":54,"x_max":380,"o":"m 54 906 q 66 962 54 936 q 102 1008 79 988 q 218 1050 150 1050 q 332 1008 286 1050 q 380 905 380 965 q 333 802 380 845 q 218 760 285 760 q 102 802 151 760 q 54 906 54 844 m 123 905 q 151 846 123 871 q 208 822 178 822 q 254 829 237 822 q 283 846 271 836 q 310 905 310 871 q 254 981 310 960 q 217 987 237 987 q 181 981 198 987 q 151 964 163 975 q 123 905 123 940 z "},"˛":{"ha":435,"x_min":36,"x_max":443,"o":"m 410 12 q 271 -45 307 -24 q 216 -83 235 -66 q 173 -155 173 -119 q 195 -209 173 -191 q 248 -227 218 -227 q 299 -221 278 -227 q 338 -209 319 -216 q 376 -191 357 -201 q 413 -172 394 -182 l 443 -220 q 395 -246 420 -232 q 340 -273 370 -260 q 218 -302 271 -302 q 136 -294 165 -302 q 84 -269 106 -285 q 36 -180 36 -235 q 339 16 36 -39 q 410 28 379 23 l 410 12 z "},"˜":{"ha":435,"x_min":-41,"x_max":474,"o":"m 474 957 q 382 806 456 847 q 314 789 353 789 q 245 800 275 789 q 187 824 214 810 q 135 848 159 837 q 83 859 111 859 q 38 837 56 859 q 12 787 19 816 l -41 787 q 60 944 -21 905 q 120 957 87 957 q 212 933 163 957 q 287 899 261 909 q 336 888 313 888 q 372 894 359 888 q 393 910 384 900 q 418 957 406 924 l 474 957 z "},"˝":{"ha":435,"x_min":-9,"x_max":593,"o":"m -9 760 l 170 965 q 258 1013 212 1013 q 304 995 286 1013 q 322 956 322 978 q 272 888 322 920 l 73 760 l -9 760 m 239 760 l 437 968 q 524 1013 479 1013 q 586 979 566 1013 q 593 954 593 968 q 589 929 593 939 q 578 912 585 920 q 534 884 569 903 l 322 760 l 239 760 z "},"̇":{"ha":435,"x_min":121,"x_max":315,"o":"m 149 799 q 142 805 149 799 q 128 826 136 810 q 121 860 121 842 q 128 894 121 878 q 149 921 136 909 q 207 946 176 946 q 255 939 237 946 q 286 921 273 932 q 315 869 315 896 q 307 826 315 842 q 286 799 299 810 q 227 774 257 774 q 179 781 197 774 q 149 799 161 787 z "},"̏":{"ha":435,"x_min":-9,"x_max":593,"o":"m 511 760 l 312 888 q 262 949 262 920 q 280 995 262 978 q 323 1013 298 1013 q 414 965 371 1013 l 593 760 l 511 760 m 262 760 l 50 884 q 7 911 15 903 q -9 947 -9 927 q -2 979 -9 968 q 14 997 4 989 q 58 1013 35 1013 q 146 968 103 1013 l 345 760 l 262 760 z "},"̑":{"ha":434,"x_min":3,"x_max":431,"o":"m 209 880 q 63 760 92 880 l 3 760 q 122 959 8 908 q 209 977 161 977 q 289 966 256 977 q 346 937 322 955 q 386 897 370 920 q 411 849 401 873 q 431 760 428 809 l 372 760 q 209 880 350 880 z "},"̦":{"ha":391,"x_min":75,"x_max":322,"o":"m 87 -522 q 127 -475 106 -499 q 167 -426 149 -451 q 218 -319 211 -368 q 111 -282 146 -315 q 75 -197 75 -250 q 107 -114 75 -149 q 183 -77 141 -77 q 249 -90 225 -77 q 290 -125 273 -103 q 322 -222 322 -170 q 309 -314 322 -274 q 273 -395 296 -354 q 142 -564 223 -481 l 87 -522 z "},"Ω":{"ha":1022,"x_min":43,"x_max":977,"o":"m 477 928 q 355 835 395 917 q 307 541 307 740 q 398 153 307 387 q 448 28 423 88 l 434 0 l 78 0 l 43 232 l 96 233 q 135 159 117 174 q 208 138 161 138 l 337 138 q 174 293 229 223 q 86 551 86 408 q 198 854 86 734 q 477 982 306 970 l 477 928 m 713 541 q 537 928 713 903 l 537 983 q 822 862 713 975 q 935 558 935 745 q 762 217 935 374 q 672 138 715 175 l 821 138 q 879 151 864 138 q 925 233 905 174 l 977 232 l 939 0 l 583 0 l 569 28 q 615 149 590 84 q 662 279 640 213 q 713 541 713 435 z "},"μ":{"ha":819,"x_min":26,"x_max":797,"o":"m 316 -264 l 26 -264 l 26 -221 q 53 -209 38 -212 q 82 -199 68 -205 q 115 -153 115 -186 l 115 550 q 82 598 115 586 q 53 607 68 603 q 26 619 38 610 l 26 665 l 316 665 l 316 -264 m 401 71 q 507 183 475 71 l 507 550 q 475 598 507 586 q 447 607 462 603 q 418 619 431 610 l 418 665 l 709 665 l 709 114 q 741 68 709 80 q 770 59 755 62 q 797 46 785 55 l 797 0 l 520 0 l 520 64 q 376 -15 454 -3 l 376 74 q 401 71 387 71 z "},"π":{"ha":842,"x_min":25,"x_max":807,"o":"m 286 618 l 675 614 q 726 621 713 614 q 760 657 745 631 l 807 647 q 780 542 800 586 q 753 488 760 498 q 664 479 725 479 q 656 312 656 396 q 658 192 656 228 q 665 133 659 155 q 711 90 676 90 q 774 121 736 90 l 794 83 q 719 11 768 41 q 621 -18 670 -18 q 469 172 469 -18 q 484 484 469 304 l 310 486 l 310 472 q 250 70 310 210 q 215 8 239 43 q 103 -18 165 -13 l 93 12 q 231 489 231 195 q 92 462 147 489 q 48 439 73 452 l 25 481 q 61 523 41 499 q 111 568 81 547 q 286 618 183 618 z "},"–":{"ha":782,"x_min":0,"x_max":782,"o":"m 0 278 l 0 386 l 782 386 l 782 278 l 0 278 z "},"—":{"ha":1563,"x_min":0,"x_max":1563,"o":"m 0 278 l 0 386 l 1563 386 l 1563 278 l 0 278 z "},"‘":{"ha":333,"x_min":41,"x_max":281,"o":"m 252 958 q 168 851 183 882 q 151 803 152 819 q 191 792 168 798 q 233 773 214 786 q 281 677 281 743 q 261 608 281 633 q 166 559 222 559 q 70 608 104 559 q 41 699 41 650 q 52 785 41 749 q 83 856 62 821 q 199 999 118 916 l 252 958 z "},"’":{"ha":333,"x_min":50,"x_max":291,"o":"m 79 586 q 183 741 176 686 q 142 751 165 745 q 99 770 119 758 q 50 865 50 802 q 71 936 50 910 q 165 985 110 985 q 262 936 229 985 q 291 846 291 895 q 280 760 291 796 q 250 688 269 724 q 134 546 213 625 l 79 586 z "},"‚":{"ha":333,"x_min":50,"x_max":291,"o":"m 79 -187 q 183 -32 176 -87 q 142 -21 165 -27 q 99 -3 119 -16 q 50 93 50 28 q 71 162 50 136 q 165 211 110 211 q 262 163 229 211 q 291 72 291 121 q 280 -14 291 22 q 250 -85 270 -50 q 134 -228 214 -147 l 79 -187 z "},"“":{"ha":637,"x_min":35,"x_max":594,"o":"m 245 958 q 142 803 150 858 q 182 792 159 798 q 226 773 205 786 q 275 677 275 742 q 254 608 275 633 q 159 559 214 559 q 63 608 97 559 q 35 699 35 649 q 45 785 35 749 q 76 856 56 821 q 191 999 111 918 l 245 958 m 564 958 q 478 849 492 879 q 461 803 463 819 q 502 792 479 798 q 545 773 525 786 q 594 677 594 742 q 574 608 594 634 q 478 559 534 559 q 382 608 416 559 q 353 699 353 649 q 364 785 353 749 q 395 856 374 821 q 510 999 431 918 l 564 958 z "},"”":{"ha":637,"x_min":42,"x_max":602,"o":"m 391 586 q 494 741 487 685 q 453 751 476 745 q 410 770 431 758 q 361 865 361 802 q 425 973 361 940 q 478 985 446 985 q 534 971 511 985 q 573 936 558 958 q 602 827 602 895 q 446 546 602 699 l 391 586 m 72 586 q 175 741 168 685 q 134 751 157 745 q 91 770 111 758 q 42 865 42 802 q 62 936 42 910 q 158 985 102 985 q 255 936 221 985 q 283 846 283 895 q 273 760 283 796 q 241 688 262 724 q 127 546 205 625 l 72 586 z "},"„":{"ha":637,"x_min":42,"x_max":602,"o":"m 391 -187 q 494 -32 487 -88 q 453 -21 476 -27 q 410 -3 431 -16 q 361 93 361 28 q 382 163 361 138 q 477 211 422 211 q 573 163 539 211 q 602 72 602 121 q 591 -14 602 22 q 560 -85 581 -50 q 446 -228 524 -150 l 391 -187 m 72 -187 q 175 -32 168 -88 q 134 -21 157 -27 q 91 -3 111 -16 q 42 93 42 28 q 62 162 42 136 q 158 211 102 211 q 255 163 221 211 q 283 72 283 121 q 273 -14 283 22 q 242 -85 262 -50 q 127 -228 206 -147 l 72 -187 z "},"†":{"ha":653,"x_min":35,"x_max":619,"o":"m 258 1013 l 396 1013 l 371 715 l 619 739 l 619 593 l 371 616 l 371 -134 l 258 -134 l 258 616 l 35 593 l 35 739 l 283 715 l 258 1013 z "},"‡":{"ha":653,"x_min":35,"x_max":619,"o":"m 258 1013 l 396 1013 l 371 715 l 619 739 l 619 593 l 371 616 l 396 439 l 371 262 l 619 286 l 619 140 l 371 164 l 396 -134 l 258 -134 l 283 164 l 35 140 l 35 286 l 283 262 l 258 439 l 283 616 l 35 593 l 35 739 l 283 715 l 258 1013 z "},"•":{"ha":782,"x_min":119,"x_max":661,"o":"m 119 481 q 140 575 119 532 q 198 652 161 619 q 391 722 279 722 q 583 652 503 722 q 661 482 661 582 q 583 311 661 382 q 391 240 504 240 q 198 311 278 240 q 119 481 119 382 z "},"…":{"ha":1563,"x_min":147,"x_max":1416,"o":"m 147 107 q 179 192 147 157 q 261 227 211 227 q 343 192 311 227 q 376 107 376 157 q 343 22 376 57 q 261 -12 311 -12 q 156 60 184 -12 q 147 107 147 82 m 667 107 q 700 192 667 157 q 782 227 732 227 q 887 154 859 227 q 896 107 896 132 q 864 22 896 57 q 782 -12 832 -12 q 700 22 732 -12 q 667 107 667 57 m 1188 107 q 1220 192 1188 157 q 1303 227 1252 227 q 1384 192 1352 227 q 1416 107 1416 157 q 1384 22 1416 57 q 1303 -12 1352 -12 q 1196 60 1225 -12 q 1188 107 1188 82 z "},"‰":{"ha":1520,"x_min":38,"x_max":1493,"o":"m 220 -21 l 133 -21 l 794 985 l 880 985 l 220 -21 m 226 938 q 186 723 186 903 q 226 506 186 543 l 226 457 q 84 545 135 467 q 38 722 38 618 q 84 897 38 826 q 226 985 135 975 l 226 938 m 286 506 q 326 723 326 543 q 286 938 326 903 l 286 985 q 427 897 377 975 q 474 722 474 826 q 427 545 474 618 q 286 457 377 467 l 286 506 m 744 460 q 704 245 704 425 q 744 28 704 65 l 744 -21 q 602 68 653 -11 q 556 243 556 140 q 602 419 556 348 q 744 507 653 497 l 744 460 m 804 28 q 844 245 844 65 q 804 460 844 425 l 804 507 q 945 419 895 497 q 992 243 992 348 q 945 68 992 140 q 804 -21 895 -11 l 804 28 m 1245 460 q 1205 245 1205 425 q 1245 28 1205 65 l 1245 -21 q 1104 68 1154 -11 q 1057 243 1057 140 q 1104 419 1057 348 q 1245 507 1154 497 l 1245 460 m 1305 28 q 1345 245 1345 65 q 1305 460 1345 425 l 1305 507 q 1447 419 1396 497 q 1493 243 1493 348 q 1447 68 1493 140 q 1305 -21 1396 -11 l 1305 28 z "},"‹":{"ha":500,"x_min":96,"x_max":382,"o":"m 382 725 l 382 625 l 236 407 l 382 189 l 382 89 l 96 350 l 96 464 l 382 725 z "},"›":{"ha":500,"x_min":118,"x_max":404,"o":"m 118 725 l 404 464 l 404 350 l 118 89 l 118 189 l 264 407 l 118 625 l 118 725 z "},"⁄":{"ha":261,"x_min":-262,"x_max":522,"o":"m -127 -21 l -262 -21 l 387 985 l 522 985 l -127 -21 z "},"€":{"ha":781,"x_min":21,"x_max":747,"o":"m 517 977 q 585 950 556 968 q 625 925 614 932 q 643 918 635 918 q 655 927 650 918 q 667 953 661 936 l 726 953 l 726 669 l 670 669 q 636 742 655 694 q 607 815 617 789 q 583 861 596 840 q 517 920 554 909 l 517 977 m 517 52 q 655 197 615 58 q 673 298 669 245 l 747 286 q 678 71 736 150 q 517 -20 620 -9 l 517 52 m 351 382 q 456 65 366 118 l 456 -20 q 237 102 325 -7 q 130 382 151 210 l 21 382 l 30 450 l 125 450 l 125 484 q 127 546 125 522 l 21 546 l 30 614 l 136 614 q 250 880 162 779 q 456 985 338 982 l 456 916 q 380 818 404 896 q 351 614 356 741 l 576 614 l 568 546 l 349 546 l 349 450 l 554 450 l 545 382 l 351 382 z "},"ℓ":{"ha":652,"x_min":35,"x_max":629,"o":"m 437 89 q 591 187 517 89 l 629 158 q 355 -20 532 -20 q 186 36 239 -20 q 149 100 157 71 q 134 240 134 150 l 134 343 l 55 294 l 35 338 l 133 404 l 133 604 q 146 802 133 747 q 174 885 159 857 q 218 948 189 913 q 289 1006 246 983 q 373 1029 332 1029 q 444 1015 415 1029 q 493 975 473 1001 q 533 850 533 924 q 519 725 533 777 q 479 628 505 674 q 325 446 432 547 l 325 329 q 349 141 325 193 q 437 89 372 89 m 431 833 q 377 981 431 981 q 351 968 361 981 q 335 922 340 956 q 325 673 325 865 l 325 528 q 423 744 399 606 q 431 833 431 788 z "},"™":{"ha":1556,"x_min":-3,"x_max":1527,"o":"m 139 924 q 42 842 61 924 l -3 842 l -3 964 l 588 964 l 588 842 l 543 842 q 517 896 533 882 q 446 924 488 924 l 383 924 l 383 501 q 392 458 383 465 q 463 443 406 446 l 463 403 l 122 403 l 122 443 q 190 454 180 446 q 201 474 200 463 q 203 501 203 485 l 203 924 l 139 924 m 760 850 q 647 924 722 924 l 647 964 l 894 964 l 1099 589 l 1314 964 l 1527 964 l 1527 924 q 1462 911 1474 921 q 1449 891 1451 902 q 1447 865 1447 881 l 1447 501 q 1456 458 1447 465 q 1527 443 1470 446 l 1527 403 l 1187 403 l 1187 443 q 1255 454 1244 446 q 1266 474 1265 463 q 1267 501 1267 485 l 1267 789 l 1263 789 l 1044 404 l 1019 404 l 813 789 l 810 789 l 810 545 q 819 469 810 482 q 892 443 837 444 l 892 403 l 682 403 l 682 443 q 749 466 734 444 q 760 545 760 481 l 760 850 z "},"Ω":{"ha":1022,"x_min":43,"x_max":977,"o":"m 477 928 q 355 835 395 917 q 307 541 307 740 q 398 153 307 387 q 448 28 423 88 l 434 0 l 78 0 l 43 232 l 96 233 q 135 159 117 174 q 208 138 161 138 l 337 138 q 174 293 229 223 q 86 551 86 408 q 198 854 86 734 q 477 982 306 970 l 477 928 m 713 541 q 537 928 713 903 l 537 983 q 822 862 713 975 q 935 558 935 745 q 762 217 935 374 q 672 138 715 175 l 821 138 q 879 151 864 138 q 925 233 905 174 l 977 232 l 939 0 l 583 0 l 569 28 q 615 149 590 84 q 662 279 640 213 q 713 541 713 435 z "},"∂":{"ha":801,"x_min":60,"x_max":730,"o":"m 307 974 q 170 893 241 958 q 134 929 154 893 q 113 987 113 966 q 116 1014 113 1008 q 307 1066 202 1061 l 307 974 m 583 729 q 367 977 583 968 l 367 1066 q 646 880 548 1055 q 730 526 730 731 q 642 164 730 311 q 367 -17 544 -1 l 367 39 q 474 182 418 65 q 545 456 519 277 q 475 523 524 503 q 436 530 457 530 l 435 530 q 311 453 361 530 q 251 228 265 369 q 246 146 246 185 q 307 35 246 52 l 307 -18 q 127 58 193 -11 q 60 250 60 130 q 151 490 60 385 q 323 587 212 563 q 395 595 359 595 l 397 595 q 561 522 500 595 q 583 729 583 638 z "},"∆":{"ha":946,"x_min":48,"x_max":896,"o":"m 48 0 l 48 50 l 422 964 l 503 982 l 896 50 l 896 0 l 48 0 m 399 714 l 152 86 l 655 86 l 399 714 z "},"∏":{"ha":1048,"x_min":33,"x_max":1007,"o":"m 1007 918 q 892 887 914 911 q 875 847 878 873 q 871 780 871 822 l 871 192 q 875 120 871 146 q 892 78 878 93 q 932 58 905 64 q 1006 47 959 52 l 1006 1 l 566 1 l 566 47 q 625 56 603 51 q 656 75 646 61 q 673 191 673 97 l 673 855 q 665 896 673 888 q 614 907 652 907 l 425 907 q 384 901 391 907 q 373 861 373 891 l 373 191 q 374 121 373 147 q 384 79 375 94 q 412 57 393 64 q 469 47 432 51 l 469 1 l 37 1 l 37 47 q 111 58 84 52 q 152 79 138 64 q 170 120 166 94 q 174 191 174 146 l 174 780 q 170 849 174 823 q 152 888 166 874 q 33 918 130 911 l 33 964 l 1007 964 l 1007 918 z "},"∑":{"ha":821,"x_min":41,"x_max":789,"o":"m 721 972 q 739 733 733 793 l 685 725 q 613 888 652 849 q 553 912 592 909 q 474 916 515 916 l 279 916 l 524 484 l 196 21 l 519 21 q 600 25 568 21 q 655 44 632 28 q 695 91 677 60 q 736 176 713 121 l 789 165 l 718 -132 l 41 -132 l 41 -87 l 358 349 l 43 928 l 43 972 l 721 972 z "},"−":{"ha":938,"x_min":94,"x_max":843,"o":"m 94 260 l 94 406 l 843 406 l 843 260 l 94 260 z "},"∕":{"ha":261,"x_min":-262,"x_max":522,"o":"m -127 -21 l -262 -21 l 387 985 l 522 985 l -127 -21 z "},"∙":{"ha":391,"x_min":68,"x_max":322,"o":"m 68 332 q 106 411 68 378 q 195 444 142 444 q 285 411 248 444 q 322 332 322 378 q 285 252 322 286 q 195 220 248 220 q 106 252 142 220 q 68 332 68 286 z "},"√":{"ha":837,"x_min":54,"x_max":819,"o":"m 552 -244 l 510 -260 l 203 496 l 73 446 l 54 503 l 333 607 l 534 74 l 538 74 l 743 1223 l 819 1211 l 552 -244 z "},"∞":{"ha":1139,"x_min":67,"x_max":1069,"o":"m 824 522 q 671 437 753 522 l 610 517 q 693 585 659 566 q 822 623 761 623 q 925 607 882 623 q 1000 563 968 592 q 1069 400 1069 500 l 1069 399 q 996 226 1069 292 q 828 164 926 164 q 718 186 762 164 q 583 296 638 227 q 494 406 527 366 q 431 472 460 446 q 313 522 376 522 q 218 486 253 522 q 185 390 185 450 q 222 302 185 337 q 318 267 260 267 l 319 267 q 479 354 395 267 l 540 274 q 303 164 430 164 q 139 227 207 164 q 67 392 67 292 q 138 559 67 494 q 316 623 209 623 q 519 543 431 623 q 610 438 553 512 q 699 334 668 365 q 832 267 768 267 q 921 309 886 267 q 952 382 952 346 q 943 443 952 418 q 918 484 935 467 q 825 522 883 522 l 824 522 z "},"∫":{"ha":612,"x_min":82,"x_max":864,"o":"m 692 1126 q 744 1119 716 1122 q 798 1108 772 1117 q 864 1027 857 1088 q 806 949 864 968 q 772 944 790 944 q 740 954 753 944 q 719 980 727 964 q 704 1013 710 995 q 692 1044 699 1030 l 692 1126 m 240 -245 q 219 -248 229 -248 q 195 -249 210 -248 q 160 -244 180 -249 q 122 -229 140 -239 q 82 -167 83 -205 q 113 -104 82 -127 q 167 -83 140 -83 q 204 -90 194 -83 q 221 -107 214 -97 q 232 -129 227 -117 q 240 -150 236 -140 l 240 -245 m 300 -144 q 359 210 339 -81 q 401 716 387 610 q 432 895 416 822 q 473 1023 449 968 q 604 1139 524 1139 q 632 1136 615 1139 l 632 1052 q 572 696 593 988 q 560 523 566 612 q 546 343 553 433 q 526 168 538 252 q 498 11 515 84 q 458 -115 482 -62 q 330 -232 407 -232 q 300 -228 315 -232 l 300 -144 z "},"≈":{"ha":764,"x_min":47,"x_max":713,"o":"m 713 437 q 575 307 661 339 q 521 296 547 296 q 477 299 496 296 q 441 308 459 302 q 364 345 411 318 q 307 377 333 365 q 253 390 280 390 q 208 381 226 390 q 176 359 191 373 q 125 296 158 343 l 47 354 q 48 357 47 355 l 47 358 q 193 488 95 454 q 254 498 224 498 q 305 494 283 498 q 345 483 326 490 q 415 448 381 469 q 463 420 450 427 q 514 407 492 407 q 552 414 536 407 q 583 434 568 421 q 637 501 605 454 l 713 441 q 712 439 712 440 q 711 439 712 439 l 713 437 z "},"≠":{"ha":764,"x_min":66,"x_max":696,"o":"m 520 587 l 696 587 l 696 478 l 478 478 l 398 306 l 696 306 l 696 197 l 355 197 l 288 56 l 195 86 l 245 197 l 66 197 l 66 306 l 290 306 l 368 478 l 66 478 l 66 587 l 412 587 l 477 728 l 572 697 l 520 587 z "},"≤":{"ha":764,"x_min":70,"x_max":701,"o":"m 75 435 l 75 551 l 694 846 l 694 720 l 189 494 l 189 492 l 694 268 l 694 139 l 75 435 m 70 -21 l 70 90 l 701 90 l 701 -21 l 70 -21 z "},"≥":{"ha":764,"x_min":78,"x_max":699,"o":"m 696 551 l 696 433 l 78 139 l 78 267 l 583 492 l 583 496 l 78 720 l 78 846 l 696 551 m 78 -21 l 78 90 l 699 90 l 699 -21 l 78 -21 z "},"◊":{"ha":835,"x_min":70,"x_max":762,"o":"m 492 -94 l 338 -94 l 70 468 l 344 1035 l 494 1035 l 762 468 l 492 -94 m 420 920 l 414 920 l 206 469 l 416 16 l 420 16 l 627 468 l 420 920 z "},"ﬁ":{"ha":941,"x_min":26,"x_max":895,"o":"m 330 113 q 369 66 330 77 q 407 57 386 61 q 449 43 429 53 l 449 0 l 31 0 l 31 43 q 63 55 46 52 q 95 64 81 59 q 128 111 128 76 l 128 593 l 26 593 l 26 640 q 47 651 34 648 q 76 655 61 653 q 128 682 115 662 q 171 885 133 819 q 330 981 217 966 l 330 113 m 602 550 q 581 593 602 581 l 390 593 l 390 665 l 804 665 l 804 111 q 836 64 804 77 q 865 55 850 59 q 895 43 881 52 l 895 0 l 513 0 l 513 43 q 541 55 526 52 q 570 64 557 59 q 602 111 602 77 l 602 550 m 390 985 q 491 990 436 990 q 605 978 547 990 q 705 945 663 966 q 797 833 797 901 q 733 744 797 767 q 677 736 713 736 q 614 761 641 736 q 588 818 588 785 q 637 888 588 873 q 471 930 608 930 q 390 923 423 930 l 390 985 z "},"ﬂ":{"ha":941,"x_min":26,"x_max":915,"o":"m 330 665 l 486 665 l 486 593 l 330 593 l 330 113 q 369 66 330 77 q 407 57 386 61 q 449 43 429 53 l 449 0 l 31 0 l 31 43 q 63 55 46 52 q 95 64 81 59 q 128 111 128 76 l 128 593 l 26 593 l 26 640 q 47 651 34 648 q 76 655 61 653 q 128 682 115 662 q 171 885 133 819 q 330 981 217 966 l 330 665 m 390 923 l 390 985 q 548 995 475 995 q 675 982 621 995 q 763 946 730 968 q 824 833 824 905 l 824 111 q 856 64 824 77 q 886 55 870 59 q 915 43 901 52 l 915 0 l 533 0 l 533 43 q 562 55 546 52 q 591 64 577 59 q 623 111 623 77 l 623 822 q 597 903 623 882 q 505 926 568 926 q 390 923 441 926 z "}}}
